# Made in Blockbench 5.0.7
mtllib export_hv_fuse_closed.mtl

o fuse1
v 0.75 2.678897198594522 0.14254207849345812
v 0.75 2.5832263405032494 -0.08842780463436362
v 0.75 1.1775929582636808 0.764402656086729
v 0.75 1.0819221001724084 0.5334327729589072
v 0.5 2.678897198594522 0.14254207849345812
v 0.5 2.5832263405032494 -0.08842780463436362
v 0.5 1.1775929582636808 0.764402656086729
v 0.5 1.0819221001724084 0.5334327729589072
vt 0.3671875 0.203125
vt 0.3359375 0.203125
vt 0.3359375 0
vt 0.3671875 0
vt 0.3671875 0
vt 0.3671875 0.203125
vt 0.3359375 0.203125
vt 0.3359375 0
vt 0.3359375 0.2109375
vt 0.3671875 0.2109375
vt 0.3671875 0.2421875
vt 0.3359375 0.2421875
vt 0.3671875 0.2109375
vt 0.3671875 0.2421875
vt 0.3359375 0.2421875
vt 0.3359375 0.2109375
vt 0.3671875 0
vt 0.3671875 0.203125
vt 0.3359375 0.203125
vt 0.3359375 0
vt 0.3671875 0.203125
vt 0.3359375 0.203125
vt 0.3359375 0
vt 0.3671875 0
vn 1 0 0
vn -1 0 0
vn 0 0.9238795325112867 -0.3826834323650897
vn 0 -0.9238795325112867 0.3826834323650897
vn 0 0.3826834323650897 0.9238795325112867
vn 0 -0.3826834323650897 -0.9238795325112867
usemtl m_1308eb73-20dc-1bf6-e4b5-30859ff8f7f9
f 2/1/1 1/2/1 3/3/1
f 2/1/1 3/3/1 4/4/1
f 7/5/2 5/6/2 6/7/2
f 7/5/2 6/7/2 8/8/2
f 5/9/3 1/10/3 2/11/3
f 5/9/3 2/11/3 6/12/3
f 4/13/4 3/14/4 7/15/4
f 4/13/4 7/15/4 8/16/4
f 3/17/5 1/18/5 5/19/5
f 3/17/5 5/19/5 7/20/5
f 6/21/6 2/22/6 4/23/6
f 6/21/6 4/23/6 8/24/6
o fuse2
v 1.25 1.1667736594967506 1.2240721953656362
v 1.25 1.0711028014054782 1.455042078493458
v 1.25 2.668077899827592 1.8459327729589072
v 1.25 2.5724070417363194 2.076902656086729
v 1.5 1.1667736594967506 1.2240721953656362
v 1.5 1.0711028014054782 1.455042078493458
v 1.5 2.668077899827592 1.8459327729589072
v 1.5 2.5724070417363194 2.076902656086729
vt 0.3671875 0
vt 0.3671875 0.203125
vt 0.3359375 0.203125
vt 0.3359375 0
vt 0.3671875 0.203125
vt 0.3359375 0.203125
vt 0.3359375 0
vt 0.3671875 0
vt 0.3359375 0.2421875
vt 0.3359375 0.2109375
vt 0.3671875 0.2109375
vt 0.3671875 0.2421875
vt 0.3671875 0.2421875
vt 0.3359375 0.2421875
vt 0.3359375 0.2109375
vt 0.3671875 0.2109375
vt 0.3671875 0.203125
vt 0.3359375 0.203125
vt 0.3359375 0
vt 0.3671875 0
vt 0.3671875 0
vt 0.3671875 0.203125
vt 0.3359375 0.203125
vt 0.3359375 0
vn -1 0 0
vn 1 0 0
vn 0 -0.9238795325112867 -0.3826834323650899
vn 0 0.9238795325112867 0.3826834323650899
vn 0 0.3826834323650899 -0.9238795325112867
vn 0 -0.3826834323650899 0.9238795325112867
usemtl m_1308eb73-20dc-1bf6-e4b5-30859ff8f7f9
f 11/25/7 9/26/7 10/27/7
f 11/25/7 10/27/7 12/28/7
f 14/29/8 13/30/8 15/31/8
f 14/29/8 15/31/8 16/32/8
f 10/33/9 9/34/9 13/35/9
f 10/33/9 13/35/9 14/36/9
f 15/37/10 11/38/10 12/39/10
f 15/37/10 12/39/10 16/40/10
f 13/41/11 9/42/11 11/43/11
f 13/41/11 11/43/11 15/44/11
f 12/45/12 10/46/12 14/47/12
f 12/45/12 14/47/12 16/48/12
o fuse4
v 1.25 2.678897198594522 0.14254207849345812
v 1.25 2.5832263405032494 -0.08842780463436362
v 1.25 1.1775929582636808 0.764402656086729
v 1.25 1.0819221001724084 0.5334327729589072
v 1.5 2.678897198594522 0.14254207849345812
v 1.5 2.5832263405032494 -0.08842780463436362
v 1.5 1.1775929582636808 0.764402656086729
v 1.5 1.0819221001724084 0.5334327729589072
vt 0.3671875 0
vt 0.3671875 0.203125
vt 0.3359375 0.203125
vt 0.3359375 0
vt 0.3671875 0.203125
vt 0.3359375 0.203125
vt 0.3359375 0
vt 0.3671875 0
vt 0.3359375 0.2421875
vt 0.3359375 0.2109375
vt 0.3671875 0.2109375
vt 0.3671875 0.2421875
vt 0.3671875 0.2421875
vt 0.3359375 0.2421875
vt 0.3359375 0.2109375
vt 0.3671875 0.2109375
vt 0.3671875 0.203125
vt 0.3359375 0.203125
vt 0.3359375 0
vt 0.3671875 0
vt 0.3671875 0
vt 0.3671875 0.203125
vt 0.3359375 0.203125
vt 0.3359375 0
vn -1 0 0
vn 1 0 0
vn 0 0.9238795325112867 -0.3826834323650897
vn 0 -0.9238795325112867 0.3826834323650897
vn 0 0.3826834323650897 0.9238795325112867
vn 0 -0.3826834323650897 -0.9238795325112867
usemtl m_1308eb73-20dc-1bf6-e4b5-30859ff8f7f9
f 19/49/13 17/50/13 18/51/13
f 19/49/13 18/51/13 20/52/13
f 22/53/14 21/54/14 23/55/14
f 22/53/14 23/55/14 24/56/14
f 18/57/15 17/58/15 21/59/15
f 18/57/15 21/59/15 22/60/15
f 23/61/16 19/62/16 20/63/16
f 23/61/16 20/63/16 24/64/16
f 21/65/17 17/66/17 19/67/17
f 21/65/17 19/67/17 23/68/17
f 20/69/18 18/70/18 22/71/18
f 20/69/18 22/71/18 24/72/18
o fuse3
v 0.75 1.1667736594967506 1.2240721953656362
v 0.75 1.0711028014054782 1.455042078493458
v 0.75 2.668077899827592 1.8459327729589072
v 0.75 2.5724070417363194 2.076902656086729
v 0.5 1.1667736594967506 1.2240721953656362
v 0.5 1.0711028014054782 1.455042078493458
v 0.5 2.668077899827592 1.8459327729589072
v 0.5 2.5724070417363194 2.076902656086729
vt 0.3671875 0.203125
vt 0.3359375 0.203125
vt 0.3359375 0
vt 0.3671875 0
vt 0.3671875 0
vt 0.3671875 0.203125
vt 0.3359375 0.203125
vt 0.3359375 0
vt 0.3359375 0.2109375
vt 0.3671875 0.2109375
vt 0.3671875 0.2421875
vt 0.3359375 0.2421875
vt 0.3671875 0.2109375
vt 0.3671875 0.2421875
vt 0.3359375 0.2421875
vt 0.3359375 0.2109375
vt 0.3671875 0
vt 0.3671875 0.203125
vt 0.3359375 0.203125
vt 0.3359375 0
vt 0.3671875 0.203125
vt 0.3359375 0.203125
vt 0.3359375 0
vt 0.3671875 0
vn 1 0 0
vn -1 0 0
vn 0 -0.9238795325112867 -0.3826834323650899
vn 0 0.9238795325112867 0.3826834323650899
vn 0 0.3826834323650899 -0.9238795325112867
vn 0 -0.3826834323650899 0.9238795325112867
usemtl m_1308eb73-20dc-1bf6-e4b5-30859ff8f7f9
f 26/73/19 25/74/19 27/75/19
f 26/73/19 27/75/19 28/76/19
f 31/77/20 29/78/20 30/79/20
f 31/77/20 30/79/20 32/80/20
f 29/81/21 25/82/21 26/83/21
f 29/81/21 26/83/21 30/84/21
f 28/85/22 27/86/22 31/87/22
f 28/85/22 31/87/22 32/88/22
f 27/89/23 25/90/23 29/91/23
f 27/89/23 29/91/23 31/92/23
f 30/93/24 26/94/24 28/95/24
f 30/93/24 28/95/24 32/96/24