# Blender 5.0.1
# www.blender.org
mtllib Grid_switch_mech4_3.mtl
o Cylinder.006
v 2.416389 3.854411 3.178576
v 2.188086 3.854411 3.404859
v 2.662868 3.701910 3.609904
v 2.617208 3.701910 3.655161
v 2.416389 3.701910 3.178576
v 2.188087 3.701910 3.404859
v 2.662868 3.854411 3.609904
v 2.617208 3.854411 3.655161
v 2.253765 3.752138 3.164897
v 2.253765 3.804182 3.164897
v 2.175852 3.752138 3.242120
v 2.175852 3.804182 3.242120
v 2.727246 3.854411 3.096760
v 2.725039 3.701910 3.593541
v 2.727246 3.701910 3.096760
v 2.725039 3.854411 3.593541
v 2.593249 3.752138 3.003602
v 2.593249 3.804182 3.003602
v 2.487163 3.752138 3.031523
v 2.487163 3.804182 3.031523
v 3.037364 3.854411 3.181334
v 2.787063 3.701910 3.610456
v 3.037364 3.701910 3.181334
v 2.787063 3.854411 3.610456
v 2.967899 3.752138 3.033658
v 2.967899 3.804182 3.033658
v 2.862065 3.752138 3.004796
v 2.862065 3.804182 3.004796
v 3.263647 3.854411 3.409637
v 2.832319 3.701910 3.656116
v 3.263648 3.701910 3.409637
v 2.832319 3.854411 3.656116
v 3.277327 3.752138 3.247013
v 3.277327 3.804182 3.247013
v 3.200104 3.752138 3.169100
v 3.200104 3.804182 3.169100
v 3.345463 3.854411 3.720494
v 2.848683 3.701910 3.718287
v 3.345463 3.701910 3.720494
v 2.848683 3.854411 3.718287
v 3.438622 3.752138 3.586498
v 3.438622 3.804182 3.586498
v 3.410701 3.752138 3.480412
v 3.410701 3.804182 3.480412
v 3.260889 3.854411 4.030612
v 2.831768 3.701910 3.780311
v 3.260889 3.701910 4.030612
v 2.831768 3.854411 3.780311
v 3.408565 3.752138 3.961147
v 3.408565 3.804182 3.961147
v 3.437428 3.752138 3.855313
v 3.437428 3.804182 3.855313
v 3.032586 3.854411 4.256896
v 2.786108 3.701910 3.825568
v 3.032586 3.701910 4.256896
v 2.786107 3.854411 3.825568
v 3.195210 3.752138 4.270576
v 3.195210 3.804182 4.270576
v 3.273123 3.752138 4.193352
v 3.273123 3.804182 4.193352
v 2.721729 3.854411 4.338711
v 2.723936 3.701910 3.841931
v 2.721729 3.701910 4.338711
v 2.723936 3.854411 3.841931
v 2.855725 3.752138 4.431870
v 2.855725 3.804182 4.431870
v 2.961811 3.752138 4.403949
v 2.961811 3.804182 4.403949
v 2.411611 3.854411 4.254137
v 2.661912 3.701910 3.825016
v 2.411611 3.701910 4.254137
v 2.661912 3.854411 3.825016
v 2.481076 3.752138 4.401813
v 2.481076 3.804182 4.401813
v 2.586909 3.752138 4.430676
v 2.586909 3.804182 4.430676
v 2.185328 3.854411 4.025834
v 2.616656 3.701910 3.779356
v 2.185328 3.701910 4.025834
v 2.616656 3.854411 3.779356
v 2.171648 3.752138 4.188458
v 2.171648 3.804182 4.188458
v 2.248872 3.752138 4.266371
v 2.248872 3.804182 4.266371
v 2.103512 3.854411 3.714977
v 2.600293 3.701910 3.717184
v 2.103512 3.701909 3.714977
v 2.600293 3.854411 3.717184
v 2.010353 3.752138 3.848974
v 2.010353 3.804182 3.848974
v 2.038274 3.752138 3.955060
v 2.038274 3.804182 3.955060
v 2.040410 3.752138 3.474324
v 2.040410 3.804182 3.474324
v 2.011548 3.752138 3.580158
v 2.011548 3.804182 3.580158
v 2.366591 3.854411 3.227933
v 2.652908 3.701910 3.619776
v 2.366591 3.701910 3.227933
v 2.652908 3.854411 3.619776
v 2.236770 3.842905 3.181741
v 2.236770 3.752138 3.181741
v 2.231475 3.854411 3.361854
v 2.625885 3.701910 3.646560
v 2.231475 3.701910 3.361854
v 2.625885 3.854411 3.646560
v 2.190659 3.842905 3.227444
v 2.190659 3.752138 3.227444
v 1.257429 3.745537 2.192769
v 1.218584 3.747651 2.216169
v 1.977644 3.932186 3.013849
v 1.979617 3.804182 3.011746
v 2.023755 3.932186 2.968146
v 2.040750 3.752138 2.951303
v 2.040750 3.804182 2.951303
v 1.979617 3.752138 3.011746
v 0.942002 3.804466 1.965176
v 0.942002 3.752422 1.965176
v 1.003135 3.804466 1.904732
v 0.986140 3.932469 1.921576
v 1.003135 3.752422 1.904732
v 0.940029 3.932469 1.967280
vn -0.0000 -1.0000 -0.0000
vn -0.0000 1.0000 -0.0000
vn -0.2639 -0.9271 -0.2663
vn -0.9972 -0.0000 0.0750
vn -0.0630 0.8324 -0.5505
vn 0.0838 -0.0000 -0.9965
vn -0.0954 -0.9271 -0.3626
vn -0.2545 -0.0000 -0.9671
vn -0.9011 -0.0000 -0.4337
vn -0.0954 0.9271 -0.3626
vn 0.5708 -0.0000 -0.8211
vn 0.0986 -0.9271 -0.3617
vn 0.2631 -0.0000 -0.9648
vn -0.5635 -0.0000 -0.8261
vn 0.0986 0.9271 -0.3617
vn 0.9049 -0.0000 -0.4257
vn 0.2663 -0.9271 -0.2639
vn 0.7102 -0.0000 -0.7040
vn -0.0750 -0.0000 -0.9972
vn 0.2663 0.9271 -0.2639
vn 0.9965 -0.0000 0.0838
vn 0.3626 -0.9271 -0.0954
vn 0.9671 -0.0000 -0.2545
vn 0.4337 -0.0000 -0.9011
vn 0.3626 0.9271 -0.0954
vn 0.8211 -0.0000 0.5708
vn 0.3617 -0.9271 0.0986
vn 0.9648 -0.0000 0.2631
vn 0.8261 -0.0000 -0.5635
vn 0.3617 0.9271 0.0986
vn 0.4257 -0.0000 0.9049
vn 0.2639 -0.9271 0.2663
vn 0.7040 -0.0000 0.7102
vn 0.9972 -0.0000 -0.0750
vn 0.2639 0.9271 0.2663
vn -0.0838 -0.0000 0.9965
vn 0.0954 -0.9271 0.3626
vn 0.2545 -0.0000 0.9671
vn 0.9011 -0.0000 0.4337
vn 0.0954 0.9271 0.3626
vn -0.5708 -0.0000 0.8211
vn -0.0986 -0.9271 0.3617
vn -0.2631 -0.0000 0.9648
vn 0.5635 -0.0000 0.8261
vn -0.0986 0.9271 0.3617
vn -0.9049 -0.0000 0.4256
vn -0.2663 -0.9271 0.2639
vn -0.7102 -0.0000 0.7040
vn 0.0750 -0.0000 0.9972
vn -0.2663 0.9271 0.2639
vn -0.9965 -0.0000 -0.0838
vn -0.3626 -0.9271 0.0954
vn -0.9671 -0.0000 0.2545
vn -0.4337 -0.0000 0.9011
vn -0.3626 0.9271 0.0954
vn -0.8211 -0.0000 -0.5708
vn -0.3617 -0.9271 -0.0986
vn -0.9648 -0.0000 -0.2631
vn -0.8261 -0.0000 0.5635
vn -0.3617 0.9271 -0.0986
vn -0.4256 -0.0000 -0.9049
vn -0.0649 0.9957 -0.0655
vn -0.5939 0.8022 -0.0606
vn -0.7613 -0.0000 0.6484
vn 0.7088 0.2757 -0.6493
vn 0.7081 -0.0000 -0.7061
vn 0.1998 0.9589 0.2016
vn -0.7202 0.1071 0.6854
vn -0.7101 -0.0000 0.7041
vn 0.7101 -0.0000 -0.7041
vn -0.7031 -0.0000 -0.7111
vn -0.7035 0.0005 -0.7107
vn -0.0001 -1.0000 -0.0001
vn 0.0001 1.0000 0.0001
vn 0.6981 0.1837 -0.6920
vn -0.7100 -0.0225 0.7039
vt 0.334623 0.548028
vt 0.285286 0.421793
vt 0.302222 0.412035
vt 0.338037 0.546113
vt 0.504760 0.255123
vt 0.378526 0.205555
vt 0.380485 0.202163
vt 0.514564 0.238158
vt 0.585426 0.118327
vt 0.590025 0.101893
vt 0.616379 0.139980
vt 0.614810 0.145588
vt 0.612602 0.091596
vt 0.624084 0.136465
vt 0.677565 0.118134
vt 0.696252 0.123999
vt 0.657359 0.149149
vt 0.649446 0.144486
vt 0.803289 0.695154
vt 0.803289 0.719969
vt 0.757700 0.711796
vt 0.757700 0.703327
vt 0.391967 0.412083
vt 0.355997 0.546110
vt 0.380488 0.184206
vt 0.514567 0.148318
vt 0.871921 0.777869
vt 0.848877 0.711796
vt 0.872299 0.731555
vt 0.832242 0.466769
vt 0.823773 0.466769
vt 0.823773 0.436125
vt 0.832242 0.436125
vt 0.848877 0.703327
vt 0.871921 0.637254
vt 0.872299 0.683568
vt 0.840415 0.512357
vt 0.815600 0.512357
vt 0.469693 0.456989
vt 0.371549 0.555089
vt 0.371512 0.168652
vt 0.469665 0.070531
vt 0.757700 0.580989
vt 0.823773 0.557946
vt 0.804014 0.581368
vt 0.640368 0.663270
vt 0.631900 0.663270
vt 0.631900 0.632626
vt 0.640368 0.632626
vt 0.832242 0.557946
vt 0.898315 0.580989
vt 0.852001 0.581368
vt 0.648541 0.708859
vt 0.623727 0.708859
vt 0.514566 0.534735
vt 0.380530 0.570640
vt 0.355962 0.159674
vt 0.391890 0.025629
vt 0.565826 0.777491
vt 0.631900 0.754447
vt 0.612140 0.777869
vt 0.832241 0.270267
vt 0.823773 0.270267
vt 0.823773 0.239623
vt 0.832241 0.239623
vt 0.640368 0.754447
vt 0.706442 0.777491
vt 0.660128 0.777869
vt 0.840414 0.315856
vt 0.815600 0.315856
vt 0.514566 0.624509
vt 0.380532 0.588598
vt 0.338005 0.159675
vt 0.302093 0.025632
vt 0.757700 0.384488
vt 0.823773 0.361444
vt 0.804014 0.384866
vt 0.437392 0.913036
vt 0.445860 0.913036
vt 0.445860 0.943680
vt 0.437392 0.943680
vt 0.832241 0.361444
vt 0.898315 0.384488
vt 0.852001 0.384866
vt 0.429219 0.867448
vt 0.454033 0.867448
vt 0.469680 0.702266
vt 0.371555 0.604150
vt 0.322454 0.168654
vt 0.224334 0.070530
vt 0.511934 0.798816
vt 0.445860 0.821859
vt 0.465620 0.798437
vt 0.631900 0.550724
vt 0.640368 0.550724
vt 0.640368 0.581368
vt 0.631900 0.581368
vt 0.437392 0.821859
vt 0.371319 0.798816
vt 0.417632 0.798437
vt 0.623727 0.505135
vt 0.648541 0.505135
vt 0.391927 0.747168
vt 0.356005 0.613129
vt 0.313476 0.184206
vt 0.179445 0.148287
vt 0.706441 0.436503
vt 0.640368 0.459547
vt 0.660128 0.436125
vt 0.813583 0.140228
vt 0.822052 0.140228
vt 0.822052 0.170872
vt 0.813583 0.170872
vt 0.631900 0.459547
vt 0.565826 0.436503
vt 0.612140 0.436125
vt 0.805411 0.094640
vt 0.830225 0.094640
vt 0.302133 0.747179
vt 0.338049 0.613131
vt 0.313477 0.202164
vt 0.179445 0.238060
vt 0.888125 0.026008
vt 0.822052 0.049051
vt 0.841811 0.025629
vt 0.640368 0.859772
vt 0.631900 0.859772
vt 0.631900 0.829128
vt 0.640368 0.829128
vt 0.813584 0.049051
vt 0.747510 0.026008
vt 0.793824 0.025629
vt 0.648541 0.905360
vt 0.623727 0.905360
vt 0.224355 0.702286
vt 0.322497 0.604154
vt 0.322456 0.217717
vt 0.224320 0.315800
vt 0.565826 0.973992
vt 0.631900 0.950949
vt 0.612140 0.974371
vt 0.823774 0.943727
vt 0.832242 0.943727
vt 0.832242 0.974371
vt 0.823774 0.974371
vt 0.640368 0.950949
vt 0.706441 0.973992
vt 0.660128 0.974371
vt 0.815601 0.898138
vt 0.840415 0.898138
vt 0.179445 0.624499
vt 0.313516 0.588601
vt 0.338007 0.226693
vt 0.302022 0.360698
vt 0.898315 0.829506
vt 0.832242 0.852550
vt 0.852002 0.829128
vt 0.245518 0.913036
vt 0.253986 0.913036
vt 0.253986 0.943680
vt 0.245518 0.943680
vt 0.823774 0.852550
vt 0.757700 0.829506
vt 0.804014 0.829128
vt 0.237345 0.867448
vt 0.262159 0.867448
vt 0.179462 0.534661
vt 0.313514 0.570643
vt 0.355967 0.226691
vt 0.391735 0.360776
vt 0.320060 0.798816
vt 0.253986 0.821859
vt 0.273746 0.798437
vt 0.640368 0.270267
vt 0.631900 0.270267
vt 0.631900 0.239623
vt 0.640368 0.239623
vt 0.245518 0.821859
vt 0.179445 0.798816
vt 0.225758 0.798437
vt 0.648541 0.315856
vt 0.623727 0.315856
vt 0.224434 0.456860
vt 0.322490 0.555093
vt 0.371518 0.217708
vt 0.469499 0.316033
vt 0.565826 0.384488
vt 0.631900 0.361444
vt 0.612140 0.384866
vt 0.586248 0.053510
vt 0.578543 0.057024
vt 0.565826 0.029144
vt 0.573531 0.025629
vt 0.640368 0.361444
vt 0.706441 0.384488
vt 0.660127 0.384866
vt 0.628026 0.098897
vt 0.632540 0.137921
vt 0.565826 0.188365
vt 0.571105 0.169503
vt 0.609922 0.163053
vt 0.608121 0.169490
vt 0.478041 0.301301
vt 0.373260 0.214776
vt 0.325446 0.553387
vt 0.239225 0.448338
vt 0.092538 0.599559
vt 0.083007 0.598411
vt 0.094677 0.502983
vt 0.112049 0.503595
vt 0.052060 0.596997
vt 0.041658 0.598556
vt 0.027552 0.503552
vt 0.051713 0.501377
vt 0.032044 0.599971
vt 0.017965 0.504308
vt 0.073358 0.596744
vt 0.071645 0.501148
vt 0.124039 0.504341
vt 0.120011 0.601136
vt 0.119717 0.600793
vt 0.099126 0.599859
vt 0.095237 0.041238
vt 0.112523 0.041247
vt 0.016193 0.041381
vt 0.025691 0.041344
vt 0.112537 0.031833
vt 0.124039 0.031873
vt 0.124025 0.041287
vt 0.111676 0.008676
vt 0.116643 0.008707
vt 0.050928 0.041280
vt 0.071871 0.041263
s 0
usemtl Material.006
f 98/1/1 99/2/1 5/3/1 3/4/1
f 97/5/2 100/6/2 7/7/2 1/8/2
f 105/9/3 6/10/3 11/11/3 108/12/3
f 6/10/4 2/13/4 12/14/4 11/11/4
f 97/15/5 1/16/5 10/17/5 101/18/5
f 1/19/6 5/20/6 9/21/6 10/22/6
f 3/4/1 5/3/1 15/23/1 14/24/1
f 1/8/2 7/7/2 16/25/2 13/26/2
f 15/27/7 5/20/7 19/28/7 17/29/7
f 18/30/8 17/31/8 19/32/8 20/33/8
f 5/20/9 1/19/9 20/34/9 19/28/9
f 1/19/10 13/35/10 18/36/10 20/34/10
f 13/37/11 15/38/11 17/31/11 18/30/11
f 14/24/1 15/23/1 23/39/1 22/40/1
f 13/26/2 16/25/2 24/41/2 21/42/2
f 23/43/12 15/38/12 27/44/12 25/45/12
f 26/46/13 25/47/13 27/48/13 28/49/13
f 15/38/14 13/37/14 28/50/14 27/44/14
f 13/37/15 21/51/15 26/52/15 28/50/15
f 21/53/16 23/54/16 25/47/16 26/46/16
f 22/40/1 23/39/1 31/55/1 30/56/1
f 21/42/2 24/41/2 32/57/2 29/58/2
f 31/59/17 23/54/17 35/60/17 33/61/17
f 34/62/18 33/63/18 35/64/18 36/65/18
f 23/54/19 21/53/19 36/66/19 35/60/19
f 21/53/20 29/67/20 34/68/20 36/66/20
f 29/69/21 31/70/21 33/63/21 34/62/21
f 30/56/1 31/55/1 39/71/1 38/72/1
f 29/58/2 32/57/2 40/73/2 37/74/2
f 39/75/22 31/70/22 43/76/22 41/77/22
f 42/78/23 41/79/23 43/80/23 44/81/23
f 31/70/24 29/69/24 44/82/24 43/76/24
f 29/69/25 37/83/25 42/84/25 44/82/25
f 37/85/26 39/86/26 41/79/26 42/78/26
f 38/72/1 39/71/1 47/87/1 46/88/1
f 37/74/2 40/73/2 48/89/2 45/90/2
f 47/91/27 39/86/27 51/92/27 49/93/27
f 50/94/28 49/95/28 51/96/28 52/97/28
f 39/86/29 37/85/29 52/98/29 51/92/29
f 37/85/30 45/99/30 50/100/30 52/98/30
f 45/101/31 47/102/31 49/95/31 50/94/31
f 46/88/1 47/87/1 55/103/1 54/104/1
f 45/90/2 48/89/2 56/105/2 53/106/2
f 55/107/32 47/102/32 59/108/32 57/109/32
f 58/110/33 57/111/33 59/112/33 60/113/33
f 47/102/34 45/101/34 60/114/34 59/108/34
f 45/101/35 53/115/35 58/116/35 60/114/35
f 53/117/36 55/118/36 57/111/36 58/110/36
f 54/104/1 55/103/1 63/119/1 62/120/1
f 53/106/2 56/105/2 64/121/2 61/122/2
f 63/123/37 55/118/37 67/124/37 65/125/37
f 66/126/38 65/127/38 67/128/38 68/129/38
f 55/118/39 53/117/39 68/130/39 67/124/39
f 53/117/40 61/131/40 66/132/40 68/130/40
f 61/133/41 63/134/41 65/127/41 66/126/41
f 62/120/1 63/119/1 71/135/1 70/136/1
f 61/122/2 64/121/2 72/137/2 69/138/2
f 71/139/42 63/134/42 75/140/42 73/141/42
f 74/142/43 73/143/43 75/144/43 76/145/43
f 63/134/44 61/133/44 76/146/44 75/140/44
f 61/133/45 69/147/45 74/148/45 76/146/45
f 69/149/46 71/150/46 73/143/46 74/142/46
f 70/136/1 71/135/1 79/151/1 78/152/1
f 69/138/2 72/137/2 80/153/2 77/154/2
f 79/155/47 71/150/47 83/156/47 81/157/47
f 82/158/48 81/159/48 83/160/48 84/161/48
f 71/150/49 69/149/49 84/162/49 83/156/49
f 69/149/50 77/163/50 82/164/50 84/162/50
f 77/165/51 79/166/51 81/159/51 82/158/51
f 78/152/1 79/151/1 87/167/1 86/168/1
f 77/154/2 80/153/2 88/169/2 85/170/2
f 87/171/52 79/166/52 91/172/52 89/173/52
f 90/174/53 89/175/53 91/176/53 92/177/53
f 79/166/54 77/165/54 92/178/54 91/172/54
f 77/165/55 85/179/55 90/180/55 92/178/55
f 85/181/56 87/182/56 89/175/56 90/174/56
f 86/168/1 87/167/1 6/183/1 4/184/1
f 85/170/2 88/169/2 8/185/2 2/186/2
f 6/187/57 87/182/57 95/188/57 93/189/57
f 94/190/58 93/191/58 95/192/58 96/193/58
f 87/182/59 85/181/59 96/194/59 95/188/59
f 85/181/60 2/195/60 94/196/60 96/194/60
f 2/13/61 6/10/61 93/191/61 94/190/61
f 103/197/62 97/15/62 101/18/62 107/198/62
f 5/199/3 99/200/3 102/201/3 9/202/3
f 103/203/2 106/204/2 100/6/2 97/5/2
f 104/205/1 105/206/1 99/2/1 98/1/1
f 4/184/1 6/183/1 105/206/1 104/205/1
f 2/186/2 8/185/2 106/204/2 103/203/2
f 2/13/63 103/197/63 107/198/63 12/14/63
f 99/200/3 105/9/3 108/12/3 102/201/3
f 11/207/64 12/208/64 112/209/64 116/210/64
f 101/211/65 10/212/65 115/213/65 113/214/65
f 10/212/66 9/215/66 114/216/66 115/213/66
f 107/217/67 101/211/67 113/214/67 111/218/67
f 12/208/68 107/217/68 111/218/68 112/209/68
f 11/207/1 116/210/1 114/219/1 9/220/1 102/221/1 108/222/1
f 116/210/69 112/209/69 117/223/69 118/224/69
f 115/213/70 114/216/70 121/225/70 119/226/70
f 117/227/71 119/228/71 121/229/71 118/224/71
f 119/228/72 117/227/72 122/230/72 120/231/72
f 114/219/73 116/210/73 118/224/73 121/229/73
f 111/218/74 113/214/74 120/232/74 122/233/74
f 113/214/75 115/213/75 119/226/75 120/232/75
f 112/209/76 111/218/76 122/233/76 117/223/76
