# Blender 5.0.1
# www.blender.org
mtllib Grid_switch_mech2.mtl
o Cylinder.005
v 1.666890 0.803907 -0.702971
v 1.666890 0.803906 3.564564
v 1.712034 0.791811 -0.702971
v 1.712034 0.791810 3.564564
v 1.745081 0.758763 -0.702971
v 1.745081 0.758763 3.564564
v 1.757177 0.713619 -0.702971
v 1.757177 0.713619 3.564564
v 1.745081 0.668476 -0.702971
v 1.745081 0.668476 3.564564
v 1.712034 0.635428 -0.702971
v 1.712034 0.635428 3.564564
v 1.666890 0.623332 -0.702971
v 1.666890 0.623332 3.564564
v 1.621746 0.635428 -0.702971
v 1.621746 0.635428 3.564564
v 1.588699 0.668476 -0.702971
v 1.588699 0.668476 3.564564
v 1.576603 0.713619 -0.702971
v 1.576603 0.713619 3.564564
v 1.588699 0.758763 -0.702971
v 1.588699 0.758763 3.564564
v 1.621746 0.791810 -0.702971
v 1.621746 0.791810 3.564564
v 1.666890 1.165055 0.962067
v 1.892608 1.104575 0.962067
v 2.057845 0.939338 0.962067
v 2.118326 0.713620 0.962067
v 2.057845 0.487902 0.962067
v 1.892608 0.322664 0.962067
v 1.666890 0.262183 0.962067
v 1.441172 0.322664 0.962067
v 1.275935 0.487901 0.962067
v 1.215454 0.713619 0.962067
v 1.275935 0.939337 0.962067
v 1.441172 1.104574 0.962067
v 1.892608 1.104575 0.913055
v 2.057845 0.939338 0.913055
v 2.118326 0.713620 0.913055
v 2.057845 0.487902 0.913055
v 1.892608 0.322664 0.913055
v 1.666890 0.262183 0.913055
v 1.441172 0.322664 0.913055
v 1.275935 0.487901 0.913055
v 1.215454 0.713619 0.913055
v 1.275935 0.939337 0.913055
v 1.441172 1.104574 0.913055
v 1.666890 1.165055 0.913055
v 1.666890 0.803907 0.962067
v 1.712034 0.791810 0.962067
v 1.745081 0.758763 0.962067
v 1.757177 0.713619 0.962067
v 1.745081 0.668476 0.962067
v 1.712034 0.635428 0.962067
v 1.666890 0.623332 0.962067
v 1.621746 0.635428 0.962067
v 1.588699 0.668476 0.962067
v 1.576603 0.713619 0.962067
v 1.588699 0.758763 0.962067
v 1.621746 0.791810 0.962067
v 1.712034 0.791810 0.913055
v 1.745081 0.758763 0.913055
v 1.757177 0.713619 0.913055
v 1.745081 0.668476 0.913055
v 1.712034 0.635428 0.913055
v 1.666890 0.623332 0.913055
v 1.621746 0.635428 0.913055
v 1.588699 0.668476 0.913055
v 1.576603 0.713619 0.913055
v 1.588699 0.758763 0.913055
v 1.621746 0.791810 0.913055
v 1.666890 0.803907 0.913055
v 1.937751 1.182766 -0.256492
v 2.136036 0.984481 -0.256492
v 2.208613 0.713620 -0.256492
v 2.136036 0.442758 -0.256492
v 1.937752 0.244473 -0.256492
v 1.666890 0.171896 -0.256492
v 1.396029 0.244473 -0.256492
v 1.197744 0.442757 -0.256492
v 1.125167 0.713619 -0.256492
v 1.197744 0.984481 -0.256492
v 1.396028 1.182765 -0.256492
v 1.666890 1.255343 -0.256492
v 1.937751 1.182766 -0.342520
v 2.136036 0.984481 -0.342520
v 2.208613 0.713620 -0.342520
v 2.136036 0.442758 -0.342520
v 1.937752 0.244473 -0.342520
v 1.666890 0.171896 -0.342520
v 1.396029 0.244473 -0.342520
v 1.197744 0.442757 -0.342520
v 1.125167 0.713619 -0.342520
v 1.197744 0.984481 -0.342520
v 1.396028 1.182765 -0.342520
v 1.666890 1.255343 -0.342520
v 1.712034 0.791810 -0.342520
v 1.745081 0.758763 -0.342520
v 1.757177 0.713619 -0.342520
v 1.745081 0.668476 -0.342520
v 1.712034 0.635428 -0.342520
v 1.666890 0.623332 -0.342520
v 1.621746 0.635428 -0.342520
v 1.588699 0.668476 -0.342520
v 1.576603 0.713619 -0.342520
v 1.588699 0.758763 -0.342520
v 1.621746 0.791810 -0.342520
v 1.666890 0.803907 -0.342520
v 1.666890 0.803907 -0.256492
v 1.712034 0.791810 -0.256492
v 1.745081 0.758763 -0.256492
v 1.757177 0.713619 -0.256492
v 1.745081 0.668476 -0.256492
v 1.712034 0.635428 -0.256492
v 1.666890 0.623332 -0.256492
v 1.621746 0.635428 -0.256492
v 1.588699 0.668476 -0.256492
v 1.576603 0.713619 -0.256492
v 1.588699 0.758763 -0.256492
v 1.621746 0.791810 -0.256492
v 1.666890 1.255342 3.331537
v 1.937751 1.182766 3.331537
v 2.136036 0.984481 3.331537
v 2.208613 0.713620 3.331537
v 2.136036 0.442758 3.331537
v 1.937752 0.244473 3.331537
v 1.666890 0.171896 3.331537
v 1.396029 0.244473 3.331537
v 1.197744 0.442757 3.331537
v 1.125167 0.713619 3.331537
v 1.197744 0.984481 3.331537
v 1.396028 1.182765 3.331537
v 1.937751 1.182766 3.256625
v 2.136036 0.984481 3.256625
v 2.208613 0.713620 3.256625
v 2.136036 0.442758 3.256625
v 1.937752 0.244473 3.256625
v 1.666890 0.171896 3.256625
v 1.396029 0.244473 3.256625
v 1.197744 0.442757 3.256625
v 1.125167 0.713619 3.256625
v 1.197744 0.984481 3.256625
v 1.396028 1.182765 3.256625
v 1.666890 1.255342 3.256625
v 1.666890 0.803906 3.331537
v 1.712034 0.791810 3.331537
v 1.745081 0.758763 3.331537
v 1.757177 0.713619 3.331537
v 1.745081 0.668476 3.331537
v 1.712034 0.635428 3.331537
v 1.666890 0.623332 3.331537
v 1.621746 0.635428 3.331537
v 1.588699 0.668476 3.331537
v 1.576603 0.713619 3.331537
v 1.588699 0.758763 3.331537
v 1.621746 0.791810 3.331537
v 1.712034 0.791810 3.256625
v 1.745081 0.758763 3.256625
v 1.757177 0.713619 3.256625
v 1.745081 0.668476 3.256625
v 1.712034 0.635428 3.256625
v 1.666890 0.623332 3.256625
v 1.621746 0.635428 3.256625
v 1.588699 0.668476 3.256625
v 1.576603 0.713619 3.256625
v 1.588699 0.758763 3.256625
v 1.621746 0.791810 3.256625
v 1.666890 0.803906 3.256625
v 2.138799 0.890387 0.947755
v 2.163959 0.796489 0.947755
v 2.138799 0.890387 0.927367
v 2.163959 0.796489 0.927367
v 2.248472 0.926444 3.308788
v 2.276968 0.820098 3.308788
v 2.248472 0.926444 3.279375
v 2.276968 0.820098 3.279375
v 2.254336 0.935922 -0.280275
v 2.286784 0.814822 -0.280275
v 2.254336 0.935922 -0.318737
v 2.286784 0.814822 -0.318737
v 1.987192 1.102659 0.947756
v 2.055929 1.033921 0.947755
v 1.987192 1.102659 0.927367
v 2.055929 1.033921 0.927367
v 2.064142 1.188722 3.308788
v 2.141993 1.110871 3.308788
v 2.064142 1.188722 3.279375
v 2.141993 1.110871 3.279375
v 2.064482 1.199862 -0.280275
v 2.153133 1.111211 -0.280275
v 2.064482 1.199862 -0.318737
v 2.153133 1.111211 -0.318737
v 1.749760 1.210688 0.947756
v 1.843657 1.185529 0.947756
v 1.749760 1.210688 0.927367
v 1.843657 1.185529 0.927367
v 1.773369 1.323697 3.308788
v 1.879715 1.295201 3.308788
v 1.773369 1.323697 3.279375
v 1.879715 1.295201 3.279375
v 1.768093 1.333514 -0.280275
v 1.889193 1.301065 -0.280275
v 1.768093 1.333514 -0.318737
v 1.889193 1.301065 -0.318737
v 1.490123 1.185529 0.947756
v 1.584020 1.210688 0.947756
v 1.490123 1.185529 0.927367
v 1.584020 1.210688 0.927367
v 1.454065 1.295202 3.308788
v 1.560411 1.323697 3.308788
v 1.454065 1.295202 3.279375
v 1.560411 1.323697 3.279375
v 1.444587 1.301065 -0.280275
v 1.565687 1.333514 -0.280275
v 1.444587 1.301065 -0.318737
v 1.565687 1.333514 -0.318737
v 1.277851 1.033921 0.947755
v 1.346588 1.102659 0.947756
v 1.277851 1.033921 0.927367
v 1.346588 1.102659 0.927367
v 1.191787 1.110872 3.308788
v 1.269638 1.188722 3.308788
v 1.191787 1.110872 3.279375
v 1.269638 1.188722 3.279375
v 1.180648 1.111211 -0.280275
v 1.269299 1.199862 -0.280275
v 1.180648 1.111211 -0.318737
v 1.269299 1.199862 -0.318737
v 1.169821 0.796489 0.947755
v 1.194981 0.890386 0.947755
v 1.169821 0.796489 0.927367
v 1.194981 0.890386 0.927367
v 1.056813 0.820098 3.308788
v 1.085308 0.926444 3.308788
v 1.056813 0.820098 3.279375
v 1.085308 0.926444 3.279375
v 1.046996 0.814823 -0.280275
v 1.079445 0.935922 -0.280275
v 1.046996 0.814823 -0.318737
v 1.079445 0.935922 -0.318737
v 1.194981 0.536852 0.947755
v 1.169821 0.630749 0.947755
v 1.194981 0.536852 0.927366
v 1.169821 0.630749 0.927367
v 1.085308 0.500794 3.308788
v 1.056813 0.607140 3.308788
v 1.085308 0.500794 3.279375
v 1.056813 0.607140 3.279375
v 1.079445 0.491317 -0.280275
v 1.046996 0.612416 -0.280275
v 1.079445 0.491317 -0.318737
v 1.046996 0.612416 -0.318737
v 1.346589 0.324580 0.947755
v 1.277851 0.393317 0.947755
v 1.346589 0.324580 0.927366
v 1.277851 0.393317 0.927366
v 1.269639 0.238516 3.308788
v 1.191788 0.316367 3.308788
v 1.269639 0.238516 3.279375
v 1.191788 0.316367 3.279375
v 1.269299 0.227377 -0.280275
v 1.180648 0.316028 -0.280275
v 1.269299 0.227377 -0.318737
v 1.180648 0.316028 -0.318737
v 1.584021 0.216550 0.947755
v 1.490124 0.241710 0.947755
v 1.584021 0.216550 0.927366
v 1.490124 0.241710 0.927366
v 1.560412 0.103542 3.308788
v 1.454066 0.132037 3.308788
v 1.560412 0.103542 3.279375
v 1.454066 0.132037 3.279375
v 1.565688 0.093725 -0.280275
v 1.444588 0.126174 -0.280275
v 1.565688 0.093725 -0.318737
v 1.444588 0.126174 -0.318737
v 1.843658 0.241711 0.947755
v 1.749760 0.216551 0.947755
v 1.843658 0.241711 0.927366
v 1.749760 0.216551 0.927366
v 1.879716 0.132038 3.308788
v 1.773370 0.103542 3.308788
v 1.879716 0.132038 3.279375
v 1.773370 0.103542 3.279375
v 1.889193 0.126174 -0.280275
v 1.768093 0.093726 -0.280275
v 1.889193 0.126174 -0.318737
v 1.768093 0.093726 -0.318737
v 2.055930 0.393318 0.947755
v 1.987192 0.324580 0.947755
v 2.055930 0.393318 0.927366
v 1.987192 0.324580 0.927366
v 2.141994 0.316367 3.308788
v 2.064143 0.238517 3.308788
v 2.141994 0.316367 3.279375
v 2.064143 0.238517 3.279375
v 2.153133 0.316028 -0.280275
v 2.064482 0.227377 -0.280275
v 2.153133 0.316028 -0.318737
v 2.064482 0.227377 -0.318737
v 2.163959 0.630750 0.947755
v 2.138799 0.536853 0.947755
v 2.163959 0.630750 0.927366
v 2.138799 0.536853 0.927366
v 2.276968 0.607141 3.308788
v 2.248472 0.500795 3.308788
v 2.276968 0.607141 3.279375
v 2.248472 0.500795 3.279375
v 2.286784 0.612417 -0.280275
v 2.254336 0.491317 -0.280275
v 2.286784 0.612417 -0.318737
v 2.254336 0.491317 -0.318737
vn 0.2588 0.9659 -0.0000
vn 0.7071 0.7071 -0.0000
vn 0.9659 0.2588 -0.0000
vn 0.9659 -0.2588 -0.0000
vn 0.7071 -0.7071 -0.0000
vn 0.2588 -0.9659 -0.0000
vn -0.2588 -0.9659 -0.0000
vn -0.7071 -0.7071 -0.0000
vn -0.9659 -0.2588 -0.0000
vn -0.9659 0.2588 -0.0000
vn -0.0000 -0.0000 1.0000
vn -0.7071 0.7071 -0.0000
vn -0.2588 0.9659 -0.0000
vn -0.0000 -0.0000 -1.0000
vn 0.2061 0.0552 0.9770
vn 0.7914 -0.6113 -0.0000
vn 0.2282 0.0611 -0.9717
vn 0.8760 -0.4824 -0.0000
vn 0.2061 0.0552 -0.9770
vn 0.5174 0.8557 -0.0000
vn 0.4587 0.8886 -0.0000
vn 0.2282 0.0611 0.9717
vn 0.8415 -0.5402 -0.0000
vn 0.2199 0.0589 0.9737
vn 0.3797 0.9251 -0.0000
vn 0.2199 0.0589 -0.9737
vn 0.1509 0.1509 0.9770
vn 0.9910 -0.1337 -0.0000
vn 0.1670 0.1670 -0.9717
vn 0.9998 0.0202 -0.0000
vn 0.1509 0.1509 -0.9770
vn 0.0203 0.9998 -0.0000
vn -0.0471 0.9989 -0.0000
vn 0.1670 0.1670 0.9717
vn 0.9989 -0.0471 -0.0000
vn 0.1610 0.1610 0.9737
vn -0.1337 0.9910 -0.0000
vn 0.1610 0.1610 -0.9737
vn 0.0552 0.2061 0.9770
vn 0.9251 0.3797 -0.0000
vn 0.0611 0.2282 -0.9717
vn 0.8557 0.5174 -0.0000
vn 0.0552 0.2061 -0.9770
vn -0.4824 0.8760 -0.0000
vn -0.5402 0.8415 -0.0000
vn 0.0611 0.2282 0.9717
vn 0.8886 0.4587 -0.0000
vn 0.0589 0.2199 0.9737
vn -0.6113 0.7914 -0.0000
vn 0.0589 0.2199 -0.9737
vn -0.0552 0.2061 0.9770
vn 0.6113 0.7914 -0.0000
vn -0.0611 0.2282 -0.9717
vn 0.4824 0.8760 -0.0000
vn -0.0552 0.2061 -0.9770
vn -0.8557 0.5174 -0.0000
vn -0.8886 0.4587 -0.0000
vn -0.0611 0.2282 0.9717
vn 0.5402 0.8415 -0.0000
vn -0.0589 0.2199 0.9737
vn -0.9251 0.3797 -0.0000
vn -0.0589 0.2199 -0.9737
vn -0.1509 0.1509 0.9770
vn 0.1337 0.9910 -0.0000
vn -0.1670 0.1670 -0.9717
vn -0.0202 0.9998 -0.0000
vn -0.1509 0.1509 -0.9770
vn -0.9998 0.0203 -0.0000
vn -0.9989 -0.0471 -0.0000
vn -0.1670 0.1670 0.9717
vn 0.0471 0.9989 -0.0000
vn -0.1610 0.1610 0.9737
vn -0.9910 -0.1337 -0.0000
vn -0.1610 0.1610 -0.9737
vn -0.2061 0.0552 0.9770
vn -0.3797 0.9251 -0.0000
vn -0.2282 0.0611 -0.9717
vn -0.5174 0.8557 -0.0000
vn -0.2061 0.0552 -0.9770
vn -0.8760 -0.4824 -0.0000
vn -0.8415 -0.5402 -0.0000
vn -0.2282 0.0611 0.9717
vn -0.4587 0.8886 -0.0000
vn -0.2199 0.0589 0.9737
vn -0.7914 -0.6113 -0.0000
vn -0.2199 0.0589 -0.9737
vn -0.2061 -0.0552 0.9770
vn -0.7914 0.6113 -0.0000
vn -0.2282 -0.0611 -0.9717
vn -0.8760 0.4824 -0.0000
vn -0.2061 -0.0552 -0.9770
vn -0.5174 -0.8557 -0.0000
vn -0.4587 -0.8886 -0.0000
vn -0.2282 -0.0611 0.9717
vn -0.8415 0.5402 -0.0000
vn -0.2199 -0.0589 0.9737
vn -0.3797 -0.9251 -0.0000
vn -0.2199 -0.0589 -0.9737
vn -0.1509 -0.1509 0.9770
vn -0.9910 0.1337 -0.0000
vn -0.1670 -0.1670 -0.9717
vn -0.9998 -0.0203 -0.0000
vn -0.1509 -0.1509 -0.9770
vn -0.0202 -0.9998 -0.0000
vn 0.0471 -0.9989 -0.0000
vn -0.1670 -0.1670 0.9717
vn -0.9989 0.0471 -0.0000
vn -0.1610 -0.1610 0.9737
vn 0.1337 -0.9910 -0.0000
vn -0.1610 -0.1610 -0.9737
vn -0.0552 -0.2061 0.9770
vn -0.9251 -0.3797 -0.0000
vn -0.0611 -0.2282 -0.9717
vn -0.8557 -0.5174 -0.0000
vn -0.0552 -0.2061 -0.9770
vn 0.4824 -0.8760 -0.0000
vn 0.5402 -0.8415 -0.0000
vn -0.0611 -0.2282 0.9717
vn -0.8886 -0.4587 -0.0000
vn -0.0589 -0.2199 0.9737
vn 0.6113 -0.7914 -0.0000
vn -0.0589 -0.2199 -0.9737
vn 0.0552 -0.2061 0.9770
vn -0.6113 -0.7914 -0.0000
vn 0.0611 -0.2282 -0.9717
vn -0.4824 -0.8760 -0.0000
vn 0.0552 -0.2061 -0.9770
vn 0.8557 -0.5174 -0.0000
vn 0.8886 -0.4587 -0.0000
vn 0.0611 -0.2282 0.9717
vn -0.5402 -0.8415 -0.0000
vn 0.0589 -0.2199 0.9737
vn 0.9251 -0.3797 -0.0000
vn 0.0589 -0.2199 -0.9737
vn 0.1509 -0.1509 0.9770
vn -0.1337 -0.9910 -0.0000
vn 0.1670 -0.1670 -0.9717
vn 0.0202 -0.9998 -0.0000
vn 0.1509 -0.1509 -0.9770
vn 0.9998 -0.0202 -0.0000
vn 0.9989 0.0471 -0.0000
vn 0.1670 -0.1670 0.9717
vn -0.0471 -0.9989 -0.0000
vn 0.1610 -0.1610 0.9737
vn 0.9910 0.1337 -0.0000
vn 0.1610 -0.1610 -0.9737
vn 0.2061 -0.0552 0.9770
vn 0.3797 -0.9251 -0.0000
vn 0.2282 -0.0611 -0.9717
vn 0.5174 -0.8557 -0.0000
vn 0.2061 -0.0552 -0.9770
vn 0.8760 0.4824 -0.0000
vn 0.8415 0.5402 -0.0000
vn 0.2282 -0.0611 0.9717
vn 0.4587 -0.8886 -0.0000
vn 0.2199 -0.0589 0.9737
vn 0.7914 0.6113 -0.0000
vn 0.2199 -0.0589 -0.9737
vt 0.588755 0.637589
vt 0.640565 0.637589
vt 0.640565 0.647980
vt 0.588755 0.647980
vt 0.640565 0.658371
vt 0.588755 0.658371
vt 0.588754 0.533678
vt 0.640564 0.533678
vt 0.640564 0.544069
vt 0.588754 0.544069
vt 0.640564 0.554460
vt 0.588754 0.554460
vt 0.640564 0.564851
vt 0.588755 0.564852
vt 0.640564 0.575242
vt 0.588755 0.575243
vt 0.640564 0.585633
vt 0.588755 0.585634
vt 0.640564 0.596025
vt 0.588755 0.596025
vt 0.640564 0.606416
vt 0.588755 0.606416
vt 0.640565 0.616807
vt 0.588755 0.616807
vt 0.645760 0.524679
vt 0.654759 0.519484
vt 0.665150 0.519484
vt 0.674149 0.524679
vt 0.679344 0.533678
vt 0.679344 0.544069
vt 0.674149 0.553068
vt 0.665150 0.558264
vt 0.654759 0.558264
vt 0.645760 0.553068
vt 0.640565 0.627198
vt 0.588755 0.627198
vt 0.099690 0.665111
vt 0.090691 0.659915
vt 0.085496 0.650916
vt 0.085496 0.640525
vt 0.090691 0.631526
vt 0.099690 0.626331
vt 0.110081 0.626331
vt 0.119080 0.631526
vt 0.124275 0.640525
vt 0.124275 0.650916
vt 0.119080 0.659915
vt 0.110081 0.665111
vt 0.795206 0.939832
vt 0.825674 0.981916
vt 0.804699 0.978372
vt 0.792024 0.960866
vt 0.461705 0.611238
vt 0.384145 0.590456
vt 0.410123 0.545461
vt 0.466901 0.602239
vt 0.455118 0.519484
vt 0.475900 0.597044
vt 0.507073 0.519484
vt 0.486291 0.597044
vt 0.552067 0.545461
vt 0.495290 0.602239
vt 0.578045 0.590456
vt 0.500485 0.611238
vt 0.578045 0.642411
vt 0.500485 0.621629
vt 0.552067 0.687406
vt 0.495290 0.630628
vt 0.507073 0.713383
vt 0.486291 0.635823
vt 0.455118 0.713383
vt 0.475900 0.635823
vt 0.410123 0.687406
vt 0.466901 0.630628
vt 0.384145 0.642411
vt 0.461705 0.621629
vt 0.545525 0.173277
vt 0.602303 0.116499
vt 0.611302 0.121694
vt 0.590520 0.199254
vt 0.519547 0.128282
vt 0.597107 0.107500
vt 0.519547 0.076327
vt 0.597107 0.097109
vt 0.545525 0.031332
vt 0.602303 0.088110
vt 0.590520 0.005355
vt 0.611302 0.082915
vt 0.642475 0.005355
vt 0.621693 0.082915
vt 0.687469 0.031332
vt 0.630692 0.088110
vt 0.713447 0.076327
vt 0.635887 0.097109
vt 0.713447 0.128282
vt 0.635887 0.107500
vt 0.687469 0.173277
vt 0.630692 0.116499
vt 0.642475 0.199254
vt 0.621693 0.121694
vt 0.171930 0.005355
vt 0.171930 0.265385
vt 0.161539 0.265385
vt 0.161539 0.005355
vt 0.182321 0.005355
vt 0.182321 0.265385
vt 0.192712 0.005355
vt 0.192712 0.265385
vt 0.203103 0.005355
vt 0.203103 0.265385
vt 0.213494 0.005355
vt 0.213494 0.265385
vt 0.223885 0.005355
vt 0.223885 0.265385
vt 0.234276 0.005355
vt 0.234276 0.265385
vt 0.244667 0.005355
vt 0.244667 0.265385
vt 0.255058 0.005355
vt 0.255058 0.265385
vt 0.265449 0.005355
vt 0.265449 0.265385
vt 0.151148 0.005355
vt 0.151148 0.265385
vt 0.140757 0.265385
vt 0.140757 0.005355
vt 0.183181 0.811730
vt 0.202308 0.811730
vt 0.197021 0.840161
vt 0.188469 0.840161
vt 0.271291 0.621629
vt 0.342263 0.550657
vt 0.373436 0.604650
vt 0.276486 0.630628
vt 0.262292 0.616434
vt 0.288269 0.519484
vt 0.251901 0.616434
vt 0.225923 0.519484
vt 0.242902 0.621629
vt 0.171930 0.550657
vt 0.237706 0.630628
vt 0.140757 0.604650
vt 0.237706 0.641019
vt 0.140757 0.666997
vt 0.242902 0.650018
vt 0.171930 0.720990
vt 0.251901 0.655213
vt 0.225923 0.752163
vt 0.262292 0.655213
vt 0.288270 0.752163
vt 0.271291 0.650018
vt 0.342263 0.720990
vt 0.276486 0.641019
vt 0.373436 0.666997
vt 0.085496 0.547006
vt 0.005355 0.547006
vt 0.005355 0.536614
vt 0.085496 0.536615
vt 0.005355 0.526224
vt 0.085496 0.526224
vt 0.005355 0.650916
vt 0.005355 0.640525
vt 0.005355 0.630134
vt 0.085496 0.630134
vt 0.005355 0.619743
vt 0.085496 0.619743
vt 0.005355 0.609352
vt 0.085496 0.609352
vt 0.005355 0.598961
vt 0.085496 0.598961
vt 0.005355 0.588570
vt 0.085496 0.588570
vt 0.005355 0.578179
vt 0.085496 0.578179
vt 0.005355 0.567788
vt 0.085496 0.567788
vt 0.005355 0.557397
vt 0.085496 0.557397
vt 0.140757 0.423608
vt 0.237706 0.397630
vt 0.242902 0.406629
vt 0.171930 0.477601
vt 0.251901 0.411825
vt 0.225923 0.508774
vt 0.262292 0.411825
vt 0.288270 0.508774
vt 0.271291 0.406629
vt 0.342263 0.477601
vt 0.276486 0.397630
vt 0.373436 0.423608
vt 0.276486 0.387239
vt 0.373436 0.361261
vt 0.271291 0.378240
vt 0.342263 0.307268
vt 0.262292 0.373045
vt 0.288270 0.276095
vt 0.251901 0.373045
vt 0.225923 0.276095
vt 0.242902 0.378240
vt 0.171930 0.307268
vt 0.237706 0.387239
vt 0.140757 0.361261
vt 0.478122 0.839965
vt 0.439462 0.888878
vt 0.434404 0.860745
vt 0.449583 0.841541
vt 0.406693 0.107500
vt 0.477665 0.036528
vt 0.508838 0.090521
vt 0.411888 0.116499
vt 0.508838 0.152868
vt 0.411888 0.126890
vt 0.477665 0.206861
vt 0.406693 0.135889
vt 0.423671 0.238034
vt 0.397694 0.141084
vt 0.361325 0.238034
vt 0.387303 0.141084
vt 0.307332 0.206861
vt 0.378304 0.135889
vt 0.276158 0.152868
vt 0.373108 0.126890
vt 0.276158 0.090521
vt 0.373108 0.116499
vt 0.307332 0.036528
vt 0.378304 0.107500
vt 0.361325 0.005355
vt 0.387303 0.102304
vt 0.423671 0.005355
vt 0.397694 0.102304
vt 0.531658 0.508774
vt 0.505681 0.411825
vt 0.514680 0.406629
vt 0.585652 0.477601
vt 0.469312 0.508774
vt 0.495290 0.411825
vt 0.415319 0.477601
vt 0.486291 0.406629
vt 0.384145 0.423608
vt 0.481095 0.397630
vt 0.384145 0.361261
vt 0.481095 0.387239
vt 0.415319 0.307268
vt 0.486291 0.378240
vt 0.469312 0.276095
vt 0.495290 0.373045
vt 0.531658 0.276095
vt 0.505681 0.373045
vt 0.585652 0.307268
vt 0.514680 0.378240
vt 0.616825 0.361261
vt 0.519875 0.387239
vt 0.616825 0.423608
vt 0.519875 0.397630
vt 0.036528 0.005355
vt 0.036528 0.515514
vt 0.026137 0.515514
vt 0.026137 0.005355
vt 0.046919 0.005355
vt 0.046919 0.515514
vt 0.057310 0.005355
vt 0.057310 0.515514
vt 0.067701 0.005355
vt 0.067701 0.515514
vt 0.078092 0.005355
vt 0.078092 0.515514
vt 0.088483 0.005355
vt 0.088483 0.515514
vt 0.098874 0.005355
vt 0.098874 0.515514
vt 0.109265 0.005355
vt 0.109265 0.515514
vt 0.119656 0.005355
vt 0.119656 0.515514
vt 0.130047 0.005355
vt 0.130047 0.515514
vt 0.015746 0.005355
vt 0.015746 0.515514
vt 0.005355 0.515514
vt 0.005355 0.005355
vt 0.956462 0.669080
vt 0.960995 0.669080
vt 0.960995 0.690693
vt 0.956462 0.690693
vt 0.964177 0.711727
vt 0.953280 0.711727
vt 0.753840 0.981916
vt 0.784309 0.939832
vt 0.787491 0.960866
vt 0.774816 0.978372
vt 0.900625 0.391968
vt 0.907164 0.391968
vt 0.907164 0.416446
vt 0.900625 0.416446
vt 0.422806 0.888878
vt 0.427864 0.860745
vt 0.384145 0.839965
vt 0.412685 0.841541
vt 0.912222 0.444578
vt 0.895567 0.444578
vt 0.197021 0.868036
vt 0.188469 0.868036
vt 0.732478 0.568341
vt 0.690053 0.522655
vt 0.718798 0.519484
vt 0.737766 0.539909
vt 0.751605 0.568341
vt 0.746317 0.539909
vt 0.794029 0.522655
vt 0.765285 0.519484
vt 0.712663 0.939832
vt 0.743131 0.981916
vt 0.722156 0.978372
vt 0.709481 0.960866
vt 0.746317 0.596773
vt 0.737766 0.596773
vt 0.838842 0.106878
vt 0.877502 0.057965
vt 0.882560 0.086098
vt 0.867381 0.105302
vt 0.787491 0.897186
vt 0.792024 0.897186
vt 0.792024 0.918799
vt 0.787491 0.918799
vt 0.671298 0.981916
vt 0.701766 0.939832
vt 0.704948 0.960866
vt 0.692273 0.978372
vt 0.434404 0.941488
vt 0.427864 0.941488
vt 0.427864 0.917010
vt 0.434404 0.917010
vt 0.894158 0.057965
vt 0.889100 0.086098
vt 0.932818 0.106878
vt 0.904279 0.105302
vt 0.746317 0.624647
vt 0.737766 0.624647
vt 0.650306 0.725386
vt 0.692730 0.771072
vt 0.663986 0.774244
vt 0.645018 0.753818
vt 0.631179 0.725386
vt 0.636467 0.753818
vt 0.588754 0.771072
vt 0.617499 0.774244
vt 0.944178 0.827600
vt 0.974646 0.869683
vt 0.953671 0.866140
vt 0.940996 0.848633
vt 0.636467 0.696955
vt 0.645018 0.696955
vt 0.005355 0.893216
vt 0.044015 0.844303
vt 0.049073 0.872436
vt 0.033894 0.891640
vt 0.704948 0.897186
vt 0.709481 0.897186
vt 0.709481 0.918799
vt 0.704948 0.918799
vt 0.902813 0.869683
vt 0.933281 0.827600
vt 0.936463 0.848633
vt 0.923788 0.866140
vt 0.882560 0.005355
vt 0.889100 0.005355
vt 0.889100 0.029833
vt 0.882560 0.029833
vt 0.060671 0.844303
vt 0.055613 0.872436
vt 0.099331 0.893216
vt 0.070792 0.891640
vt 0.636467 0.669080
vt 0.645018 0.669080
vt 0.689086 0.332401
vt 0.731510 0.378087
vt 0.702766 0.381258
vt 0.683798 0.360833
vt 0.669959 0.332401
vt 0.675247 0.360833
vt 0.627534 0.378087
vt 0.656279 0.381258
vt 0.046720 0.946572
vt 0.077188 0.988655
vt 0.056213 0.985112
vt 0.043538 0.967605
vt 0.675247 0.303969
vt 0.683798 0.303969
vt 0.856905 0.377618
vt 0.895566 0.328705
vt 0.900624 0.356838
vt 0.885445 0.376042
vt 0.936463 0.784953
vt 0.940996 0.784953
vt 0.940996 0.806566
vt 0.936463 0.806566
vt 0.005355 0.988655
vt 0.035823 0.946572
vt 0.039005 0.967605
vt 0.026330 0.985112
vt 0.049073 0.791693
vt 0.055613 0.791693
vt 0.055613 0.816171
vt 0.049073 0.816171
vt 0.912221 0.328705
vt 0.907163 0.356838
vt 0.950882 0.377618
vt 0.922342 0.376042
vt 0.675247 0.276095
vt 0.683798 0.276095
vt 0.766581 0.054212
vt 0.724156 0.008526
vt 0.752901 0.005355
vt 0.771869 0.025780
vt 0.785708 0.054212
vt 0.780420 0.025780
vt 0.828132 0.008526
vt 0.799388 0.005355
vt 0.950790 0.562130
vt 0.981258 0.604214
vt 0.960283 0.600670
vt 0.947608 0.583164
vt 0.780420 0.082644
vt 0.771869 0.082644
vt 0.804739 0.621007
vt 0.843399 0.572094
vt 0.848457 0.600226
vt 0.833278 0.619430
vt 0.039005 0.903925
vt 0.043538 0.903925
vt 0.043538 0.925538
vt 0.039005 0.925538
vt 0.909425 0.604214
vt 0.939893 0.562130
vt 0.943075 0.583164
vt 0.930400 0.600670
vt 0.900624 0.276095
vt 0.907163 0.276095
vt 0.907163 0.300573
vt 0.900624 0.300573
vt 0.860055 0.572094
vt 0.854997 0.600226
vt 0.898715 0.621007
vt 0.870176 0.619430
vt 0.780420 0.110518
vt 0.771869 0.110518
vt 0.785708 0.177533
vt 0.828132 0.223220
vt 0.799388 0.226391
vt 0.780420 0.205965
vt 0.766581 0.177533
vt 0.771869 0.205965
vt 0.724156 0.223220
vt 0.752901 0.226391
vt 0.296808 0.917752
vt 0.327276 0.959835
vt 0.306300 0.956292
vt 0.293626 0.938785
vt 0.771869 0.149102
vt 0.780420 0.149102
vt 0.588754 0.886476
vt 0.627415 0.837564
vt 0.632473 0.865696
vt 0.617294 0.884900
vt 0.943075 0.519484
vt 0.947608 0.519484
vt 0.947608 0.541097
vt 0.943075 0.541097
vt 0.255442 0.959835
vt 0.285911 0.917752
vt 0.289093 0.938785
vt 0.276418 0.956292
vt 0.848458 0.519484
vt 0.854997 0.519484
vt 0.854997 0.543962
vt 0.848458 0.543962
vt 0.644071 0.837564
vt 0.639012 0.865696
vt 0.682731 0.886476
vt 0.654191 0.884900
vt 0.771869 0.121227
vt 0.780420 0.121227
vt 0.745864 0.717938
vt 0.703440 0.672252
vt 0.732184 0.669080
vt 0.751152 0.689506
vt 0.764991 0.717938
vt 0.759703 0.689506
vt 0.807416 0.672252
vt 0.778671 0.669080
vt 0.182122 0.921392
vt 0.212590 0.963476
vt 0.191615 0.959932
vt 0.178940 0.942425
vt 0.759703 0.746369
vt 0.751152 0.746369
vt 0.892103 0.784953
vt 0.853443 0.833866
vt 0.848385 0.805733
vt 0.863564 0.786529
vt 0.289093 0.875105
vt 0.293626 0.875105
vt 0.293626 0.896718
vt 0.289093 0.896718
vt 0.140757 0.963476
vt 0.171225 0.921392
vt 0.174407 0.942425
vt 0.161732 0.959932
vt 0.632473 0.784953
vt 0.639013 0.784953
vt 0.639012 0.809432
vt 0.632473 0.809432
vt 0.836787 0.833866
vt 0.841845 0.805733
vt 0.798127 0.784953
vt 0.826666 0.786529
vt 0.759703 0.774244
vt 0.751152 0.774244
vt 0.426570 0.772950
vt 0.384145 0.727264
vt 0.412890 0.724093
vt 0.431858 0.744518
vt 0.445697 0.772950
vt 0.440409 0.744518
vt 0.488122 0.727264
vt 0.459377 0.724093
vt 0.540196 0.862179
vt 0.570665 0.904263
vt 0.549689 0.900719
vt 0.537014 0.883212
vt 0.440409 0.801382
vt 0.431858 0.801382
vt 0.787417 0.784953
vt 0.748757 0.833866
vt 0.743699 0.805733
vt 0.758878 0.786529
vt 0.174407 0.878745
vt 0.178940 0.878745
vt 0.178940 0.900358
vt 0.174407 0.900358
vt 0.498831 0.904263
vt 0.529299 0.862179
vt 0.532481 0.883212
vt 0.519806 0.900719
vt 0.848385 0.886476
vt 0.841845 0.886476
vt 0.841845 0.861998
vt 0.848385 0.861998
vt 0.732101 0.833865
vt 0.737159 0.805733
vt 0.693440 0.784953
vt 0.721980 0.786529
vt 0.440409 0.829256
vt 0.431858 0.829256
vt 0.784644 0.324952
vt 0.742220 0.279266
vt 0.770964 0.276095
vt 0.789932 0.296521
vt 0.803771 0.324952
vt 0.798483 0.296521
vt 0.846196 0.279266
vt 0.817451 0.276095
vt 0.619223 0.939269
vt 0.588754 0.897186
vt 0.609730 0.900729
vt 0.622405 0.918236
vt 0.798483 0.353384
vt 0.789932 0.353384
vt 0.818125 0.770603
vt 0.856786 0.721691
vt 0.861844 0.749823
vt 0.846665 0.769027
vt 0.532481 0.819532
vt 0.537014 0.819532
vt 0.537014 0.841145
vt 0.532481 0.841145
vt 0.660588 0.897186
vt 0.630120 0.939269
vt 0.626938 0.918236
vt 0.639613 0.900729
vt 0.743698 0.886476
vt 0.737159 0.886476
vt 0.737159 0.861998
vt 0.743698 0.861998
vt 0.873441 0.721691
vt 0.868383 0.749823
vt 0.912102 0.770603
vt 0.883562 0.769027
vt 0.798483 0.381258
vt 0.789932 0.381258
vt 0.803772 0.448274
vt 0.846197 0.493960
vt 0.817452 0.497131
vt 0.798484 0.476705
vt 0.784645 0.448274
vt 0.789933 0.476705
vt 0.742220 0.493960
vt 0.770965 0.497131
vt 0.529299 0.766176
vt 0.498831 0.724093
vt 0.519806 0.727636
vt 0.532481 0.745143
vt 0.789933 0.419842
vt 0.798484 0.419842
vt 0.349419 0.762873
vt 0.310759 0.811785
vt 0.305701 0.783653
vt 0.320880 0.764449
vt 0.626938 0.981916
vt 0.622405 0.981916
vt 0.622405 0.960303
vt 0.626938 0.960303
vt 0.570665 0.724093
vt 0.540196 0.766176
vt 0.537014 0.745143
vt 0.549689 0.727636
vt 0.861844 0.669080
vt 0.868383 0.669080
vt 0.868383 0.693559
vt 0.861844 0.693559
vt 0.294103 0.811785
vt 0.299161 0.783653
vt 0.255442 0.762873
vt 0.283982 0.764449
vt 0.789933 0.391968
vt 0.798484 0.391968
vt 0.047779 0.724677
vt 0.005355 0.678991
vt 0.034099 0.675820
vt 0.053067 0.696246
vt 0.066906 0.724677
vt 0.061618 0.696246
vt 0.109331 0.678991
vt 0.080586 0.675820
vt 0.933281 0.922476
vt 0.902813 0.880393
vt 0.923788 0.883936
vt 0.936463 0.901443
vt 0.061618 0.753109
vt 0.053067 0.753109
vt 0.932819 0.121227
vt 0.894158 0.170140
vt 0.889100 0.142007
vt 0.904279 0.122803
vt 0.537014 0.808823
vt 0.532481 0.808823
vt 0.532481 0.787210
vt 0.537014 0.787210
vt 0.974647 0.880393
vt 0.944178 0.922476
vt 0.940996 0.901443
vt 0.953671 0.883936
vt 0.305700 0.864396
vt 0.299161 0.864396
vt 0.299161 0.839917
vt 0.305700 0.839917
vt 0.877502 0.170140
vt 0.882560 0.142007
vt 0.838841 0.121227
vt 0.867381 0.122803
vt 0.061618 0.780983
vt 0.053067 0.780983
vt 0.689086 0.448274
vt 0.731511 0.493960
vt 0.702766 0.497131
vt 0.683798 0.476706
vt 0.669959 0.448274
vt 0.675247 0.476706
vt 0.627534 0.493960
vt 0.656279 0.497131
vt 0.994645 0.753810
vt 0.973670 0.750267
vt 0.960995 0.732760
vt 0.675247 0.419842
vt 0.683798 0.419842
vt 0.856906 0.493490
vt 0.900625 0.472710
vt 0.885446 0.491914
vt 0.940996 0.965123
vt 0.936463 0.965123
vt 0.936463 0.943510
vt 0.940996 0.943510
vt 0.922811 0.753810
vt 0.956462 0.732760
vt 0.943787 0.750267
vt 0.889100 0.222750
vt 0.882560 0.222750
vt 0.882560 0.198272
vt 0.889100 0.198272
vt 0.907164 0.472710
vt 0.950883 0.493490
vt 0.922343 0.491914
vt 0.675247 0.391968
vt 0.683798 0.391968
vt 0.140757 0.766044
vt 0.169501 0.762873
vt 0.188469 0.783298
vt 0.197021 0.783298
vt 0.244733 0.766044
vt 0.215988 0.762873
s 0
usemtl Material.001
f 145/1/1 2/2/1 4/3/1 146/4/1
f 146/4/2 4/3/2 6/5/2 147/6/2
f 147/7/3 6/8/3 8/9/3 148/10/3
f 148/10/4 8/9/4 10/11/4 149/12/4
f 149/12/5 10/11/5 12/13/5 150/14/5
f 150/14/6 12/13/6 14/15/6 151/16/6
f 151/16/7 14/15/7 16/17/7 152/18/7
f 152/18/8 16/17/8 18/19/8 153/20/8
f 153/20/9 18/19/9 20/21/9 154/22/9
f 154/22/10 20/21/10 22/23/10 155/24/10
f 4/25/11 2/26/11 24/27/11 22/28/11 20/29/11 18/30/11 16/31/11 14/32/11 12/33/11 10/34/11 8/9/11 6/8/11
f 155/24/12 22/23/12 24/35/12 156/36/12
f 156/36/13 24/35/13 2/2/13 145/1/13
f 1/37/14 3/38/14 5/39/14 7/40/14 9/41/14 11/42/14 13/43/14 15/44/14 17/45/14 19/46/14 21/47/14 23/48/14
f 27/49/15 28/50/15 170/51/15 169/52/15
f 72/53/14 48/54/14 37/55/14 61/56/14
f 61/56/14 37/55/14 38/57/14 62/58/14
f 62/58/14 38/57/14 39/59/14 63/60/14
f 63/60/14 39/59/14 40/61/14 64/62/14
f 64/62/14 40/61/14 41/63/14 65/64/14
f 65/64/14 41/63/14 42/65/14 66/66/14
f 66/66/14 42/65/14 43/67/14 67/68/14
f 67/68/14 43/67/14 44/69/14 68/70/14
f 68/70/14 44/69/14 45/71/14 69/72/14
f 69/72/14 45/71/14 46/73/14 70/74/14
f 70/74/14 46/73/14 47/75/14 71/76/14
f 71/76/14 47/75/14 48/54/14 72/53/14
f 36/77/11 60/78/11 49/79/11 25/80/11
f 35/81/11 59/82/11 60/78/11 36/77/11
f 34/83/11 58/84/11 59/82/11 35/81/11
f 33/85/11 57/86/11 58/84/11 34/83/11
f 32/87/11 56/88/11 57/86/11 33/85/11
f 31/89/11 55/90/11 56/88/11 32/87/11
f 30/91/11 54/92/11 55/90/11 31/89/11
f 29/93/11 53/94/11 54/92/11 30/91/11
f 28/95/11 52/96/11 53/94/11 29/93/11
f 27/97/11 51/98/11 52/96/11 28/95/11
f 26/99/11 50/100/11 51/98/11 27/97/11
f 25/80/11 49/79/11 50/100/11 26/99/11
f 120/101/13 71/102/13 72/103/13 109/104/13
f 119/105/12 70/106/12 71/102/12 120/101/12
f 118/107/10 69/108/10 70/106/10 119/105/10
f 117/109/9 68/110/9 69/108/9 118/107/9
f 116/111/8 67/112/8 68/110/8 117/109/8
f 115/113/7 66/114/7 67/112/7 116/111/7
f 114/115/6 65/116/6 66/114/6 115/113/6
f 113/117/5 64/118/5 65/116/5 114/115/5
f 112/119/4 63/120/4 64/118/4 113/117/4
f 111/121/3 62/122/3 63/120/3 112/119/3
f 110/123/2 61/124/2 62/125/2 111/126/2
f 109/104/1 72/103/1 61/124/1 110/123/1
f 75/127/16 87/128/16 180/129/16 178/130/16
f 107/131/14 95/132/14 96/133/14 108/134/14
f 106/135/14 94/136/14 95/132/14 107/131/14
f 105/137/14 93/138/14 94/136/14 106/135/14
f 104/139/14 92/140/14 93/138/14 105/137/14
f 103/141/14 91/142/14 92/140/14 104/139/14
f 102/143/14 90/144/14 91/142/14 103/141/14
f 101/145/14 89/146/14 90/144/14 102/143/14
f 100/147/14 88/148/14 89/146/14 101/145/14
f 99/149/14 87/150/14 88/148/14 100/147/14
f 98/151/14 86/152/14 87/150/14 99/149/14
f 97/153/14 85/154/14 86/152/14 98/151/14
f 108/134/14 96/133/14 85/154/14 97/153/14
f 1/155/1 108/156/1 97/157/1 3/158/1
f 3/158/2 97/157/2 98/159/2 5/160/2
f 5/39/3 98/161/3 99/162/3 7/40/3
f 7/40/4 99/162/4 100/163/4 9/164/4
f 9/164/5 100/163/5 101/165/5 11/166/5
f 11/166/6 101/165/6 102/167/6 13/168/6
f 13/168/7 102/167/7 103/169/7 15/170/7
f 15/170/8 103/169/8 104/171/8 17/172/8
f 17/172/9 104/171/9 105/173/9 19/174/9
f 19/174/10 105/173/10 106/175/10 21/176/10
f 21/176/12 106/175/12 107/177/12 23/178/12
f 23/178/13 107/177/13 108/156/13 1/155/13
f 84/179/11 109/180/11 110/181/11 73/182/11
f 73/182/11 110/181/11 111/183/11 74/184/11
f 74/184/11 111/183/11 112/185/11 75/186/11
f 75/186/11 112/185/11 113/187/11 76/188/11
f 76/188/11 113/187/11 114/189/11 77/190/11
f 77/190/11 114/189/11 115/191/11 78/192/11
f 78/192/11 115/191/11 116/193/11 79/194/11
f 79/194/11 116/193/11 117/195/11 80/196/11
f 80/196/11 117/195/11 118/197/11 81/198/11
f 81/198/11 118/197/11 119/199/11 82/200/11
f 82/200/11 119/199/11 120/201/11 83/202/11
f 83/202/11 120/201/11 109/180/11 84/179/11
f 135/203/17 134/204/17 175/205/17 176/206/17
f 168/207/14 144/208/14 133/209/14 157/210/14
f 157/210/14 133/209/14 134/211/14 158/212/14
f 158/212/14 134/211/14 135/213/14 159/214/14
f 159/214/14 135/213/14 136/215/14 160/216/14
f 160/216/14 136/215/14 137/217/14 161/218/14
f 161/218/14 137/217/14 138/219/14 162/220/14
f 162/220/14 138/219/14 139/221/14 163/222/14
f 163/222/14 139/221/14 140/223/14 164/224/14
f 164/224/14 140/223/14 141/225/14 165/226/14
f 165/226/14 141/225/14 142/227/14 166/228/14
f 166/228/14 142/227/14 143/229/14 167/230/14
f 167/230/14 143/229/14 144/208/14 168/207/14
f 132/231/11 156/232/11 145/233/11 121/234/11
f 131/235/11 155/236/11 156/232/11 132/231/11
f 130/237/11 154/238/11 155/236/11 131/235/11
f 129/239/11 153/240/11 154/238/11 130/237/11
f 128/241/11 152/242/11 153/240/11 129/239/11
f 127/243/11 151/244/11 152/242/11 128/241/11
f 126/245/11 150/246/11 151/244/11 127/243/11
f 125/247/11 149/248/11 150/246/11 126/245/11
f 124/249/11 148/250/11 149/248/11 125/247/11
f 123/251/11 147/252/11 148/250/11 124/249/11
f 122/253/11 146/254/11 147/252/11 123/251/11
f 121/234/11 145/233/11 146/254/11 122/253/11
f 60/255/13 167/256/13 168/257/13 49/258/13
f 59/259/12 166/260/12 167/256/12 60/255/12
f 58/261/10 165/262/10 166/260/10 59/259/10
f 57/263/9 164/264/9 165/262/9 58/261/9
f 56/265/8 163/266/8 164/264/8 57/263/8
f 55/267/7 162/268/7 163/266/7 56/265/7
f 54/269/6 161/270/6 162/268/6 55/267/6
f 53/271/5 160/272/5 161/270/5 54/269/5
f 52/273/4 159/274/4 160/272/4 53/271/4
f 51/275/3 158/276/3 159/274/3 52/273/3
f 50/277/2 157/278/2 158/279/2 51/280/2
f 49/258/1 168/257/1 157/278/1 50/277/1
f 171/281/3 169/282/3 170/283/3 172/284/3
f 28/285/18 39/286/18 172/284/18 170/283/18
f 39/287/19 38/288/19 171/289/19 172/290/19
f 38/288/20 27/49/20 169/52/20 171/289/20
f 175/291/3 173/292/3 174/293/3 176/294/3
f 134/204/21 123/295/21 173/296/21 175/205/21
f 123/295/22 124/297/22 174/298/22 173/296/22
f 124/299/23 135/300/23 176/294/23 174/293/23
f 179/301/3 177/302/3 178/130/3 180/129/3
f 74/303/24 75/304/24 178/305/24 177/306/24
f 86/307/25 74/303/25 177/306/25 179/308/25
f 87/309/26 86/307/26 179/308/26 180/310/26
f 26/311/27 27/312/27 182/313/27 181/314/27
f 74/303/28 86/307/28 192/315/28 190/316/28
f 134/317/29 133/318/29 187/319/29 188/320/29
f 183/321/2 181/322/2 182/323/2 184/324/2
f 27/49/30 38/288/30 184/324/30 182/323/30
f 38/325/31 37/326/31 183/327/31 184/328/31
f 37/326/32 26/311/32 181/314/32 183/327/32
f 187/329/2 185/330/2 186/331/2 188/332/2
f 133/318/33 122/333/33 185/334/33 187/319/33
f 122/333/34 123/335/34 186/336/34 185/334/34
f 123/295/35 134/204/35 188/332/35 186/331/35
f 191/337/2 189/338/2 190/316/2 192/315/2
f 73/339/36 74/340/36 190/341/36 189/342/36
f 85/343/37 73/339/37 189/342/37 191/344/37
f 86/345/38 85/343/38 191/344/38 192/346/38
f 25/347/39 26/348/39 194/349/39 193/350/39
f 73/339/40 85/343/40 204/351/40 202/352/40
f 133/353/41 144/354/41 199/355/41 200/356/41
f 195/357/1 193/358/1 194/359/1 196/360/1
f 26/311/42 37/326/42 196/360/42 194/359/42
f 37/361/43 48/362/43 195/363/43 196/364/43
f 48/362/44 25/347/44 193/350/44 195/363/44
f 199/365/1 197/366/1 198/367/1 200/368/1
f 144/354/45 121/369/45 197/370/45 199/355/45
f 121/369/46 122/371/46 198/372/46 197/370/46
f 122/333/47 133/318/47 200/368/47 198/367/47
f 203/373/1 201/374/1 202/352/1 204/351/1
f 84/375/48 73/376/48 202/377/48 201/378/48
f 96/379/49 84/375/49 201/378/49 203/380/49
f 85/381/50 96/379/50 203/380/50 204/382/50
f 36/383/51 25/384/51 206/385/51 205/386/51
f 84/375/52 96/379/52 216/387/52 214/388/52
f 144/389/53 143/390/53 211/391/53 212/392/53
f 207/393/13 205/394/13 206/395/13 208/396/13
f 25/347/54 48/362/54 208/396/54 206/395/54
f 48/397/55 47/398/55 207/399/55 208/400/55
f 47/398/56 36/383/56 205/386/56 207/399/56
f 211/401/13 209/402/13 210/403/13 212/404/13
f 143/390/57 132/405/57 209/406/57 211/391/57
f 132/405/58 121/407/58 210/408/58 209/406/58
f 121/369/59 144/354/59 212/404/59 210/403/59
f 215/409/13 213/410/13 214/388/13 216/387/13
f 83/411/60 84/412/60 214/413/60 213/414/60
f 95/415/61 83/411/61 213/414/61 215/416/61
f 96/417/62 95/415/62 215/416/62 216/418/62
f 35/419/63 36/420/63 218/421/63 217/422/63
f 83/411/64 95/415/64 228/423/64 226/424/64
f 143/425/65 142/426/65 223/427/65 224/428/65
f 219/429/12 217/430/12 218/431/12 220/432/12
f 36/383/66 47/398/66 220/432/66 218/431/66
f 47/433/67 46/434/67 219/435/67 220/436/67
f 46/434/68 35/419/68 217/422/68 219/435/68
f 223/437/12 221/438/12 222/439/12 224/440/12
f 142/426/69 131/441/69 221/442/69 223/427/69
f 131/441/70 132/443/70 222/444/70 221/442/70
f 132/405/71 143/390/71 224/440/71 222/439/71
f 227/445/12 225/446/12 226/424/12 228/423/12
f 82/447/72 83/448/72 226/449/72 225/450/72
f 94/451/73 82/447/73 225/450/73 227/452/73
f 95/453/74 94/451/74 227/452/74 228/454/74
f 34/455/75 35/456/75 230/457/75 229/458/75
f 82/447/76 94/451/76 240/459/76 238/460/76
f 142/461/77 141/462/77 235/463/77 236/464/77
f 231/465/10 229/466/10 230/467/10 232/468/10
f 35/419/78 46/434/78 232/468/78 230/467/78
f 46/469/79 45/470/79 231/471/79 232/472/79
f 45/470/80 34/455/80 229/458/80 231/471/80
f 235/473/10 233/474/10 234/475/10 236/476/10
f 141/462/81 130/477/81 233/478/81 235/463/81
f 130/477/82 131/479/82 234/480/82 233/478/82
f 131/441/83 142/426/83 236/476/83 234/475/83
f 239/481/10 237/482/10 238/460/10 240/459/10
f 81/483/84 82/484/84 238/485/84 237/486/84
f 93/487/85 81/483/85 237/486/85 239/488/85
f 94/489/86 93/487/86 239/488/86 240/490/86
f 33/491/87 34/492/87 242/493/87 241/494/87
f 81/483/88 93/487/88 252/495/88 250/496/88
f 141/497/89 140/498/89 247/499/89 248/500/89
f 243/501/9 241/502/9 242/503/9 244/504/9
f 34/455/90 45/470/90 244/504/90 242/503/90
f 45/505/91 44/506/91 243/507/91 244/508/91
f 44/506/92 33/491/92 241/494/92 243/507/92
f 247/509/9 245/510/9 246/511/9 248/512/9
f 140/498/93 129/513/93 245/514/93 247/499/93
f 129/513/94 130/515/94 246/516/94 245/514/94
f 130/477/95 141/462/95 248/512/95 246/511/95
f 251/517/9 249/518/9 250/496/9 252/495/9
f 80/519/96 81/520/96 250/521/96 249/522/96
f 92/523/97 80/519/97 249/522/97 251/524/97
f 93/525/98 92/523/98 251/524/98 252/526/98
f 32/527/99 33/528/99 254/529/99 253/530/99
f 80/519/100 92/523/100 264/531/100 262/532/100
f 140/533/101 139/534/101 259/535/101 260/536/101
f 255/537/8 253/538/8 254/539/8 256/540/8
f 33/491/102 44/506/102 256/540/102 254/539/102
f 44/541/103 43/542/103 255/543/103 256/544/103
f 43/542/104 32/527/104 253/530/104 255/543/104
f 259/545/8 257/546/8 258/547/8 260/548/8
f 139/534/105 128/549/105 257/550/105 259/535/105
f 128/549/106 129/551/106 258/552/106 257/550/106
f 129/513/107 140/498/107 260/548/107 258/547/107
f 263/553/8 261/554/8 262/532/8 264/531/8
f 79/555/108 80/556/108 262/557/108 261/558/108
f 91/559/109 79/555/109 261/558/109 263/560/109
f 92/561/110 91/559/110 263/560/110 264/562/110
f 31/563/111 32/564/111 266/565/111 265/566/111
f 79/555/112 91/559/112 276/567/112 274/568/112
f 139/569/113 138/570/113 271/571/113 272/572/113
f 267/573/7 265/574/7 266/575/7 268/576/7
f 32/527/114 43/542/114 268/576/114 266/575/114
f 43/577/115 42/578/115 267/579/115 268/580/115
f 42/578/116 31/563/116 265/566/116 267/579/116
f 271/581/7 269/582/7 270/583/7 272/584/7
f 138/570/117 127/585/117 269/586/117 271/571/117
f 127/585/118 128/587/118 270/588/118 269/586/118
f 128/549/119 139/534/119 272/584/119 270/583/119
f 275/589/7 273/590/7 274/568/7 276/567/7
f 78/591/120 79/592/120 274/593/120 273/594/120
f 90/595/121 78/591/121 273/594/121 275/596/121
f 91/597/122 90/595/122 275/596/122 276/598/122
f 30/599/123 31/600/123 278/601/123 277/602/123
f 78/591/124 90/595/124 288/603/124 286/604/124
f 138/605/125 137/606/125 283/607/125 284/608/125
f 279/609/6 277/610/6 278/611/6 280/612/6
f 31/563/126 42/578/126 280/612/126 278/611/126
f 42/613/127 41/614/127 279/615/127 280/616/127
f 41/614/128 30/599/128 277/602/128 279/615/128
f 283/617/6 281/618/6 282/619/6 284/620/6
f 137/606/129 126/621/129 281/622/129 283/607/129
f 126/621/130 127/623/130 282/624/130 281/622/130
f 127/585/131 138/570/131 284/620/131 282/619/131
f 287/625/6 285/626/6 286/604/6 288/603/6
f 77/627/132 78/628/132 286/629/132 285/630/132
f 89/631/133 77/627/133 285/630/133 287/632/133
f 90/633/134 89/631/134 287/632/134 288/634/134
f 29/635/135 30/636/135 290/637/135 289/638/135
f 77/627/136 89/631/136 300/639/136 298/640/136
f 137/641/137 136/642/137 295/643/137 296/644/137
f 291/645/5 289/646/5 290/647/5 292/648/5
f 30/599/138 41/614/138 292/648/138 290/647/138
f 41/649/139 40/650/139 291/651/139 292/652/139
f 40/650/140 29/635/140 289/638/140 291/651/140
f 295/653/5 293/654/5 294/655/5 296/656/5
f 136/642/141 125/657/141 293/658/141 295/643/141
f 125/657/142 126/659/142 294/660/142 293/658/142
f 126/621/143 137/606/143 296/656/143 294/655/143
f 299/661/5 297/662/5 298/640/5 300/639/5
f 76/663/144 77/664/144 298/665/144 297/666/144
f 88/667/145 76/663/145 297/666/145 299/668/145
f 89/669/146 88/667/146 299/668/146 300/670/146
f 28/285/147 29/671/147 302/672/147 301/673/147
f 76/663/148 88/667/148 312/674/148 310/675/148
f 136/676/149 135/300/149 307/677/149 308/678/149
f 303/679/4 301/680/4 302/681/4 304/682/4
f 29/635/150 40/650/150 304/682/150 302/681/150
f 40/683/151 39/286/151 303/684/151 304/685/151
f 39/286/152 28/285/152 301/673/152 303/684/152
f 307/686/4 305/687/4 306/688/4 308/689/4
f 135/300/153 124/299/153 305/690/153 307/677/153
f 124/299/154 125/691/154 306/692/154 305/690/154
f 125/657/155 136/642/155 308/689/155 306/688/155
f 311/693/4 309/694/4 310/675/4 312/674/4
f 75/127/156 76/695/156 310/696/156 309/697/156
f 87/128/157 75/127/157 309/697/157 311/698/157
f 88/699/158 87/128/158 311/698/158 312/700/158
