# Blender 5.0.1
# www.blender.org
mtllib Grid_switch_mech3_1.mtl
o Cylinder.004
v 1.411981 5.096348 -0.903394
v 1.411983 2.065971 -0.903395
v 1.430904 5.096347 -0.850646
v 1.430906 2.065971 -0.850648
v 0.980424 3.815659 -0.867652
v 1.075034 3.815659 -0.603914
v 1.411982 3.738228 -0.903394
v 1.430905 3.738228 -0.850647
v 0.980424 3.738228 -0.867652
v 1.075035 3.738227 -0.603914
v 1.411982 3.815660 -0.903394
v 1.430904 3.815659 -0.850647
v 0.909685 3.763731 -0.744231
v 0.909685 3.790156 -0.744231
v 0.941973 3.763731 -0.654225
v 0.941972 3.790156 -0.654225
v 1.421968 5.096348 -0.958535
v 1.421970 2.065971 -0.958537
v 1.030357 3.815659 -1.143362
v 1.421969 3.738228 -0.958536
v 1.030357 3.738228 -1.143362
v 1.421969 3.815660 -0.958536
v 0.907385 3.763731 -1.071846
v 0.907385 3.790156 -1.071846
v 0.890344 3.763731 -0.977754
v 0.890344 3.790156 -0.977754
v 1.458187 5.096348 -1.001296
v 1.458190 2.065971 -1.001298
v 1.211456 3.815660 -1.357167
v 1.458188 3.738228 -1.001297
v 1.211456 3.738228 -1.357167
v 1.458188 3.815660 -1.001297
v 1.069200 3.763731 -1.356718
v 1.069200 3.790156 -1.356718
v 1.007397 3.763731 -1.283753
v 1.007397 3.790156 -1.283753
v 1.510935 5.096348 -1.020218
v 1.510938 2.065971 -1.020220
v 1.475194 3.815660 -1.451778
v 1.510936 3.738228 -1.020219
v 1.475194 3.738228 -1.451778
v 1.510936 3.815659 -1.020219
v 1.351773 3.763731 -1.522517
v 1.351773 3.790156 -1.522517
v 1.261767 3.763731 -1.490229
v 1.261767 3.790156 -1.490229
v 1.566076 5.096347 -1.010232
v 1.566079 2.065972 -1.010234
v 1.750903 3.815660 -1.401844
v 1.566078 3.738228 -1.010233
v 1.750903 3.738228 -1.401844
v 1.566077 3.815659 -1.010233
v 1.679387 3.763732 -1.524816
v 1.679387 3.790157 -1.524816
v 1.585296 3.763731 -1.541857
v 1.585296 3.790156 -1.541857
v 1.608837 5.096347 -0.974012
v 1.608840 2.065972 -0.974014
v 1.964708 3.815660 -1.220745
v 1.608839 3.738228 -0.974013
v 1.964708 3.738228 -1.220745
v 1.608838 3.815659 -0.974013
v 1.964259 3.763731 -1.363001
v 1.964259 3.790156 -1.363001
v 1.891294 3.763731 -1.424804
v 1.891294 3.790156 -1.424804
v 1.627759 5.096347 -0.921265
v 1.627763 2.065972 -0.921266
v 2.059319 3.815660 -0.957007
v 1.627761 3.738228 -0.921266
v 2.059319 3.738228 -0.957007
v 1.627761 3.815659 -0.921266
v 2.130058 3.763731 -1.080428
v 2.130058 3.790156 -1.080428
v 2.097770 3.763732 -1.170434
v 2.097770 3.790156 -1.170434
v 1.617773 5.096347 -0.866123
v 1.617776 2.065972 -0.866124
v 2.009385 3.815659 -0.681297
v 1.617774 3.738228 -0.866124
v 2.009385 3.738228 -0.681297
v 1.617774 3.815659 -0.866124
v 2.132357 3.763731 -0.752814
v 2.132357 3.790156 -0.752814
v 2.149398 3.763731 -0.846905
v 2.149398 3.790156 -0.846905
v 1.581553 5.096346 -0.823363
v 1.581556 2.065972 -0.823363
v 1.828286 3.815659 -0.467493
v 1.581555 3.738228 -0.823363
v 1.828287 3.738228 -0.467493
v 1.581555 3.815659 -0.823363
v 1.970542 3.763731 -0.467942
v 1.970542 3.790156 -0.467942
v 2.032345 3.763731 -0.540906
v 2.032345 3.790156 -0.540906
v 1.528806 5.096346 -0.804440
v 1.528808 2.065972 -0.804441
v 1.564548 3.815659 -0.372882
v 1.528807 3.738227 -0.804441
v 1.564548 3.738227 -0.372882
v 1.528807 3.815659 -0.804441
v 1.687969 3.763731 -0.302143
v 1.687969 3.790155 -0.302143
v 1.777975 3.763731 -0.334431
v 1.777975 3.790155 -0.334431
v 1.473664 5.096346 -0.814427
v 1.473667 2.065972 -0.814428
v 1.288839 3.815658 -0.422816
v 1.473665 3.738227 -0.814427
v 1.288839 3.738227 -0.422816
v 1.473665 3.815658 -0.814427
v 1.360355 3.763730 -0.299843
v 1.360355 3.790155 -0.299843
v 1.454446 3.763730 -0.282802
v 1.454446 3.790155 -0.282802
v 1.075483 3.763730 -0.461659
v 1.075483 3.790155 -0.461659
v 1.148448 3.763730 -0.399856
v 1.148448 3.790155 -0.399856
v 1.411986 -0.018458 -0.903396
v 1.411983 3.011919 -0.903395
v 1.430908 -0.018457 -0.850649
v 1.430905 3.011918 -0.850647
v 0.980426 1.262230 -0.867654
v 1.075037 1.262230 -0.603916
v 1.411984 1.339661 -0.903395
v 1.430907 1.339662 -0.850648
v 0.980426 1.339661 -0.867654
v 1.075037 1.339661 -0.603916
v 1.411985 1.262230 -0.903395
v 1.430907 1.262231 -0.850648
v 0.909687 1.314158 -0.744232
v 0.909687 1.287733 -0.744232
v 0.941975 1.314157 -0.654227
v 0.941975 1.287733 -0.654227
v 1.421973 -0.018458 -0.958538
v 1.421969 3.011919 -0.958537
v 1.030360 1.262230 -1.143363
v 1.421971 1.339661 -0.958537
v 1.030360 1.339661 -1.143363
v 1.421971 1.262230 -0.958537
v 0.907387 1.314158 -1.071847
v 0.907387 1.287733 -1.071847
v 0.890346 1.314158 -0.977756
v 0.890346 1.287733 -0.977756
v 1.458192 -0.018458 -1.001298
v 1.458189 3.011919 -1.001298
v 1.211458 1.262230 -1.357168
v 1.458191 1.339662 -1.001298
v 1.211458 1.339661 -1.357168
v 1.458191 1.262230 -1.001298
v 1.069203 1.314158 -1.356719
v 1.069203 1.287733 -1.356719
v 1.007399 1.314158 -1.283754
v 1.007399 1.287733 -1.283754
v 1.510939 -0.018458 -1.020221
v 1.510937 3.011919 -1.020220
v 1.475196 1.262231 -1.451779
v 1.510938 1.339662 -1.020221
v 1.475196 1.339662 -1.451779
v 1.510938 1.262231 -1.020221
v 1.351775 1.314159 -1.522518
v 1.351775 1.287734 -1.522518
v 1.261769 1.314159 -1.490230
v 1.261769 1.287734 -1.490230
v 1.566081 -0.018457 -1.010234
v 1.566079 3.011919 -1.010233
v 1.750906 1.262231 -1.401845
v 1.566080 1.339662 -1.010234
v 1.750906 1.339662 -1.401845
v 1.566080 1.262231 -1.010234
v 1.679389 1.314159 -1.524817
v 1.679389 1.287734 -1.524817
v 1.585298 1.314159 -1.541858
v 1.585298 1.287734 -1.541858
v 1.608842 -0.018457 -0.974015
v 1.608840 3.011919 -0.974013
v 1.964710 1.262231 -1.220747
v 1.608841 1.339662 -0.974014
v 1.964710 1.339663 -1.220747
v 1.608841 1.262231 -0.974014
v 1.964261 1.314160 -1.363002
v 1.964262 1.287735 -1.363002
v 1.891297 1.314160 -1.424805
v 1.891297 1.287735 -1.424805
v 1.627764 -0.018457 -0.921267
v 1.627762 3.011919 -0.921266
v 2.059321 1.262231 -0.957008
v 1.627763 1.339662 -0.921267
v 2.059321 1.339663 -0.957008
v 1.627763 1.262231 -0.921267
v 2.130060 1.314160 -1.080429
v 2.130060 1.287735 -1.080429
v 2.097773 1.314160 -1.170435
v 2.097773 1.287735 -1.170435
v 1.617777 -0.018457 -0.866126
v 1.617775 3.011918 -0.866124
v 2.009387 1.262231 -0.681299
v 1.617776 1.339662 -0.866125
v 2.009387 1.339663 -0.681299
v 1.617777 1.262231 -0.866125
v 2.132360 1.314160 -0.752815
v 2.132360 1.287735 -0.752815
v 2.149401 1.314160 -0.846906
v 2.149401 1.287735 -0.846906
v 1.581558 -0.018456 -0.823365
v 1.581555 3.011918 -0.823363
v 1.828289 1.262231 -0.467494
v 1.581557 1.339662 -0.823364
v 1.828289 1.339662 -0.467494
v 1.581557 1.262231 -0.823364
v 1.970544 1.314159 -0.467943
v 1.970544 1.287735 -0.467943
v 2.032347 1.314159 -0.540908
v 2.032347 1.287735 -0.540908
v 1.528811 -0.018456 -0.804443
v 1.528808 3.011918 -0.804441
v 1.564551 1.262231 -0.372883
v 1.528809 1.339662 -0.804442
v 1.564551 1.339662 -0.372883
v 1.528809 1.262231 -0.804442
v 1.687972 1.314159 -0.302145
v 1.687972 1.287734 -0.302145
v 1.777977 1.314159 -0.334432
v 1.777977 1.287734 -0.334432
v 1.473669 -0.018456 -0.814429
v 1.473666 3.011918 -0.814428
v 1.288841 1.262231 -0.422817
v 1.473668 1.339662 -0.814428
v 1.288841 1.339662 -0.422817
v 1.473668 1.262231 -0.814428
v 1.360357 1.314159 -0.299845
v 1.360357 1.287734 -0.299845
v 1.454448 1.314159 -0.282804
v 1.454448 1.287734 -0.282804
v 1.075485 1.314159 -0.461661
v 1.075485 1.287734 -0.461661
v 1.148450 1.314159 -0.399857
v 1.148450 1.287734 -0.399857
vn -0.9413 -0.0000 0.3377
vn -0.0000 -1.0000 -0.0000
vn -0.0000 1.0000 -0.0000
vn -0.2158 -0.9734 0.0774
vn -0.3537 -0.0000 0.9354
vn -0.2158 0.9734 0.0774
vn -0.8676 -0.0000 -0.4973
vn -0.9840 -0.0000 -0.1782
vn -0.2256 -0.9734 -0.0409
vn -0.7740 -0.0000 0.6332
vn -0.2256 0.9734 -0.0409
vn -0.5027 -0.0000 -0.8644
vn -0.7631 -0.0000 -0.6463
vn -0.1750 -0.9734 -0.1482
vn -0.9869 -0.0000 0.1614
vn -0.1750 0.9734 -0.1482
vn -0.0032 -0.0000 -1.0000
vn -0.3377 -0.0000 -0.9413
vn -0.0774 -0.9734 -0.2158
vn -0.9354 -0.0000 -0.3537
vn -0.0774 0.9734 -0.2158
vn 0.4973 -0.0000 -0.8676
vn 0.1782 -0.0000 -0.9840
vn 0.0409 -0.9734 -0.2256
vn -0.6332 -0.0000 -0.7740
vn 0.0409 0.9734 -0.2256
vn 0.8644 -0.0000 -0.5027
vn 0.6463 -0.0000 -0.7631
vn 0.1482 -0.9734 -0.1750
vn -0.1614 -0.0000 -0.9869
vn 0.1482 0.9734 -0.1750
vn 1.0000 -0.0000 -0.0032
vn 0.9413 -0.0000 -0.3377
vn 0.2158 -0.9734 -0.0774
vn 0.3537 -0.0000 -0.9354
vn 0.2158 0.9734 -0.0774
vn 0.8676 -0.0000 0.4973
vn 0.9840 -0.0000 0.1782
vn 0.2256 -0.9734 0.0409
vn 0.7740 -0.0000 -0.6332
vn 0.2256 0.9734 0.0409
vn 0.5027 -0.0000 0.8644
vn 0.7631 -0.0000 0.6463
vn 0.1750 -0.9734 0.1482
vn 0.9869 -0.0000 -0.1614
vn 0.1750 0.9734 0.1482
vn 0.0032 -0.0000 1.0000
vn 0.3377 -0.0000 0.9413
vn 0.0774 -0.9734 0.2158
vn 0.9354 -0.0000 0.3537
vn 0.0774 0.9734 0.2158
vn -0.4973 -0.0000 0.8676
vn -0.1782 -0.0000 0.9840
vn -0.0409 -0.9734 0.2256
vn 0.6332 -0.0000 0.7740
vn -0.0409 0.9734 0.2256
vn -0.8644 -0.0000 0.5027
vn -0.6463 -0.0000 0.7631
vn -0.1482 -0.9734 0.1750
vn 0.1614 -0.0000 0.9869
vn -0.1482 0.9734 0.1750
vn -1.0000 -0.0000 0.0032
vt 0.054283 0.024588
vt 0.054283 0.467645
vt 0.039436 0.467645
vt 0.039436 0.024588
vt 0.383035 0.523899
vt 0.353341 0.413078
vt 0.427577 0.413078
vt 0.397882 0.523899
vt 0.580684 0.301642
vt 0.610379 0.190820
vt 0.625226 0.190820
vt 0.654920 0.301642
vt 0.024588 0.975099
vt 0.072457 0.918358
vt 0.079214 0.956048
vt 0.062878 0.975412
vt 0.281627 0.024588
vt 0.281626 0.363901
vt 0.266779 0.363901
vt 0.266780 0.024589
vt 0.313559 0.764643
vt 0.306558 0.764643
vt 0.306558 0.739308
vt 0.313559 0.739308
vt 0.092972 0.918358
vt 0.086215 0.956048
vt 0.140841 0.975099
vt 0.102552 0.975412
vt 0.320316 0.802333
vt 0.299801 0.802333
vt 0.069130 0.024588
vt 0.069130 0.467645
vt 0.491868 0.450196
vt 0.410740 0.531323
vt 0.638084 0.183397
vt 0.719211 0.264524
vt 0.251932 0.859074
vt 0.306558 0.840023
vt 0.290222 0.859387
vt 0.296474 0.024588
vt 0.296474 0.363901
vt 0.086215 0.711412
vt 0.079214 0.711412
vt 0.079214 0.686078
vt 0.086215 0.686078
vt 0.313559 0.840023
vt 0.368185 0.859074
vt 0.329895 0.859387
vt 0.092972 0.749102
vt 0.072457 0.749102
vt 0.083977 0.024588
vt 0.083977 0.467645
vt 0.528986 0.514487
vt 0.418164 0.544181
vt 0.645508 0.170539
vt 0.756329 0.200233
vt 0.024588 0.805844
vt 0.079214 0.786792
vt 0.062878 0.806156
vt 0.311321 0.024588
vt 0.311321 0.363901
vt 0.086215 0.542157
vt 0.079214 0.542157
vt 0.079214 0.516822
vt 0.086215 0.516822
vt 0.086215 0.786792
vt 0.140841 0.805844
vt 0.102552 0.806156
vt 0.092972 0.579847
vt 0.072457 0.579847
vt 0.098825 0.024588
vt 0.098825 0.467645
vt 0.528986 0.588723
vt 0.418164 0.559028
vt 0.645508 0.155692
vt 0.756329 0.125997
vt 0.024588 0.636588
vt 0.079214 0.617537
vt 0.062878 0.636901
vt 0.326168 0.024588
vt 0.326168 0.363901
vt 0.639789 0.776923
vt 0.632788 0.776923
vt 0.632788 0.751589
vt 0.639789 0.751589
vt 0.086215 0.617537
vt 0.140841 0.636588
vt 0.102552 0.636901
vt 0.646546 0.814614
vt 0.626031 0.814614
vt 0.113672 0.024588
vt 0.113672 0.467645
vt 0.491868 0.653013
vt 0.410741 0.571886
vt 0.638084 0.142833
vt 0.719211 0.061707
vt 0.578162 0.871355
vt 0.632788 0.852304
vt 0.616452 0.871668
vt 0.341015 0.024589
vt 0.341015 0.363901
vt 0.860132 0.119333
vt 0.867133 0.119333
vt 0.867133 0.144667
vt 0.860132 0.144667
vt 0.639789 0.852304
vt 0.694415 0.871355
vt 0.656126 0.871668
vt 0.853375 0.081642
vt 0.873890 0.081642
vt 0.128519 0.024588
vt 0.128519 0.467645
vt 0.427577 0.690132
vt 0.397883 0.579310
vt 0.625226 0.135410
vt 0.654920 0.024588
vt 0.921759 0.024901
vt 0.867133 0.043952
vt 0.883469 0.024588
vt 0.355863 0.024589
vt 0.355863 0.363901
vt 0.632788 0.677078
vt 0.639789 0.677078
vt 0.639789 0.702412
vt 0.632788 0.702412
vt 0.860132 0.043952
vt 0.805506 0.024901
vt 0.843795 0.024588
vt 0.626031 0.639387
vt 0.646546 0.639387
vt 0.143366 0.024588
vt 0.143366 0.467645
vt 0.353341 0.690131
vt 0.383035 0.579310
vt 0.610379 0.135410
vt 0.580684 0.024588
vt 0.694415 0.582646
vt 0.639789 0.601697
vt 0.656125 0.582333
vt 0.370710 0.024589
vt 0.370710 0.363901
vt 0.805219 0.438412
vt 0.798218 0.438412
vt 0.798218 0.413078
vt 0.805219 0.413078
vt 0.632788 0.601697
vt 0.578162 0.582646
vt 0.616452 0.582333
vt 0.811976 0.476102
vt 0.791461 0.476102
vt 0.158213 0.024589
vt 0.158214 0.467645
vt 0.289050 0.653013
vt 0.370177 0.571886
vt 0.597521 0.142833
vt 0.516394 0.061707
vt 0.743592 0.532844
vt 0.798218 0.513793
vt 0.781881 0.533157
vt 0.385557 0.024589
vt 0.385557 0.363901
vt 0.805219 0.607668
vt 0.798218 0.607668
vt 0.798218 0.582333
vt 0.805219 0.582333
vt 0.805219 0.513793
vt 0.859845 0.532844
vt 0.821555 0.533157
vt 0.811976 0.645358
vt 0.791461 0.645358
vt 0.173061 0.024589
vt 0.173061 0.467645
vt 0.251932 0.588723
vt 0.362754 0.559028
vt 0.590097 0.155691
vt 0.479275 0.125997
vt 0.743592 0.702099
vt 0.798218 0.683048
vt 0.781881 0.702412
vt 0.400404 0.024589
vt 0.400404 0.363901
vt 0.860132 0.288588
vt 0.867133 0.288588
vt 0.867133 0.313922
vt 0.860132 0.313922
vt 0.805219 0.683048
vt 0.859845 0.702099
vt 0.821555 0.702412
vt 0.853375 0.250898
vt 0.873890 0.250898
vt 0.187908 0.024589
vt 0.187908 0.467645
vt 0.251932 0.514487
vt 0.362754 0.544181
vt 0.590097 0.170539
vt 0.479275 0.200233
vt 0.921759 0.194156
vt 0.867133 0.213208
vt 0.883469 0.193844
vt 0.415251 0.024589
vt 0.415252 0.363901
vt 0.798218 0.846333
vt 0.805219 0.846333
vt 0.805219 0.871668
vt 0.798218 0.871668
vt 0.860132 0.213208
vt 0.805506 0.194156
vt 0.843795 0.193844
vt 0.791461 0.808643
vt 0.811976 0.808643
vt 0.202755 0.024589
vt 0.202755 0.467645
vt 0.289050 0.450196
vt 0.370177 0.531323
vt 0.597521 0.183397
vt 0.516394 0.264524
vt 0.859845 0.751902
vt 0.805219 0.770953
vt 0.821555 0.751589
vt 0.430098 0.024589
vt 0.430099 0.363901
vt 0.639789 0.438412
vt 0.632788 0.438412
vt 0.632788 0.413078
vt 0.639789 0.413078
vt 0.798218 0.770953
vt 0.743592 0.751902
vt 0.781882 0.751589
vt 0.646546 0.476103
vt 0.626031 0.476103
vt 0.024588 0.467645
vt 0.024588 0.024589
vt 0.578162 0.532844
vt 0.632788 0.513793
vt 0.616452 0.533157
vt 0.251932 0.363901
vt 0.251932 0.024589
vt 0.086215 0.880668
vt 0.079214 0.880668
vt 0.079214 0.855333
vt 0.086215 0.855333
vt 0.639789 0.513793
vt 0.694415 0.532844
vt 0.656125 0.533157
s 0
usemtl Material.003
f 7/1/1 2/2/1 4/3/1 8/4/1
f 8/5/2 10/6/2 9/7/2 7/8/2
f 6/9/3 12/10/3 11/11/3 5/12/3
f 9/13/4 10/14/4 15/15/4 13/16/4
f 1/17/1 11/18/1 12/19/1 3/20/1
f 14/21/1 13/22/1 15/23/1 16/24/1
f 10/14/5 6/25/5 16/26/5 15/15/5
f 6/25/6 5/27/6 14/28/6 16/26/6
f 5/29/7 9/30/7 13/22/7 14/21/7
f 20/31/8 18/32/8 2/2/8 7/1/8
f 7/8/2 9/7/2 21/33/2 20/34/2
f 5/12/3 11/11/3 22/35/3 19/36/3
f 21/37/9 9/30/9 25/38/9 23/39/9
f 17/40/8 22/41/8 11/18/8 1/17/8
f 24/42/8 23/43/8 25/44/8 26/45/8
f 9/30/10 5/29/10 26/46/10 25/38/10
f 5/29/11 19/47/11 24/48/11 26/46/11
f 19/49/12 21/50/12 23/43/12 24/42/12
f 30/51/13 28/52/13 18/32/13 20/31/13
f 20/34/2 21/33/2 31/53/2 30/54/2
f 19/36/3 22/35/3 32/55/3 29/56/3
f 31/57/14 21/50/14 35/58/14 33/59/14
f 27/60/13 32/61/13 22/41/13 17/40/13
f 34/62/13 33/63/13 35/64/13 36/65/13
f 21/50/15 19/49/15 36/66/15 35/58/15
f 19/49/16 29/67/16 34/68/16 36/66/16
f 29/69/17 31/70/17 33/63/17 34/62/17
f 40/71/18 38/72/18 28/52/18 30/51/18
f 30/54/2 31/53/2 41/73/2 40/74/2
f 29/56/3 32/55/3 42/75/3 39/76/3
f 41/77/19 31/70/19 45/78/19 43/79/19
f 37/80/18 42/81/18 32/61/18 27/60/18
f 44/82/18 43/83/18 45/84/18 46/85/18
f 31/70/20 29/69/20 46/86/20 45/78/20
f 29/69/21 39/87/21 44/88/21 46/86/21
f 39/89/22 41/90/22 43/83/22 44/82/22
f 50/91/23 48/92/23 38/72/23 40/71/23
f 40/74/2 41/73/2 51/93/2 50/94/2
f 39/76/3 42/75/3 52/95/3 49/96/3
f 51/97/24 41/90/24 55/98/24 53/99/24
f 47/100/23 52/101/23 42/81/23 37/80/23
f 54/102/23 53/103/23 55/104/23 56/105/23
f 41/90/25 39/89/25 56/106/25 55/98/25
f 39/89/26 49/107/26 54/108/26 56/106/26
f 49/109/27 51/110/27 53/103/27 54/102/27
f 60/111/28 58/112/28 48/92/28 50/91/28
f 50/94/2 51/93/2 61/113/2 60/114/2
f 49/96/3 52/95/3 62/115/3 59/116/3
f 61/117/29 51/110/29 65/118/29 63/119/29
f 57/120/28 62/121/28 52/101/28 47/100/28
f 64/122/28 63/123/28 65/124/28 66/125/28
f 51/110/30 49/109/30 66/126/30 65/118/30
f 49/109/31 59/127/31 64/128/31 66/126/31
f 59/129/32 61/130/32 63/123/32 64/122/32
f 70/131/33 68/132/33 58/112/33 60/111/33
f 60/114/2 61/113/2 71/133/2 70/134/2
f 59/116/3 62/115/3 72/135/3 69/136/3
f 71/137/34 61/130/34 75/138/34 73/139/34
f 67/140/33 72/141/33 62/121/33 57/120/33
f 74/142/33 73/143/33 75/144/33 76/145/33
f 61/130/35 59/129/35 76/146/35 75/138/35
f 59/129/36 69/147/36 74/148/36 76/146/36
f 69/149/37 71/150/37 73/143/37 74/142/37
f 80/151/38 78/152/38 68/132/38 70/131/38
f 70/134/2 71/133/2 81/153/2 80/154/2
f 69/136/3 72/135/3 82/155/3 79/156/3
f 81/157/39 71/150/39 85/158/39 83/159/39
f 77/160/38 82/161/38 72/141/38 67/140/38
f 84/162/38 83/163/38 85/164/38 86/165/38
f 71/150/40 69/149/40 86/166/40 85/158/40
f 69/149/41 79/167/41 84/168/41 86/166/41
f 79/169/42 81/170/42 83/163/42 84/162/42
f 90/171/43 88/172/43 78/152/43 80/151/43
f 80/154/2 81/153/2 91/173/2 90/174/2
f 79/156/3 82/155/3 92/175/3 89/176/3
f 91/177/44 81/170/44 95/178/44 93/179/44
f 87/180/43 92/181/43 82/161/43 77/160/43
f 94/182/43 93/183/43 95/184/43 96/185/43
f 81/170/45 79/169/45 96/186/45 95/178/45
f 79/169/46 89/187/46 94/188/46 96/186/46
f 89/189/47 91/190/47 93/183/47 94/182/47
f 100/191/48 98/192/48 88/172/48 90/171/48
f 90/174/2 91/173/2 101/193/2 100/194/2
f 89/176/3 92/175/3 102/195/3 99/196/3
f 101/197/49 91/190/49 105/198/49 103/199/49
f 97/200/48 102/201/48 92/181/48 87/180/48
f 104/202/48 103/203/48 105/204/48 106/205/48
f 91/190/50 89/189/50 106/206/50 105/198/50
f 89/189/51 99/207/51 104/208/51 106/206/51
f 99/209/52 101/210/52 103/203/52 104/202/52
f 110/211/53 108/212/53 98/192/53 100/191/53
f 100/194/2 101/193/2 111/213/2 110/214/2
f 99/196/3 102/195/3 112/215/3 109/216/3
f 111/217/54 101/210/54 115/218/54 113/219/54
f 107/220/53 112/221/53 102/201/53 97/200/53
f 114/222/53 113/223/53 115/224/53 116/225/53
f 101/210/55 99/209/55 116/226/55 115/218/55
f 99/209/56 109/227/56 114/228/56 116/226/56
f 109/229/57 111/230/57 113/223/57 114/222/57
f 8/4/58 4/3/58 108/231/58 110/232/58
f 110/214/2 111/213/2 10/6/2 8/5/2
f 109/216/3 112/215/3 12/10/3 6/9/3
f 10/233/59 111/230/59 119/234/59 117/235/59
f 3/20/58 12/19/58 112/236/58 107/237/58
f 118/238/58 117/239/58 119/240/58 120/241/58
f 111/230/60 109/229/60 120/242/60 119/234/60
f 109/229/61 6/243/61 118/244/61 120/242/61
f 6/25/62 10/14/62 117/239/62 118/238/62
f 127/1/1 128/4/1 124/3/1 122/2/1
f 128/5/3 127/8/3 129/7/3 130/6/3
f 126/9/2 125/12/2 131/11/2 132/10/2
f 129/13/6 133/16/6 135/15/6 130/14/6
f 121/17/1 123/20/1 132/19/1 131/18/1
f 134/21/1 136/24/1 135/23/1 133/22/1
f 130/14/5 135/15/5 136/26/5 126/25/5
f 126/25/4 136/26/4 134/28/4 125/27/4
f 125/29/7 134/21/7 133/22/7 129/30/7
f 140/31/8 127/1/8 122/2/8 138/32/8
f 127/8/3 140/34/3 141/33/3 129/7/3
f 125/12/2 139/36/2 142/35/2 131/11/2
f 141/37/11 143/39/11 145/38/11 129/30/11
f 137/40/8 121/17/8 131/18/8 142/41/8
f 144/42/8 146/45/8 145/44/8 143/43/8
f 129/30/10 145/38/10 146/46/10 125/29/10
f 125/29/9 146/46/9 144/48/9 139/47/9
f 139/49/12 144/42/12 143/43/12 141/50/12
f 150/51/13 140/31/13 138/32/13 148/52/13
f 140/34/3 150/54/3 151/53/3 141/33/3
f 139/36/2 149/56/2 152/55/2 142/35/2
f 151/57/16 153/59/16 155/58/16 141/50/16
f 147/60/13 137/40/13 142/41/13 152/61/13
f 154/62/13 156/65/13 155/64/13 153/63/13
f 141/50/15 155/58/15 156/66/15 139/49/15
f 139/49/14 156/66/14 154/68/14 149/67/14
f 149/69/17 154/62/17 153/63/17 151/70/17
f 160/71/18 150/51/18 148/52/18 158/72/18
f 150/54/3 160/74/3 161/73/3 151/53/3
f 149/56/2 159/76/2 162/75/2 152/55/2
f 161/77/21 163/79/21 165/78/21 151/70/21
f 157/80/18 147/60/18 152/61/18 162/81/18
f 164/82/18 166/85/18 165/84/18 163/83/18
f 151/70/20 165/78/20 166/86/20 149/69/20
f 149/69/19 166/86/19 164/88/19 159/87/19
f 159/89/22 164/82/22 163/83/22 161/90/22
f 170/91/23 160/71/23 158/72/23 168/92/23
f 160/74/3 170/94/3 171/93/3 161/73/3
f 159/76/2 169/96/2 172/95/2 162/75/2
f 171/97/26 173/99/26 175/98/26 161/90/26
f 167/100/23 157/80/23 162/81/23 172/101/23
f 174/102/23 176/105/23 175/104/23 173/103/23
f 161/90/25 175/98/25 176/106/25 159/89/25
f 159/89/24 176/106/24 174/108/24 169/107/24
f 169/109/27 174/102/27 173/103/27 171/110/27
f 180/111/28 170/91/28 168/92/28 178/112/28
f 170/94/3 180/114/3 181/113/3 171/93/3
f 169/96/2 179/116/2 182/115/2 172/95/2
f 181/117/31 183/119/31 185/118/31 171/110/31
f 177/120/28 167/100/28 172/101/28 182/121/28
f 184/122/28 186/125/28 185/124/28 183/123/28
f 171/110/30 185/118/30 186/126/30 169/109/30
f 169/109/29 186/126/29 184/128/29 179/127/29
f 179/129/32 184/122/32 183/123/32 181/130/32
f 190/131/33 180/111/33 178/112/33 188/132/33
f 180/114/3 190/134/3 191/133/3 181/113/3
f 179/116/2 189/136/2 192/135/2 182/115/2
f 191/137/36 193/139/36 195/138/36 181/130/36
f 187/140/33 177/120/33 182/121/33 192/141/33
f 194/142/33 196/145/33 195/144/33 193/143/33
f 181/130/35 195/138/35 196/146/35 179/129/35
f 179/129/34 196/146/34 194/148/34 189/147/34
f 189/149/37 194/142/37 193/143/37 191/150/37
f 200/151/38 190/131/38 188/132/38 198/152/38
f 190/134/3 200/154/3 201/153/3 191/133/3
f 189/136/2 199/156/2 202/155/2 192/135/2
f 201/157/41 203/159/41 205/158/41 191/150/41
f 197/160/38 187/140/38 192/141/38 202/161/38
f 204/162/38 206/165/38 205/164/38 203/163/38
f 191/150/40 205/158/40 206/166/40 189/149/40
f 189/149/39 206/166/39 204/168/39 199/167/39
f 199/169/42 204/162/42 203/163/42 201/170/42
f 210/171/43 200/151/43 198/152/43 208/172/43
f 200/154/3 210/174/3 211/173/3 201/153/3
f 199/156/2 209/176/2 212/175/2 202/155/2
f 211/177/46 213/179/46 215/178/46 201/170/46
f 207/180/43 197/160/43 202/161/43 212/181/43
f 214/182/43 216/185/43 215/184/43 213/183/43
f 201/170/45 215/178/45 216/186/45 199/169/45
f 199/169/44 216/186/44 214/188/44 209/187/44
f 209/189/47 214/182/47 213/183/47 211/190/47
f 220/191/48 210/171/48 208/172/48 218/192/48
f 210/174/3 220/194/3 221/193/3 211/173/3
f 209/176/2 219/196/2 222/195/2 212/175/2
f 221/197/51 223/199/51 225/198/51 211/190/51
f 217/200/48 207/180/48 212/181/48 222/201/48
f 224/202/48 226/205/48 225/204/48 223/203/48
f 211/190/50 225/198/50 226/206/50 209/189/50
f 209/189/49 226/206/49 224/208/49 219/207/49
f 219/209/52 224/202/52 223/203/52 221/210/52
f 230/211/53 220/191/53 218/192/53 228/212/53
f 220/194/3 230/214/3 231/213/3 221/193/3
f 219/196/2 229/216/2 232/215/2 222/195/2
f 231/217/56 233/219/56 235/218/56 221/210/56
f 227/220/53 217/200/53 222/201/53 232/221/53
f 234/222/53 236/225/53 235/224/53 233/223/53
f 221/210/55 235/218/55 236/226/55 219/209/55
f 219/209/54 236/226/54 234/228/54 229/227/54
f 229/229/57 234/222/57 233/223/57 231/230/57
f 128/4/58 230/232/58 228/231/58 124/3/58
f 230/214/3 128/5/3 130/6/3 231/213/3
f 229/216/2 126/9/2 132/10/2 232/215/2
f 130/233/61 237/235/61 239/234/61 231/230/61
f 123/20/58 227/237/58 232/236/58 132/19/58
f 238/238/58 240/241/58 239/240/58 237/239/58
f 231/230/60 239/234/60 240/242/60 229/229/60
f 229/229/59 240/242/59 238/244/59 126/243/59
f 126/25/62 238/238/62 237/239/62 130/14/62
