# Blender 5.0.1
# www.blender.org
mtllib Grid_switch_mech1.mtl
o Cylinder.002
v 0.877014 0.907239 1.520275
v 1.842177 0.907239 1.520275
v 0.877014 0.929007 1.567503
v 1.842177 0.929007 1.567503
v 1.241158 0.511189 1.588297
v 1.241158 0.620028 1.824436
v 1.313013 0.907239 1.520275
v 1.313013 0.929007 1.567503
v 1.313013 0.511189 1.588297
v 1.313013 0.620028 1.824436
v 1.241158 0.907239 1.520275
v 1.241158 0.929007 1.567503
v 1.289346 0.455800 1.708125
v 1.264825 0.455800 1.708125
v 1.289346 0.492943 1.788713
v 1.264825 0.492943 1.788713
v 0.877014 0.912002 1.468491
v 1.842177 0.912002 1.468491
v 1.241158 0.535002 1.329374
v 1.313013 0.912002 1.468491
v 1.313013 0.535002 1.329374
v 1.241158 0.912002 1.468491
v 1.289346 0.427119 1.405454
v 1.264825 0.427119 1.405454
v 1.289346 0.418992 1.493816
v 1.264825 0.418992 1.493816
v 0.877014 0.942018 1.426025
v 1.842177 0.942018 1.426025
v 1.241158 0.685085 1.117047
v 1.313013 0.942018 1.426025
v 1.313013 0.685085 1.117047
v 1.241158 0.942018 1.426025
v 1.289346 0.553616 1.128992
v 1.264825 0.553616 1.128992
v 1.289346 0.502397 1.201453
v 1.264825 0.502397 1.201453
v 0.877014 0.989246 1.404258
v 1.842177 0.989246 1.404257
v 1.241158 0.921225 1.008208
v 1.313013 0.989246 1.404258
v 1.313013 0.921225 1.008208
v 1.241158 0.989246 1.404258
v 1.289346 0.801396 0.952818
v 1.264824 0.801396 0.952818
v 1.289346 0.720809 0.989961
v 1.264825 0.720809 0.989961
v 0.877014 1.041031 1.409020
v 1.842177 1.041031 1.409020
v 1.241158 1.180147 1.032020
v 1.313013 1.041031 1.409020
v 1.313013 1.180147 1.032020
v 1.241158 1.041031 1.409020
v 1.289346 1.104068 0.924137
v 1.264824 1.104068 0.924137
v 1.289346 1.015705 0.916011
v 1.264824 1.015705 0.916011
v 0.877014 1.083496 1.439037
v 1.842177 1.083496 1.439037
v 1.241158 1.392475 1.182104
v 1.313013 1.083496 1.439037
v 1.313012 1.392475 1.182104
v 1.241158 1.083496 1.439037
v 1.289346 1.380529 1.050634
v 1.264824 1.380529 1.050634
v 1.289346 1.308068 0.999415
v 1.264824 1.308068 0.999415
v 0.877014 1.105264 1.486265
v 1.842177 1.105264 1.486265
v 1.241158 1.501314 1.418244
v 1.313013 1.105264 1.486265
v 1.313012 1.501314 1.418244
v 1.241158 1.105264 1.486265
v 1.289346 1.556703 1.298415
v 1.264824 1.556703 1.298415
v 1.289346 1.519560 1.217828
v 1.264824 1.519560 1.217828
v 0.877014 1.100501 1.538049
v 1.842176 1.100502 1.538049
v 1.241158 1.477501 1.677166
v 1.313013 1.100502 1.538049
v 1.313012 1.477501 1.677166
v 1.241158 1.100502 1.538049
v 1.289346 1.585384 1.601087
v 1.264824 1.585384 1.601087
v 1.289346 1.593511 1.512724
v 1.264824 1.593511 1.512724
v 0.877014 1.070485 1.580515
v 1.842176 1.070485 1.580515
v 1.241158 1.327418 1.889493
v 1.313013 1.070485 1.580515
v 1.313013 1.327418 1.889493
v 1.241158 1.070485 1.580515
v 1.289346 1.458887 1.877548
v 1.264824 1.458887 1.877548
v 1.289346 1.510106 1.805087
v 1.264824 1.510106 1.805087
v 0.877014 1.023257 1.602282
v 1.842176 1.023257 1.602282
v 1.241158 1.091278 1.998333
v 1.313013 1.023257 1.602282
v 1.313013 1.091278 1.998333
v 1.241158 1.023257 1.602282
v 1.289346 1.211106 2.053722
v 1.264824 1.211106 2.053722
v 1.289346 1.291693 2.016579
v 1.264824 1.291693 2.016579
v 0.877014 0.971472 1.597520
v 1.842176 0.971473 1.597520
v 1.241158 0.832355 1.974520
v 1.313013 0.971472 1.597520
v 1.313013 0.832355 1.974520
v 1.241158 0.971472 1.597520
v 1.289346 0.908435 2.082403
v 1.264825 0.908435 2.082403
v 1.289346 0.996797 2.090530
v 1.264825 0.996797 2.090530
v 1.289346 0.631973 1.955905
v 1.264825 0.631973 1.955905
v 1.289346 0.704434 2.007124
v 1.264825 0.704434 2.007124
vn -0.0000 -0.9082 0.4186
vn 1.0000 -0.0000 -0.0000
vn -1.0000 -0.0000 -0.0000
vn 0.9734 -0.2082 0.0960
vn -0.0000 -0.2706 0.9627
vn -0.9734 -0.2082 0.0960
vn -0.0000 -0.9077 -0.4196
vn -0.0000 -0.9958 -0.0916
vn 0.9734 -0.2283 -0.0210
vn -0.0000 -0.7157 0.6984
vn -0.9734 -0.2283 -0.0210
vn -0.0000 -0.5763 -0.8172
vn -0.0000 -0.8166 -0.5772
vn 0.9734 -0.1872 -0.1324
vn -0.0000 -0.9690 0.2470
vn -0.9734 -0.1872 -0.1324
vn -0.0000 -0.0905 -0.9959
vn -0.0000 -0.4186 -0.9082
vn 0.9734 -0.0960 -0.2082
vn -0.0000 -0.9627 -0.2706
vn -0.9734 -0.0960 -0.2082
vn -0.0000 0.4196 -0.9077
vn -0.0000 0.0916 -0.9958
vn 0.9734 0.0210 -0.2283
vn -0.0000 -0.6984 -0.7157
vn -0.9734 0.0210 -0.2283
vn -0.0000 0.8172 -0.5763
vn -0.0000 0.5772 -0.8166
vn 0.9734 0.1324 -0.1872
vn -0.0000 -0.2470 -0.9690
vn -0.9734 0.1324 -0.1872
vn -0.0000 0.9959 -0.0905
vn -0.0000 0.9082 -0.4186
vn 0.9734 0.2082 -0.0960
vn -0.0000 0.2706 -0.9627
vn -0.9734 0.2082 -0.0960
vn -0.0000 0.9077 0.4196
vn -0.0000 0.9958 0.0916
vn 0.9734 0.2283 0.0210
vn -0.0000 0.7157 -0.6984
vn -0.9734 0.2283 0.0210
vn -0.0000 0.5763 0.8172
vn -0.0000 0.8166 0.5772
vn 0.9734 0.1872 0.1324
vn -0.0000 0.9690 -0.2470
vn -0.9734 0.1872 0.1324
vn -0.0000 0.0905 0.9959
vn -0.0000 0.4186 0.9082
vn 0.9734 0.0960 0.2082
vn -0.0000 0.9627 0.2706
vn -0.9734 0.0960 0.2082
vn -0.0000 -0.4196 0.9077
vn -0.0000 -0.0916 0.9958
vn 0.9734 -0.0210 0.2283
vn -0.0000 0.6984 0.7157
vn -0.9734 -0.0210 0.2283
vn -0.0000 -0.8172 0.5763
vn -0.0000 -0.5772 0.8166
vn 0.9734 -0.1324 0.1872
vn -0.0000 0.2470 0.9690
vn -0.9734 -0.1324 0.1872
vn -0.0000 -0.9959 0.0905
vt 0.225000 0.598982
vt 0.024952 0.598982
vt 0.024952 0.579323
vt 0.225000 0.579323
vt 0.245062 0.198548
vt 0.391803 0.159229
vt 0.391803 0.257526
vt 0.245062 0.218207
vt 0.490856 0.074101
vt 0.598277 0.181522
vt 0.588447 0.198548
vt 0.441707 0.159229
vt 0.858462 0.122458
vt 0.870912 0.024952
vt 0.905516 0.062009
vt 0.901267 0.095285
vt 0.274904 0.520345
vt 0.412567 0.520345
vt 0.412567 0.540004
vt 0.274904 0.540004
vt 0.907538 0.102112
vt 0.925971 0.072591
vt 0.932243 0.079418
vt 0.956671 0.032240
vt 0.975048 0.052245
vt 0.975048 0.138313
vt 0.876838 0.142462
vt 0.941054 0.100696
vt 0.225000 0.618642
vt 0.024952 0.618642
vt 0.342654 0.342654
vt 0.235233 0.235233
vt 0.588447 0.218207
vt 0.441707 0.257526
vt 0.480848 0.776536
vt 0.579057 0.780685
vt 0.545064 0.818303
vt 0.511548 0.816887
vt 0.274904 0.500685
vt 0.412567 0.500685
vt 0.505276 0.823714
vt 0.536252 0.839581
vt 0.529981 0.846408
vt 0.579057 0.866754
vt 0.560681 0.886758
vt 0.474921 0.894047
vt 0.462471 0.796541
vt 0.509525 0.856990
vt 0.225000 0.638301
vt 0.024952 0.638301
vt 0.257526 0.391803
vt 0.218207 0.245062
vt 0.598277 0.235233
vt 0.490855 0.342654
vt 0.462471 0.706627
vt 0.474922 0.609122
vt 0.509525 0.646179
vt 0.505276 0.679454
vt 0.274904 0.481026
vt 0.412567 0.481026
vt 0.511548 0.686281
vt 0.529981 0.656761
vt 0.536252 0.663588
vt 0.560681 0.616410
vt 0.579057 0.636415
vt 0.579057 0.722483
vt 0.480848 0.726632
vt 0.545064 0.684866
vt 0.225000 0.657961
vt 0.024952 0.657961
vt 0.159229 0.391803
vt 0.198548 0.245062
vt 0.615302 0.245062
vt 0.575983 0.391803
vt 0.123162 0.845035
vt 0.024952 0.840886
vt 0.058946 0.803268
vt 0.092462 0.804684
vt 0.274904 0.461366
vt 0.412567 0.461366
vt 0.098733 0.797857
vt 0.067757 0.781990
vt 0.074029 0.775163
vt 0.024952 0.754817
vt 0.043329 0.734813
vt 0.129088 0.727525
vt 0.141539 0.825030
vt 0.094484 0.764582
vt 0.225000 0.677620
vt 0.024952 0.677620
vt 0.074101 0.342654
vt 0.181522 0.235233
vt 0.634962 0.245062
vt 0.674281 0.391803
vt 0.813829 0.441707
vt 0.912039 0.445856
vt 0.878045 0.483473
vt 0.844529 0.482057
vt 0.274904 0.441707
vt 0.412567 0.441707
vt 0.838258 0.488884
vt 0.869233 0.504751
vt 0.862962 0.511578
vt 0.912039 0.531924
vt 0.893662 0.551929
vt 0.807903 0.559217
vt 0.795452 0.461712
vt 0.842507 0.522160
vt 0.225000 0.461366
vt 0.024952 0.461366
vt 0.024952 0.441707
vt 0.225000 0.441707
vt 0.024952 0.257526
vt 0.171692 0.218207
vt 0.651987 0.235233
vt 0.759409 0.342654
vt 0.628962 0.539212
vt 0.641412 0.441707
vt 0.676016 0.478764
vt 0.671767 0.512040
vt 0.274904 0.657961
vt 0.412567 0.657961
vt 0.412567 0.677620
vt 0.274904 0.677620
vt 0.678038 0.518867
vt 0.696471 0.489346
vt 0.702743 0.496173
vt 0.727171 0.448995
vt 0.745548 0.469000
vt 0.745548 0.555068
vt 0.647338 0.559217
vt 0.711554 0.517451
vt 0.225000 0.481026
vt 0.024952 0.481026
vt 0.024952 0.159229
vt 0.171692 0.198548
vt 0.661817 0.218207
vt 0.808557 0.257526
vt 0.628962 0.706627
vt 0.641412 0.609122
vt 0.676016 0.646179
vt 0.671767 0.679455
vt 0.274904 0.638301
vt 0.412567 0.638301
vt 0.678038 0.686282
vt 0.696471 0.656761
vt 0.702743 0.663588
vt 0.727171 0.616410
vt 0.745548 0.636415
vt 0.745548 0.722483
vt 0.647338 0.726632
vt 0.711554 0.684866
vt 0.225000 0.500685
vt 0.024952 0.500685
vt 0.074101 0.074101
vt 0.181522 0.181522
vt 0.661817 0.198548
vt 0.808557 0.159229
vt 0.209820 0.727525
vt 0.308029 0.731673
vt 0.274036 0.769291
vt 0.240520 0.767875
vt 0.274904 0.618642
vt 0.412567 0.618642
vt 0.234248 0.774702
vt 0.265224 0.790569
vt 0.258953 0.797396
vt 0.308029 0.817742
vt 0.289653 0.837746
vt 0.203894 0.845035
vt 0.191443 0.747529
vt 0.238497 0.807978
vt 0.225000 0.520345
vt 0.024952 0.520345
vt 0.159229 0.024952
vt 0.198548 0.171692
vt 0.651987 0.181522
vt 0.759408 0.074101
vt 0.647338 0.776536
vt 0.745548 0.780685
vt 0.711554 0.818302
vt 0.678038 0.816887
vt 0.274904 0.598982
vt 0.412567 0.598982
vt 0.671767 0.823714
vt 0.702743 0.839581
vt 0.696471 0.846407
vt 0.745548 0.866753
vt 0.727171 0.886758
vt 0.641412 0.894046
vt 0.628962 0.796541
vt 0.676016 0.856989
vt 0.225000 0.540004
vt 0.024952 0.540004
vt 0.257526 0.024952
vt 0.218207 0.171692
vt 0.634962 0.171692
vt 0.674281 0.024952
vt 0.813829 0.609122
vt 0.912039 0.613271
vt 0.878045 0.650888
vt 0.844529 0.649472
vt 0.274904 0.579323
vt 0.412567 0.579323
vt 0.838258 0.656299
vt 0.869234 0.672166
vt 0.862962 0.678993
vt 0.912039 0.699339
vt 0.893662 0.719343
vt 0.807903 0.726632
vt 0.795452 0.629126
vt 0.842507 0.689575
vt 0.225000 0.559664
vt 0.024952 0.559664
vt 0.342654 0.074101
vt 0.235233 0.181522
vt 0.615302 0.171692
vt 0.575983 0.024952
vt 0.560681 0.559217
vt 0.462471 0.555068
vt 0.496465 0.517451
vt 0.529981 0.518867
vt 0.274904 0.559664
vt 0.412567 0.559664
vt 0.536252 0.512040
vt 0.505276 0.496173
vt 0.511548 0.489346
vt 0.462471 0.469000
vt 0.480848 0.448995
vt 0.566607 0.441707
vt 0.579057 0.539213
vt 0.532003 0.478764
vt 0.893662 0.894046
vt 0.795452 0.889898
vt 0.829446 0.852280
vt 0.862962 0.853696
vt 0.869234 0.846869
vt 0.838258 0.831002
vt 0.844529 0.824175
vt 0.795452 0.803829
vt 0.813829 0.783824
vt 0.899588 0.776536
vt 0.912039 0.874042
vt 0.864985 0.813593
s 0
usemtl Material.004
f 7/1/1 2/2/1 4/3/1 8/4/1
f 8/5/2 10/6/2 9/7/2 7/8/2
f 6/9/3 12/10/3 11/11/3 5/12/3
f 9/13/4 10/14/4 15/15/4 13/16/4
f 1/17/1 11/18/1 12/19/1 3/20/1
f 14/21/1 13/16/1 15/22/1 16/23/1
f 10/24/5 6/25/5 16/23/5 15/22/5
f 6/26/6 5/27/6 14/21/6 16/28/6
f 5/27/7 9/13/7 13/16/7 14/21/7
f 20/29/8 18/30/8 2/2/8 7/1/8
f 7/8/2 9/7/2 21/31/2 20/32/2
f 5/12/3 11/11/3 22/33/3 19/34/3
f 21/35/9 9/36/9 25/37/9 23/38/9
f 17/39/8 22/40/8 11/18/8 1/17/8
f 24/41/8 23/38/8 25/42/8 26/43/8
f 9/44/10 5/45/10 26/43/10 25/42/10
f 5/46/11 19/47/11 24/41/11 26/48/11
f 19/47/12 21/35/12 23/38/12 24/41/12
f 30/49/13 28/50/13 18/30/13 20/29/13
f 20/32/2 21/31/2 31/51/2 30/52/2
f 19/34/3 22/33/3 32/53/3 29/54/3
f 31/55/14 21/56/14 35/57/14 33/58/14
f 27/59/13 32/60/13 22/40/13 17/39/13
f 34/61/13 33/58/13 35/62/13 36/63/13
f 21/64/15 19/65/15 36/63/15 35/62/15
f 19/66/16 29/67/16 34/61/16 36/68/16
f 29/67/17 31/55/17 33/58/17 34/61/17
f 40/69/18 38/70/18 28/50/18 30/49/18
f 30/52/2 31/51/2 41/71/2 40/72/2
f 29/54/3 32/53/3 42/73/3 39/74/3
f 41/75/19 31/76/19 45/77/19 43/78/19
f 37/79/18 42/80/18 32/60/18 27/59/18
f 44/81/18 43/78/18 45/82/18 46/83/18
f 31/84/20 29/85/20 46/83/20 45/82/20
f 29/86/21 39/87/21 44/81/21 46/88/21
f 39/87/22 41/75/22 43/78/22 44/81/22
f 50/89/23 48/90/23 38/70/23 40/69/23
f 40/72/2 41/71/2 51/91/2 50/92/2
f 39/74/3 42/73/3 52/93/3 49/94/3
f 51/95/24 41/96/24 55/97/24 53/98/24
f 47/99/23 52/100/23 42/80/23 37/79/23
f 54/101/23 53/98/23 55/102/23 56/103/23
f 41/104/25 39/105/25 56/103/25 55/102/25
f 39/106/26 49/107/26 54/101/26 56/108/26
f 49/107/27 51/95/27 53/98/27 54/101/27
f 60/109/28 58/110/28 48/111/28 50/112/28
f 50/92/2 51/91/2 61/113/2 60/114/2
f 49/94/3 52/93/3 62/115/3 59/116/3
f 61/117/29 51/118/29 65/119/29 63/120/29
f 57/121/28 62/122/28 52/123/28 47/124/28
f 64/125/28 63/120/28 65/126/28 66/127/28
f 51/128/30 49/129/30 66/127/30 65/126/30
f 49/130/31 59/131/31 64/125/31 66/132/31
f 59/131/32 61/117/32 63/120/32 64/125/32
f 70/133/33 68/134/33 58/110/33 60/109/33
f 60/114/2 61/113/2 71/135/2 70/136/2
f 59/116/3 62/115/3 72/137/3 69/138/3
f 71/139/34 61/140/34 75/141/34 73/142/34
f 67/143/33 72/144/33 62/122/33 57/121/33
f 74/145/33 73/142/33 75/146/33 76/147/33
f 61/148/35 59/149/35 76/147/35 75/146/35
f 59/150/36 69/151/36 74/145/36 76/152/36
f 69/151/37 71/139/37 73/142/37 74/145/37
f 80/153/38 78/154/38 68/134/38 70/133/38
f 70/136/2 71/135/2 81/155/2 80/156/2
f 69/138/3 72/137/3 82/157/3 79/158/3
f 81/159/39 71/160/39 85/161/39 83/162/39
f 77/163/38 82/164/38 72/144/38 67/143/38
f 84/165/38 83/162/38 85/166/38 86/167/38
f 71/168/40 69/169/40 86/167/40 85/166/40
f 69/170/41 79/171/41 84/165/41 86/172/41
f 79/171/42 81/159/42 83/162/42 84/165/42
f 90/173/43 88/174/43 78/154/43 80/153/43
f 80/156/2 81/155/2 91/175/2 90/176/2
f 79/158/3 82/157/3 92/177/3 89/178/3
f 91/179/44 81/180/44 95/181/44 93/182/44
f 87/183/43 92/184/43 82/164/43 77/163/43
f 94/185/43 93/182/43 95/186/43 96/187/43
f 81/188/45 79/189/45 96/187/45 95/186/45
f 79/190/46 89/191/46 94/185/46 96/192/46
f 89/191/47 91/179/47 93/182/47 94/185/47
f 100/193/48 98/194/48 88/174/48 90/173/48
f 90/176/2 91/175/2 101/195/2 100/196/2
f 89/178/3 92/177/3 102/197/3 99/198/3
f 101/199/49 91/200/49 105/201/49 103/202/49
f 97/203/48 102/204/48 92/184/48 87/183/48
f 104/205/48 103/202/48 105/206/48 106/207/48
f 91/208/50 89/209/50 106/207/50 105/206/50
f 89/210/51 99/211/51 104/205/51 106/212/51
f 99/211/52 101/199/52 103/202/52 104/205/52
f 110/213/53 108/214/53 98/194/53 100/193/53
f 100/196/2 101/195/2 111/215/2 110/216/2
f 99/198/3 102/197/3 112/217/3 109/218/3
f 111/219/54 101/220/54 115/221/54 113/222/54
f 107/223/53 112/224/53 102/204/53 97/203/53
f 114/225/53 113/222/53 115/226/53 116/227/53
f 101/228/55 99/229/55 116/227/55 115/226/55
f 99/230/56 109/231/56 114/225/56 116/232/56
f 109/231/57 111/219/57 113/222/57 114/225/57
f 8/4/58 4/3/58 108/214/58 110/213/58
f 110/216/2 111/215/2 10/6/2 8/5/2
f 109/218/3 112/217/3 12/10/3 6/9/3
f 10/233/59 111/234/59 119/235/59 117/236/59
f 3/20/58 12/19/58 112/224/58 107/223/58
f 118/237/58 117/236/58 119/238/58 120/239/58
f 111/240/60 109/241/60 120/239/60 119/238/60
f 109/242/61 6/243/61 118/237/61 120/244/61
f 6/243/62 10/233/62 117/236/62 118/237/62
