# Blender 5.0.1
# www.blender.org
mtllib Grid_switch_static.mtl
o Cube
v -0.549696 -0.143775 4.876305
v 0.034299 0.155244 3.898817
v 3.521705 -0.143775 4.876305
v 2.937710 0.155244 3.898817
v -0.549696 -0.143775 1.902296
v 2.937710 0.155244 1.908403
v 0.034299 0.155244 1.908403
v 3.521705 -0.143775 2.085182
v -0.052448 0.551566 4.044013
v 3.024457 0.551566 4.044013
v -0.052448 0.551566 1.907496
v 3.024457 0.551566 1.934662
v 0.771076 -0.143775 4.876305
v 0.899010 0.155244 3.898817
v 0.899010 0.155244 1.908403
v 0.771076 -0.143775 1.973707
v 0.880007 0.551566 4.044013
v 0.294515 1.462564 1.657608
v 0.907768 1.462564 1.657608
v 0.899010 1.357012 1.906138
v 0.034299 1.357012 1.906138
v 0.034299 0.154237 1.500000
v 3.521705 -0.143776 1.500000
v -0.549696 -0.143776 1.500000
v 2.937710 0.154280 1.500000
v 3.024457 0.551566 1.500000
v -0.052448 0.551566 1.500000
v 0.771076 -0.143776 1.500000
v 0.899010 0.154237 1.500000
v 0.294515 1.462161 1.500000
v 0.907768 1.462161 1.500000
v 0.899010 1.356011 1.500000
v 0.034299 1.356011 1.500000
v -0.549696 -0.143776 -1.876305
v 0.034299 0.155244 -0.898817
v 3.521705 -0.143776 -1.876305
v 2.937710 0.155244 -0.898817
v -0.549696 -0.143776 1.097704
v 2.937710 0.155244 1.091597
v 0.034299 0.155244 1.091597
v 3.521705 -0.143776 0.914818
v -0.052448 0.551566 -1.044013
v 3.024457 0.551566 -1.044013
v -0.052448 0.551566 1.092504
v 3.024457 0.551566 1.065338
v 0.771076 -0.143776 -1.876305
v 0.899010 0.155244 -0.898817
v 0.899010 0.155244 1.091597
v 0.771076 -0.143776 1.026293
v 0.880006 0.551566 -1.044013
v 0.294514 1.462564 1.342392
v 0.907768 1.462564 1.342392
v 0.899010 1.357012 1.093862
v 0.034299 1.357012 1.093862
vn -0.9769 0.2138 -0.0000
vn -0.0000 0.3440 -0.9390
vn -0.0000 -1.0000 -0.0000
vn -0.0000 1.0000 -0.0000
vn 0.9769 0.2138 -0.0000
vn -0.0000 0.9204 0.3909
vn -0.9769 0.2136 -0.0002
vn 0.8134 0.5817 -0.0000
vn -0.8134 0.5817 -0.0000
vn -0.0000 0.7674 0.6411
vn -0.0000 1.0000 -0.0024
vn -0.0000 1.0000 -0.0026
vn -0.3777 0.9259 -0.0023
vn -1.0000 -0.0000 -0.0000
vn -0.0000 0.0019 1.0000
vn 0.9966 -0.0822 0.0002
vn 1.0000 -0.0000 -0.0000
vn 0.9769 0.2136 -0.0003
vn -0.0000 0.3440 0.9390
vn -0.0000 0.9204 -0.3909
vn -0.9769 0.2136 0.0002
vn -0.0000 0.7674 -0.6411
vn -0.0000 1.0000 0.0024
vn -0.0000 1.0000 0.0026
vn -0.3777 0.9259 0.0023
vn -0.0000 0.0019 -1.0000
vn 0.9966 -0.0822 -0.0002
vn 0.9769 0.2136 0.0003
vt 0.612127 0.259674
vt 0.677642 0.257516
vt 0.677642 0.421054
vt 0.612128 0.432984
vt 0.940167 0.808959
vt 0.873957 0.810520
vt 0.873957 0.739473
vt 0.940167 0.732346
vt 0.358985 0.383286
vt 0.132986 0.374127
vt 0.132986 0.144801
vt 0.358985 0.144801
vt 0.779633 0.690311
vt 0.850680 0.690311
vt 0.850680 0.853849
vt 0.779633 0.853849
vt 0.701336 0.011639
vt 0.766851 0.023569
vt 0.766851 0.187106
vt 0.701336 0.187181
vt 0.017850 0.858472
vt 0.088898 0.858472
vt 0.089617 0.885264
vt 0.039231 0.885264
vt 0.358985 0.422207
vt 0.132986 0.422207
vt 0.612127 0.223961
vt 0.677800 0.223961
vt 0.011639 0.422208
vt 0.011639 0.386495
vt 0.467503 0.144801
vt 0.588850 0.213184
vt 0.588850 0.388727
vt 0.467503 0.389154
vt 0.350035 0.011639
vt 0.426648 0.011639
vt 0.011639 0.213184
vt 0.173841 0.011639
vt 0.467503 0.422208
vt 0.612127 0.656756
vt 0.779633 0.655268
vt 0.612127 0.690311
vt 0.612127 0.853849
vt 0.940167 0.985153
vt 0.873957 0.978025
vt 0.089617 0.899316
vt 0.039231 0.899316
vt 0.011639 0.899775
vt 0.011639 0.864926
vt 0.988654 0.031060
vt 0.988026 0.171403
vt 0.790545 0.171403
vt 0.791170 0.031838
vt 0.988026 0.242450
vt 0.790545 0.242450
vt 0.107073 0.864926
vt 0.107073 0.899775
vt 0.988158 0.277493
vt 0.790676 0.277298
vt 0.588850 0.422208
vt 0.767015 0.222149
vt 0.701336 0.220662
s 0
usemtl Material
f 12/1/1 6/2/1 4/3/1 10/4/1
f 17/5/2 14/6/2 2/7/2 9/8/2
f 16/9/3 8/10/3 3/11/3 13/12/3
f 15/13/4 7/14/4 2/15/4 14/16/4
f 9/17/5 2/18/5 7/19/5 11/20/5
f 21/21/6 20/22/6 19/23/6 18/24/6
f 28/25/3 23/26/3 8/10/3 16/9/3
f 26/27/7 25/28/7 6/2/7 12/1/7
f 23/26/8 26/29/8 12/30/8 8/10/8
f 1/31/9 9/32/9 11/33/9 5/34/9
f 13/12/10 17/35/10 9/36/10 1/31/10
f 8/10/8 12/30/8 10/37/8 3/11/8
f 3/11/10 10/38/10 17/35/10 13/12/10
f 24/39/3 28/25/3 16/9/3 5/34/3
f 25/40/11 29/41/11 15/13/11 6/42/11
f 6/42/4 15/13/4 14/16/4 4/43/4
f 5/34/3 16/9/3 13/12/3 1/31/3
f 10/44/2 4/45/2 14/6/2 17/5/2
f 31/46/12 30/47/12 18/24/12 19/23/12
f 33/48/13 21/49/13 18/24/13 30/47/13
f 22/50/14 7/51/14 21/52/14 33/53/14
f 7/51/15 15/54/15 20/55/15 21/52/15
f 20/56/16 32/57/16 31/46/16 19/23/16
f 15/54/17 29/58/17 32/59/17 20/55/17
f 5/34/9 11/33/9 27/60/9 24/39/9
f 11/20/18 7/19/18 22/61/18 27/62/18
f 45/1/1 43/4/1 37/3/1 39/2/1
f 50/5/19 42/8/19 35/7/19 47/6/19
f 49/9/3 46/12/3 36/11/3 41/10/3
f 48/13/4 47/16/4 35/15/4 40/14/4
f 42/17/5 44/20/5 40/19/5 35/18/5
f 54/21/20 51/24/20 52/23/20 53/22/20
f 28/25/3 49/9/3 41/10/3 23/26/3
f 26/27/21 45/1/21 39/2/21 25/28/21
f 23/26/8 41/10/8 45/30/8 26/29/8
f 34/31/9 38/34/9 44/33/9 42/32/9
f 46/12/22 34/31/22 42/36/22 50/35/22
f 41/10/8 36/11/8 43/37/8 45/30/8
f 36/11/22 46/12/22 50/35/22 43/38/22
f 24/39/3 38/34/3 49/9/3 28/25/3
f 25/40/23 39/42/23 48/13/23 29/41/23
f 39/42/4 37/43/4 47/16/4 48/13/4
f 38/34/3 34/31/3 46/12/3 49/9/3
f 43/44/19 50/5/19 47/6/19 37/45/19
f 31/46/24 52/23/24 51/24/24 30/47/24
f 33/48/25 30/47/25 51/24/25 54/49/25
f 22/50/14 33/53/14 54/52/14 40/51/14
f 40/51/26 54/52/26 53/55/26 48/54/26
f 53/56/27 52/23/27 31/46/27 32/57/27
f 48/54/17 53/55/17 32/59/17 29/58/17
f 38/34/9 24/39/9 27/60/9 44/33/9
f 44/20/28 27/62/28 22/61/28 40/19/28
o Cylinder
v 0.274174 5.091750 -0.721191
v 0.274174 5.091750 -0.685521
v 0.243283 5.091750 -0.667687
v 0.212392 5.091750 -0.685521
v 0.243283 5.091750 -0.739026
v 0.212392 5.091750 -0.721191
v 0.172756 4.905162 -0.744075
v 0.243283 4.905162 -0.784793
v 0.172756 4.905162 -0.662638
v 0.243283 4.905162 -0.621919
v 0.313810 4.905162 -0.662638
v 0.313810 4.905162 -0.744075
v 0.313810 4.575867 -0.744075
v 0.313810 4.575867 -0.662638
v 0.243283 4.575867 -0.621919
v 0.172756 4.575867 -0.662638
v 0.243283 4.575867 -0.784793
v 0.172756 4.575867 -0.744075
v -0.121901 4.131821 -0.914195
v 0.243283 4.131821 -1.125034
v -0.121901 4.131821 -0.492517
v 0.243283 4.131821 -0.281678
v 0.608467 4.131821 -0.492517
v 0.608467 4.131821 -0.914195
v 0.608467 3.874467 -0.914195
v 0.608467 3.874467 -0.492517
v 0.243283 3.874467 -0.281678
v -0.121901 3.874467 -0.492517
v 0.243283 3.874467 -0.492517
v 0.243283 3.874467 -1.125034
v -0.121901 3.874467 -0.914195
v 0.060691 3.874467 -0.808776
v 0.243283 3.874467 -0.914195
v 0.060691 3.874467 -0.597937
v 0.243283 3.874467 -0.492517
v 0.425875 3.874467 -0.597937
v 0.425875 3.874467 -0.808776
v 0.060691 3.740250 -0.808776
v 0.243283 3.740250 -0.914195
v 0.060691 3.740250 -0.597937
v 0.243283 3.740250 -0.492517
v 0.425875 3.740250 -0.597937
v 0.425875 3.740250 -0.808776
v -0.121901 3.464768 -0.914195
v 0.243283 3.464768 -1.125034
v -0.121901 3.464768 -0.492517
v 0.243283 3.464768 -0.281678
v 0.608467 3.464768 -0.492517
v 0.608467 3.464768 -0.914195
v -0.121901 3.196335 -0.914195
v 0.243283 3.196335 -1.125034
v -0.121901 3.196334 -0.492517
v 0.243283 3.196335 -0.281678
v 0.608467 3.196335 -0.492517
v 0.608467 3.196335 -0.914195
v 0.060691 3.196335 -0.808776
v 0.243283 3.196335 -0.914195
v 0.060691 3.196335 -0.597937
v 0.243283 3.196335 -0.492517
v 0.425875 3.196335 -0.597937
v 0.425875 3.196335 -0.808776
v 0.060691 3.062118 -0.808776
v 0.243283 3.062118 -0.914195
v 0.060691 3.062118 -0.597937
v 0.243283 3.062118 -0.492517
v 0.425875 3.062118 -0.597937
v 0.425875 3.062118 -0.808776
v -0.121900 2.810873 -0.914196
v 0.243283 2.810874 -1.125035
v -0.121900 2.810873 -0.492518
v 0.243283 2.810873 -0.281678
v 0.608467 2.810874 -0.492518
v 0.608467 2.810874 -0.914196
v -0.121900 2.542440 -0.914196
v 0.243284 2.542440 -1.125035
v -0.121900 2.542440 -0.492518
v 0.243284 2.542440 -0.281679
v 0.608467 2.542440 -0.492518
v 0.608467 2.542440 -0.914196
v 0.060692 2.542440 -0.808776
v 0.243284 2.542440 -0.914196
v 0.060692 2.542440 -0.597937
v 0.243284 2.542440 -0.492518
v 0.425876 2.542440 -0.597937
v 0.425876 2.542440 -0.808776
v 0.060692 2.408223 -0.808776
v 0.243284 2.408223 -0.914196
v 0.060692 2.408223 -0.597937
v 0.243284 2.408223 -0.492518
v 0.425876 2.408223 -0.597937
v 0.425876 2.408223 -0.808776
v -0.121900 2.047793 -0.914196
v 0.243284 2.047794 -1.125035
v -0.121900 2.047793 -0.492518
v 0.243284 2.047793 -0.281679
v 0.608468 2.047794 -0.492518
v 0.608468 2.047794 -0.914196
v 0.097210 2.047793 -0.787692
v 0.243284 2.047794 -0.872028
v 0.097210 2.047793 -0.619021
v 0.243284 2.047793 -0.534685
v 0.389357 2.047793 -0.619021
v 0.389357 2.047794 -0.787692
v 0.097211 1.807473 -0.787692
v 0.243284 1.807473 -0.872028
v 0.097211 1.807473 -0.619021
v 0.243284 1.807473 -0.534686
v 0.389358 1.807473 -0.619021
v 0.389358 1.807473 -0.787692
v -0.048863 1.296727 -0.872028
v 0.243284 1.296727 -1.040699
v -0.048863 1.296727 -0.534686
v 0.243284 1.296727 -0.366015
v 0.535432 1.296727 -0.534686
v 0.535432 1.296728 -0.872028
v -0.048863 0.044656 -0.534686
v -0.048863 0.044656 -0.872028
v 0.750346 0.044656 -0.872028
v 0.750346 0.044656 -0.534686
v -0.048863 1.296727 -1.040306
v 0.535432 1.296728 -1.040306
v -0.048863 0.044656 -1.040306
v 0.750346 0.044656 -1.040306
v -0.048863 1.296727 -0.371738
v 0.535432 1.296727 -0.371738
v -0.048863 0.044656 0.056631
v 0.535432 0.044656 0.056631
v 0.750346 0.670692 -0.872028
v -0.048863 0.670692 -0.872028
v -0.048863 0.670692 -0.534686
v 0.750346 0.670692 -0.534686
v 0.750346 0.670692 -1.040306
v -0.048863 0.670692 -1.040306
v -0.048863 0.670692 0.056631
v 0.535432 0.670692 0.056631
v 2.696949 5.091750 -0.721191
v 2.696949 5.091750 -0.685521
v 2.727840 5.091750 -0.667687
v 2.758731 5.091750 -0.685521
v 2.727840 5.091750 -0.739026
v 2.758731 5.091750 -0.721191
v 2.798367 4.905162 -0.744075
v 2.727840 4.905162 -0.784793
v 2.798367 4.905162 -0.662638
v 2.727840 4.905162 -0.621919
v 2.657314 4.905162 -0.662638
v 2.657314 4.905162 -0.744075
v 2.657314 4.575867 -0.744075
v 2.657314 4.575867 -0.662638
v 2.727840 4.575867 -0.621919
v 2.798367 4.575867 -0.662638
v 2.727840 4.575867 -0.784793
v 2.798367 4.575867 -0.744075
v 3.093024 4.131821 -0.914195
v 2.727840 4.131821 -1.125034
v 3.093024 4.131821 -0.492517
v 2.727840 4.131821 -0.281678
v 2.362656 4.131821 -0.492517
v 2.362656 4.131821 -0.914195
v 2.362656 3.874467 -0.914195
v 2.362656 3.874467 -0.492517
v 2.727840 3.874467 -0.281678
v 3.093024 3.874467 -0.492517
v 2.727840 3.874467 -0.492517
v 2.727840 3.874467 -1.125034
v 3.093024 3.874467 -0.914195
v 2.910432 3.874467 -0.808776
v 2.727840 3.874467 -0.914195
v 2.910432 3.874467 -0.597937
v 2.727840 3.874467 -0.492517
v 2.545248 3.874467 -0.597937
v 2.545248 3.874467 -0.808776
v 2.910432 3.740250 -0.808776
v 2.727840 3.740250 -0.914195
v 2.910432 3.740250 -0.597937
v 2.727840 3.740250 -0.492517
v 2.545248 3.740250 -0.597937
v 2.545248 3.740250 -0.808776
v 3.093024 3.464768 -0.914195
v 2.727840 3.464768 -1.125034
v 3.093024 3.464768 -0.492517
v 2.727840 3.464768 -0.281678
v 2.362656 3.464768 -0.492517
v 2.362656 3.464768 -0.914195
v 3.093024 3.196335 -0.914195
v 2.727840 3.196335 -1.125034
v 3.093024 3.196335 -0.492517
v 2.727840 3.196335 -0.281678
v 2.362656 3.196335 -0.492517
v 2.362656 3.196335 -0.914195
v 2.910432 3.196335 -0.808776
v 2.727840 3.196335 -0.914195
v 2.910432 3.196335 -0.597937
v 2.727840 3.196335 -0.492517
v 2.545248 3.196335 -0.597937
v 2.545248 3.196335 -0.808776
v 2.910432 3.062118 -0.808776
v 2.727840 3.062118 -0.914195
v 2.910432 3.062118 -0.597937
v 2.727840 3.062118 -0.492517
v 2.545248 3.062118 -0.597937
v 2.545248 3.062118 -0.808776
v 3.093024 2.810873 -0.914196
v 2.727840 2.810874 -1.125035
v 3.093024 2.810873 -0.492518
v 2.727840 2.810873 -0.281678
v 2.362656 2.810873 -0.492518
v 2.362656 2.810874 -0.914196
v 3.093024 2.542440 -0.914196
v 2.727840 2.542440 -1.125035
v 3.093024 2.542439 -0.492518
v 2.727840 2.542440 -0.281679
v 2.362656 2.542440 -0.492518
v 2.362656 2.542440 -0.914196
v 2.910432 2.542440 -0.808776
v 2.727840 2.542440 -0.914196
v 2.910432 2.542440 -0.597937
v 2.727840 2.542440 -0.492518
v 2.545248 2.542440 -0.597937
v 2.545248 2.542440 -0.808776
v 2.910431 2.408223 -0.808776
v 2.727840 2.408223 -0.914196
v 2.910431 2.408223 -0.597937
v 2.727840 2.408223 -0.492518
v 2.545248 2.408223 -0.597937
v 2.545248 2.408223 -0.808776
v 3.093023 2.047793 -0.914196
v 2.727839 2.047793 -1.125035
v 3.093023 2.047793 -0.492518
v 2.727839 2.047793 -0.281679
v 2.362655 2.047793 -0.492518
v 2.362655 2.047794 -0.914196
v 2.873913 2.047793 -0.787692
v 2.727839 2.047793 -0.872028
v 2.873913 2.047793 -0.619021
v 2.727839 2.047793 -0.534685
v 2.581766 2.047793 -0.619021
v 2.581766 2.047793 -0.787692
v 2.873913 1.807473 -0.787692
v 2.727839 1.807473 -0.872028
v 2.873913 1.807473 -0.619021
v 2.727839 1.807473 -0.534686
v 2.581766 1.807473 -0.619021
v 2.581766 1.807473 -0.787692
v 3.019986 1.296727 -0.872028
v 2.727839 1.296727 -1.040699
v 3.019986 1.296727 -0.534686
v 2.727839 1.296727 -0.366015
v 2.435692 1.296727 -0.534686
v 2.435692 1.296727 -0.872028
v 3.019986 0.044656 -0.534686
v 3.019986 0.044656 -0.872028
v 2.220778 0.044656 -0.872028
v 2.220778 0.044656 -0.534686
v 3.019986 1.296727 -1.040306
v 2.435692 1.296728 -1.040306
v 3.019986 0.044656 -1.040306
v 2.220778 0.044656 -1.040306
v 3.019986 1.296727 -0.371738
v 2.435692 1.296727 -0.371738
v 3.019986 0.044656 0.056631
v 2.435692 0.044656 0.056631
v 2.220778 0.670692 -0.872028
v 3.019986 0.670692 -0.872028
v 3.019986 0.670692 -0.534686
v 2.220778 0.670692 -0.534686
v 2.220778 0.670692 -1.040306
v 3.019986 0.670692 -1.040306
v 3.019986 0.670692 0.056631
v 2.435692 0.670692 0.056631
v 0.274174 5.091750 3.727731
v 0.274174 5.091750 3.692061
v 0.243283 5.091750 3.674227
v 0.212392 5.091750 3.692061
v 0.243283 5.091750 3.745565
v 0.212392 5.091750 3.727731
v 0.172756 4.905162 3.750615
v 0.243283 4.905162 3.791333
v 0.172756 4.905162 3.669178
v 0.243283 4.905162 3.628459
v 0.313810 4.905162 3.669178
v 0.313810 4.905162 3.750615
v 0.313810 4.575866 3.750615
v 0.313810 4.575866 3.669178
v 0.243283 4.575866 3.628459
v 0.172756 4.575866 3.669178
v 0.243283 4.575866 3.791333
v 0.172756 4.575866 3.750615
v -0.121901 4.131821 3.920735
v 0.243283 4.131821 4.131574
v -0.121901 4.131821 3.499057
v 0.243283 4.131821 3.288218
v 0.608467 4.131821 3.499057
v 0.608467 4.131821 3.920735
v 0.608467 3.874467 3.920735
v 0.608467 3.874467 3.499057
v 0.243283 3.874467 3.288218
v -0.121901 3.874467 3.499057
v 0.243283 3.874467 3.499057
v 0.243283 3.874467 4.131574
v -0.121901 3.874467 3.920735
v 0.060691 3.874467 3.815316
v 0.243283 3.874467 3.920735
v 0.060691 3.874467 3.604477
v 0.243283 3.874467 3.499057
v 0.425875 3.874467 3.604477
v 0.425875 3.874467 3.815316
v 0.060691 3.740250 3.815315
v 0.243283 3.740250 3.920735
v 0.060691 3.740250 3.604476
v 0.243283 3.740250 3.499057
v 0.425875 3.740250 3.604476
v 0.425875 3.740250 3.815315
v -0.121901 3.464768 3.920735
v 0.243283 3.464768 4.131574
v -0.121901 3.464768 3.499057
v 0.243283 3.464768 3.288218
v 0.608467 3.464768 3.499057
v 0.608467 3.464768 3.920735
v -0.121901 3.196335 3.920735
v 0.243283 3.196335 4.131574
v -0.121901 3.196335 3.499057
v 0.243283 3.196335 3.288218
v 0.608467 3.196335 3.499057
v 0.608467 3.196335 3.920735
v 0.060691 3.196335 3.815316
v 0.243283 3.196335 3.920735
v 0.060691 3.196335 3.604477
v 0.243283 3.196335 3.499057
v 0.425875 3.196335 3.604477
v 0.425875 3.196335 3.815316
v 0.060691 3.062118 3.815316
v 0.243283 3.062118 3.920735
v 0.060691 3.062118 3.604477
v 0.243283 3.062118 3.499057
v 0.425875 3.062118 3.604477
v 0.425875 3.062118 3.815316
v -0.121900 2.810874 3.920736
v 0.243283 2.810874 4.131575
v -0.121900 2.810873 3.499058
v 0.243283 2.810873 3.288218
v 0.608467 2.810874 3.499058
v 0.608467 2.810874 3.920736
v -0.121900 2.542440 3.920736
v 0.243284 2.542440 4.131575
v -0.121900 2.542440 3.499058
v 0.243284 2.542440 3.288218
v 0.608467 2.542440 3.499058
v 0.608467 2.542440 3.920736
v 0.060692 2.542440 3.815316
v 0.243284 2.542440 3.920736
v 0.060692 2.542440 3.604477
v 0.243284 2.542440 3.499058
v 0.425876 2.542440 3.604477
v 0.425876 2.542440 3.815316
v 0.060692 2.408223 3.815316
v 0.243284 2.408223 3.920736
v 0.060692 2.408223 3.604477
v 0.243284 2.408223 3.499058
v 0.425876 2.408223 3.604477
v 0.425876 2.408223 3.815316
v -0.121900 2.047793 3.920736
v 0.243284 2.047794 4.131575
v -0.121900 2.047793 3.499058
v 0.243284 2.047793 3.288219
v 0.608468 2.047793 3.499058
v 0.608468 2.047794 3.920736
v 0.097210 2.047793 3.794232
v 0.243284 2.047793 3.878568
v 0.097210 2.047793 3.625561
v 0.243284 2.047793 3.541225
v 0.389357 2.047793 3.625561
v 0.389357 2.047794 3.794232
v 0.097211 1.807473 3.794232
v 0.243284 1.807473 3.878568
v 0.097211 1.807473 3.625561
v 0.243284 1.807473 3.541225
v 0.389358 1.807473 3.625561
v 0.389358 1.807473 3.794232
v -0.048863 1.296727 3.878568
v 0.243284 1.296727 4.047239
v -0.048863 1.296727 3.541225
v 0.243284 1.296727 3.372554
v 0.535432 1.296727 3.541225
v 0.535432 1.296727 3.878568
v -0.048863 0.044656 3.541225
v -0.048863 0.044656 3.878568
v 0.750346 0.044656 3.878568
v 0.750346 0.044656 3.541225
v -0.048863 1.296727 4.046846
v 0.535432 1.296727 4.046846
v -0.048863 0.044656 4.046846
v 0.750346 0.044656 4.046846
v -0.048863 1.296727 3.378278
v 0.535432 1.296727 3.378278
v -0.048863 0.044656 2.949909
v 0.535432 0.044656 2.949909
v 0.750346 0.670692 3.878568
v -0.048863 0.670692 3.878568
v -0.048863 0.670692 3.541226
v 0.750346 0.670692 3.541226
v 0.750346 0.670692 4.046846
v -0.048863 0.670692 4.046846
v -0.048863 0.670692 2.949909
v 0.535432 0.670692 2.949909
v 2.696949 5.091750 3.727731
v 2.696949 5.091750 3.692061
v 2.727840 5.091750 3.674227
v 2.758731 5.091750 3.692061
v 2.727840 5.091750 3.745565
v 2.758731 5.091750 3.727731
v 2.798367 4.905162 3.750615
v 2.727840 4.905162 3.791333
v 2.798367 4.905162 3.669178
v 2.727840 4.905162 3.628459
v 2.657314 4.905162 3.669178
v 2.657314 4.905162 3.750615
v 2.657314 4.575866 3.750615
v 2.657314 4.575866 3.669178
v 2.727840 4.575867 3.628459
v 2.798367 4.575867 3.669178
v 2.727840 4.575866 3.791333
v 2.798367 4.575866 3.750615
v 3.093024 4.131821 3.920735
v 2.727840 4.131821 4.131574
v 3.093024 4.131821 3.499057
v 2.727840 4.131821 3.288218
v 2.362656 4.131821 3.499057
v 2.362656 4.131821 3.920735
v 2.362656 3.874467 3.920735
v 2.362656 3.874467 3.499057
v 2.727840 3.874467 3.288218
v 3.093024 3.874467 3.499057
v 2.727840 3.874467 3.499057
v 2.727840 3.874467 4.131574
v 3.093024 3.874467 3.920735
v 2.910432 3.874467 3.815316
v 2.727840 3.874466 3.920735
v 2.910432 3.874467 3.604477
v 2.727840 3.874467 3.499057
v 2.545248 3.874466 3.604477
v 2.545248 3.874466 3.815316
v 2.910432 3.740250 3.815315
v 2.727840 3.740250 3.920735
v 2.910432 3.740250 3.604476
v 2.727840 3.740250 3.499057
v 2.545248 3.740250 3.604476
v 2.545248 3.740250 3.815315
v 3.093024 3.464768 3.920735
v 2.727840 3.464768 4.131574
v 3.093024 3.464768 3.499057
v 2.727840 3.464768 3.288218
v 2.362656 3.464768 3.499057
v 2.362656 3.464768 3.920735
v 3.093024 3.196335 3.920735
v 2.727840 3.196335 4.131574
v 3.093024 3.196334 3.499057
v 2.727840 3.196334 3.288218
v 2.362656 3.196335 3.499057
v 2.362656 3.196335 3.920735
v 2.910432 3.196335 3.815316
v 2.727840 3.196335 3.920735
v 2.910432 3.196335 3.604477
v 2.727840 3.196335 3.499057
v 2.545248 3.196335 3.604477
v 2.545248 3.196335 3.815316
v 2.910432 3.062118 3.815316
v 2.727840 3.062118 3.920735
v 2.910432 3.062118 3.604477
v 2.727840 3.062118 3.499057
v 2.545248 3.062118 3.604477
v 2.545248 3.062118 3.815316
v 3.093024 2.810873 3.920736
v 2.727840 2.810874 4.131575
v 3.093024 2.810873 3.499058
v 2.727840 2.810873 3.288218
v 2.362656 2.810873 3.499058
v 2.362656 2.810874 3.920736
v 3.093024 2.542440 3.920736
v 2.727840 2.542440 4.131575
v 3.093024 2.542439 3.499058
v 2.727840 2.542440 3.288218
v 2.362656 2.542440 3.499058
v 2.362656 2.542440 3.920736
v 2.910432 2.542440 3.815316
v 2.727840 2.542440 3.920736
v 2.910432 2.542440 3.604477
v 2.727840 2.542440 3.499058
v 2.545248 2.542440 3.604477
v 2.545248 2.542440 3.815316
v 2.910431 2.408223 3.815316
v 2.727840 2.408223 3.920736
v 2.910431 2.408223 3.604477
v 2.727840 2.408223 3.499058
v 2.545248 2.408223 3.604477
v 2.545248 2.408223 3.815316
v 3.093023 2.047793 3.920736
v 2.727839 2.047793 4.131575
v 3.093023 2.047793 3.499058
v 2.727839 2.047793 3.288219
v 2.362655 2.047793 3.499058
v 2.362655 2.047794 3.920736
v 2.873913 2.047793 3.794232
v 2.727839 2.047793 3.878568
v 2.873913 2.047793 3.625561
v 2.727839 2.047793 3.541225
v 2.581766 2.047793 3.625561
v 2.581766 2.047793 3.794232
v 2.873913 1.807473 3.794232
v 2.727839 1.807473 3.878568
v 2.873913 1.807473 3.625561
v 2.727839 1.807473 3.541225
v 2.581766 1.807473 3.625561
v 2.581766 1.807473 3.794232
v 3.019986 1.296727 3.878568
v 2.727839 1.296727 4.047239
v 3.019986 1.296727 3.541225
v 2.727839 1.296727 3.372554
v 2.435692 1.296727 3.541225
v 2.435692 1.296727 3.878568
v 3.019986 0.044656 3.541225
v 3.019986 0.044656 3.878568
v 2.220778 0.044656 3.878568
v 2.220778 0.044656 3.541225
v 3.019986 1.296727 4.046846
v 2.435692 1.296727 4.046846
v 3.019986 0.044656 4.046846
v 2.220778 0.044656 4.046846
v 3.019986 1.296727 3.378278
v 2.435692 1.296727 3.378278
v 3.019986 0.044656 2.949909
v 2.435692 0.044656 2.949909
v 2.220778 0.670692 3.878568
v 3.019986 0.670692 3.878568
v 3.019986 0.670691 3.541226
v 2.220778 0.670692 3.541226
v 2.220778 0.670692 4.046846
v 3.019986 0.670692 4.046846
v 3.019986 0.670691 2.949909
v 2.435692 0.670692 2.949909
vn -0.4891 0.2078 0.8471
vn 0.4891 0.2078 0.8471
vn 0.4891 0.2078 -0.8471
vn -0.4891 0.2078 -0.8471
vn -0.9782 0.2078 -0.0000
vn 0.9782 0.2078 -0.0000
vn 0.5000 -0.0000 -0.8660
vn 0.5000 -0.0000 0.8660
vn -0.5000 -0.0000 0.8660
vn 1.0000 -0.0000 -0.0000
vn -1.0000 -0.0000 -0.0000
vn -0.5000 -0.0000 -0.8660
vn -0.4166 0.5529 0.7216
vn 0.4166 0.5529 0.7216
vn 0.4166 0.5529 -0.7216
vn -0.4166 0.5529 -0.7216
vn -0.8332 0.5529 -0.0000
vn 0.8332 0.5529 -0.0000
vn -0.0000 -1.0000 -0.0000
vn 0.4168 0.5525 -0.7219
vn 0.4168 0.5525 0.7219
vn -0.8335 0.5525 -0.0000
vn 0.8335 0.5525 -0.0000
vn -0.4168 0.5525 0.7219
vn -0.4168 0.5525 -0.7219
vn 0.4045 0.5879 -0.7006
vn 0.4045 0.5879 0.7006
vn -0.8089 0.5879 -0.0000
vn 0.8089 0.5879 -0.0000
vn -0.4045 0.5879 0.7006
vn -0.4045 0.5879 -0.7006
vn -0.8921 0.4519 -0.0000
vn 0.8921 0.4519 -0.0000
vn -0.4460 0.4519 0.7725
vn -0.4460 0.4519 -0.7725
vn 0.4460 0.4519 -0.7725
vn 0.4460 0.4519 0.7725
vn 0.4807 0.2750 -0.8326
vn 0.4807 0.2750 0.8326
vn -0.9615 0.2750 -0.0000
vn 0.9615 0.2750 -0.0000
vn -0.4807 0.2750 0.8326
vn -0.4807 0.2750 -0.8326
vn -0.0000 -0.0000 -1.0000
vn -0.0000 1.0000 -0.0000
vn -0.0000 -0.0000 1.0000
vn 0.9310 0.2506 0.2653
vn 0.9398 -0.0000 0.3416
vn -0.0000 0.5647 0.8253
vn 0.9458 0.3247 -0.0000
vn -0.9310 0.2506 0.2653
vn -0.9398 -0.0000 0.3416
vn -0.9458 0.3247 -0.0000
vn 0.9310 0.2506 -0.2653
vn 0.9398 -0.0000 -0.3416
vn -0.0000 0.5647 -0.8253
vn -0.9310 0.2506 -0.2653
vn -0.9398 -0.0000 -0.3416
vt 0.361820 0.749697
vt 0.375330 0.749697
vt 0.371534 0.774884
vt 0.365616 0.774884
vt 0.442540 0.839829
vt 0.429202 0.840711
vt 0.429309 0.815610
vt 0.435421 0.814762
vt 0.375330 0.810321
vt 0.361820 0.810321
vt 0.365616 0.785134
vt 0.371534 0.785134
vt 0.441946 0.731544
vt 0.428688 0.732737
vt 0.428581 0.707636
vt 0.434525 0.706788
vt 0.415350 0.731854
vt 0.422469 0.706788
vt 0.415944 0.839518
vt 0.423365 0.814762
vt 0.375330 0.853230
vt 0.361820 0.853230
vt 0.442771 0.882875
vt 0.429217 0.882947
vt 0.361820 0.706788
vt 0.375330 0.706788
vt 0.415120 0.882818
vt 0.428673 0.774973
vt 0.415120 0.774900
vt 0.442771 0.774843
vt 0.701571 0.491464
vt 0.765425 0.514038
vt 0.726530 0.586391
vt 0.711660 0.582650
vt 0.806021 0.554466
vt 0.738328 0.596098
vt 0.820691 0.609297
vt 0.807468 0.664671
vt 0.738659 0.624416
vt 0.743479 0.610199
vt 0.767617 0.707402
vt 0.727047 0.634402
vt 0.701571 0.730959
vt 0.711376 0.637127
vt 0.834103 0.535768
vt 0.858176 0.608782
vt 0.785900 0.733764
vt 0.716948 0.766674
vt 0.714640 0.459339
vt 0.781654 0.486602
vt 0.836192 0.682425
vt 0.743198 0.437137
vt 0.776706 0.450768
vt 0.816056 0.476183
vt 0.842281 0.500766
vt 0.304541 0.811723
vt 0.304541 0.776745
vt 0.322031 0.776745
vt 0.322031 0.811723
vt 0.884568 0.636712
vt 0.873576 0.673533
vt 0.845850 0.717036
vt 0.820704 0.742706
vt 0.782912 0.771849
vt 0.748436 0.788304
vt 0.304541 0.881680
vt 0.322031 0.881680
vt 0.322031 0.916658
vt 0.304541 0.916658
vt 0.608466 0.172137
vt 0.600504 0.208953
vt 0.552358 0.206560
vt 0.566039 0.150728
vt 0.871737 0.543598
vt 0.883773 0.580105
vt 0.304541 0.846702
vt 0.322031 0.846702
vt 0.304541 0.741766
vt 0.322031 0.741766
vt 0.304541 0.706788
vt 0.322031 0.706788
vt 0.562263 0.263645
vt 0.531200 0.277337
vt 0.518381 0.207042
vt 0.608133 0.246255
vt 0.630515 0.277871
vt 0.593996 0.313846
vt 0.665586 0.127123
vt 0.630881 0.142142
vt 0.602172 0.105038
vt 0.662770 0.073010
vt 0.665586 0.298153
vt 0.650461 0.356078
vt 0.534471 0.137408
vt 0.492252 0.182666
vt 0.500297 0.147849
vt 0.626773 0.384541
vt 0.569847 0.337166
vt 0.577435 0.079059
vt 0.642533 0.037757
vt 0.207474 0.811723
vt 0.207474 0.846702
vt 0.189985 0.846702
vt 0.189985 0.811723
vt 0.534278 0.338943
vt 0.514955 0.309029
vt 0.575825 0.040546
vt 0.608375 0.019895
vt 0.497556 0.265314
vt 0.491147 0.230166
vt 0.592027 0.397348
vt 0.563564 0.373660
vt 0.519946 0.104217
vt 0.541428 0.075043
vt 0.547579 0.663012
vt 0.553988 0.625466
vt 0.601080 0.625861
vt 0.589052 0.682313
vt 0.207474 0.881680
vt 0.207474 0.916658
vt 0.189985 0.916658
vt 0.189985 0.881680
vt 0.207474 0.741766
vt 0.207474 0.776745
vt 0.189985 0.776745
vt 0.189985 0.741766
vt 0.207474 0.706788
vt 0.189985 0.706788
vt 0.590532 0.568061
vt 0.619947 0.555700
vt 0.634757 0.624365
vt 0.543898 0.587556
vt 0.524057 0.553789
vt 0.555282 0.520522
vt 0.491147 0.709371
vt 0.525941 0.693831
vt 0.554066 0.728825
vt 0.493567 0.761510
vt 0.491147 0.534600
vt 0.499161 0.483040
vt 0.581032 0.495285
vt 0.616921 0.493538
vt 0.636378 0.523746
vt 0.520433 0.452740
vt 0.621139 0.694639
vt 0.579495 0.754447
vt 0.514396 0.796915
vt 0.264752 0.881680
vt 0.264752 0.916658
vt 0.247263 0.916658
vt 0.247263 0.881680
vt 0.581610 0.793253
vt 0.549060 0.814487
vt 0.653382 0.566453
vt 0.660787 0.600786
vt 0.554005 0.437137
vt 0.584304 0.458409
vt 0.636625 0.727623
vt 0.615803 0.757527
vt 0.661782 0.647830
vt 0.654973 0.682968
vt 0.865345 0.111806
vt 0.830418 0.113708
vt 0.809917 0.058854
vt 0.879770 0.055051
vt 0.264752 0.741766
vt 0.264752 0.776745
vt 0.247263 0.776745
vt 0.247263 0.741766
vt 0.264752 0.811723
vt 0.247263 0.811723
vt 0.264752 0.846702
vt 0.247263 0.846702
vt 0.264752 0.706788
vt 0.247263 0.706788
vt 0.754692 0.101798
vt 0.748945 0.060219
vt 0.771035 0.043041
vt 0.792360 0.168562
vt 0.802806 0.201944
vt 0.754692 0.235326
vt 0.733799 0.168562
vt 0.830418 0.223416
vt 0.865345 0.225318
vt 0.879770 0.282074
vt 0.809917 0.278271
vt 0.802806 0.135180
vt 0.041739 0.842427
vt 0.039307 0.817921
vt 0.069234 0.811764
vt 0.073694 0.842546
vt 0.705376 0.137677
vt 0.713733 0.110971
vt 0.771035 0.294083
vt 0.748945 0.276905
vt 0.828897 0.021416
vt 0.856838 0.019895
vt 0.713733 0.226153
vt 0.705376 0.199448
vt 0.856838 0.317230
vt 0.828897 0.315708
vt 0.071081 0.874206
vt 0.150196 0.844373
vt 0.143631 0.894718
vt 0.031379 0.794033
vt 0.019895 0.769579
vt 0.047261 0.756727
vt 0.061077 0.782141
vt 0.031251 0.892422
vt 0.039000 0.867528
vt 0.062055 0.904436
vt 0.019895 0.917557
vt 0.048023 0.930265
vt 0.124783 0.746314
vt 0.143680 0.793274
vt 0.124677 0.941123
vt 0.093952 0.980105
vt 0.094076 0.706788
vt 0.101646 0.293378
vt 0.183384 0.293384
vt 0.183390 0.321347
vt 0.101646 0.321354
vt 0.183568 0.568752
vt 0.183528 0.512703
vt 0.316316 0.512607
vt 0.316356 0.568657
vt 0.101647 0.237292
vt 0.019895 0.293376
vt 0.019895 0.237288
vt 0.019902 0.138970
vt 0.101659 0.138976
vt 0.368898 0.292937
vt 0.368027 0.238031
vt 0.448337 0.233830
vt 0.450573 0.290505
vt 0.183449 0.403045
vt 0.316237 0.402950
vt 0.316296 0.484648
vt 0.183508 0.484743
vt 0.280399 0.293379
vt 0.280471 0.321277
vt 0.451358 0.318553
vt 0.369400 0.320845
vt 0.280775 0.101840
vt 0.183557 0.101708
vt 0.183668 0.019895
vt 0.280886 0.020026
vt 0.280719 0.666929
vt 0.183638 0.666999
vt 0.280445 0.237527
vt 0.183387 0.237313
vt 0.183410 0.210214
vt 0.280628 0.210346
vt 0.359866 0.135549
vt 0.441098 0.129892
vt 0.019895 0.321354
vt 0.374493 0.780009
vt 0.362658 0.780009
s 0
usemtl Material.005
f 63/63/29 64/64/29 57/65/29 58/66/29
f 64/67/30 65/68/30 56/69/30 57/70/30
f 66/71/31 62/72/31 59/73/31 55/74/31
f 62/75/32 61/76/32 60/77/32 59/78/32
f 61/76/33 63/79/33 58/80/33 60/77/33
f 65/68/34 66/81/34 55/82/34 56/69/34
f 67/83/35 71/84/35 62/72/35 66/71/35
f 69/85/36 68/86/36 65/68/36 64/67/36
f 70/87/37 69/88/37 64/64/37 63/63/37
f 68/86/38 67/89/38 66/81/38 65/68/38
f 72/90/39 70/91/39 63/79/39 61/76/39
f 71/92/40 72/90/40 61/76/40 62/75/40
f 75/93/41 76/94/41 69/95/41 70/96/41
f 76/94/42 77/97/42 68/98/42 69/95/42
f 78/99/43 74/100/43 71/101/43 67/102/43
f 74/100/44 73/103/44 72/104/44 71/101/44
f 73/103/45 75/105/45 70/106/45 72/104/45
f 77/97/46 78/99/46 67/102/46 68/98/46
f 80/107/38 79/108/38 78/99/38 77/97/38
f 85/109/39 82/110/39 75/105/39 73/103/39
f 82/111/37 81/112/37 76/94/37 75/93/37
f 79/108/35 84/113/35 74/100/35 78/99/35
f 81/112/36 80/107/36 77/97/36 76/94/36
f 84/113/40 85/109/40 73/103/40 74/100/40
f 88/114/47 89/115/47 81/112/47 82/111/47
f 89/116/47 90/117/47 80/107/47 81/112/47
f 91/118/38 90/119/38 96/120/38 97/121/38
f 91/122/47 87/123/47 84/113/47 79/108/47
f 87/124/47 86/125/47 85/109/47 84/113/47
f 86/126/47 88/127/47 82/110/47 85/109/47
f 86/128/39 92/129/39 94/130/39 88/131/39
f 93/132/48 97/133/48 103/134/48 99/135/48
f 90/136/47 91/137/47 79/108/47 80/107/47
f 86/128/40 87/138/40 93/139/40 92/129/40
f 87/138/35 91/118/35 97/121/35 93/139/35
f 90/119/36 89/140/36 95/141/36 96/120/36
f 88/142/37 94/143/37 95/141/37 89/140/37
f 103/134/38 102/144/38 108/145/38 109/146/38
f 96/147/49 95/148/49 101/149/49 102/144/49
f 94/150/50 92/151/50 98/152/50 100/153/50
f 97/133/51 96/147/51 102/144/51 103/134/51
f 95/148/52 94/154/52 100/155/52 101/149/52
f 92/151/53 93/132/53 99/135/53 98/152/53
f 105/156/47 109/146/47 115/157/47 111/158/47
f 101/149/37 100/155/37 106/159/37 107/160/37
f 98/152/40 99/135/40 105/156/40 104/161/40
f 99/135/35 103/134/35 109/146/35 105/156/35
f 102/144/36 101/149/36 107/160/36 108/145/36
f 100/153/39 98/152/39 104/161/39 106/162/39
f 115/163/38 114/164/38 120/165/38 121/166/38
f 108/145/47 107/160/47 113/167/47 114/168/47
f 106/162/47 104/161/47 110/169/47 112/170/47
f 109/146/47 108/145/47 114/171/47 115/172/47
f 107/160/47 106/159/47 112/173/47 113/174/47
f 104/161/47 105/156/47 111/175/47 110/176/47
f 117/177/54 121/178/54 127/179/54 123/180/54
f 113/181/37 112/182/37 118/183/37 119/184/37
f 110/185/40 111/186/40 117/187/40 116/188/40
f 111/186/35 115/163/35 121/166/35 117/187/35
f 114/164/36 113/181/36 119/184/36 120/165/36
f 112/189/39 110/185/39 116/188/39 118/190/39
f 127/179/38 126/191/38 132/192/38 133/193/38
f 120/194/55 119/195/55 125/196/55 126/191/55
f 118/197/56 116/198/56 122/199/56 124/200/56
f 121/178/57 120/194/57 126/191/57 127/179/57
f 119/195/58 118/201/58 124/202/58 125/196/58
f 116/198/59 117/177/59 123/180/59 122/199/59
f 132/192/47 131/203/47 137/204/47 138/205/47
f 125/196/37 124/202/37 130/206/37 131/203/37
f 122/199/40 123/180/40 129/207/40 128/208/40
f 123/180/35 127/179/35 133/193/35 129/207/35
f 126/191/36 125/196/36 131/203/36 132/192/36
f 124/200/39 122/199/39 128/208/39 130/209/39
f 137/210/37 136/211/37 142/212/37 143/213/37
f 130/209/47 128/208/47 134/214/47 136/215/47
f 133/193/47 132/192/47 138/216/47 139/217/47
f 131/203/47 130/206/47 136/218/47 137/219/47
f 128/208/47 129/207/47 135/220/47 134/221/47
f 129/207/47 133/193/47 139/222/47 135/223/47
f 142/224/60 140/225/60 146/226/60 148/227/60
f 134/228/40 135/229/40 141/230/40 140/231/40
f 135/229/35 139/232/35 145/233/35 141/230/35
f 138/234/36 137/210/36 143/213/36 144/235/36
f 136/236/39 134/228/39 140/231/39 142/237/39
f 139/232/38 138/234/38 144/235/38 145/233/38
f 146/226/47 147/238/47 153/239/47 152/240/47
f 145/241/61 144/242/61 150/243/61 151/244/61
f 143/245/62 142/246/62 148/247/62 149/248/62
f 140/225/63 141/249/63 147/238/63 146/226/63
f 141/249/64 145/241/64 151/244/64 147/238/64
f 144/242/65 143/245/65 149/248/65 150/243/65
f 157/250/38 156/251/38 162/252/38 163/253/38
f 147/238/47 151/244/47 157/254/47 153/255/47
f 150/243/47 149/248/47 155/256/47 156/257/47
f 148/227/47 146/226/47 152/258/47 154/259/47
f 151/244/47 150/243/47 156/260/47 157/261/47
f 149/248/47 148/247/47 154/262/47 155/263/47
f 159/264/66 163/253/66 169/265/66 165/266/66
f 155/267/37 154/268/37 160/269/37 161/270/37
f 152/271/40 153/272/40 159/264/40 158/273/40
f 153/272/35 157/250/35 163/253/35 159/264/35
f 156/251/36 155/267/36 161/270/36 162/252/36
f 154/274/39 152/271/39 158/273/39 160/275/39
f 162/252/67 161/270/67 167/276/67 168/277/67
f 160/275/68 158/273/68 164/278/68 166/279/68
f 163/253/69 162/252/69 168/277/69 169/265/69
f 161/270/70 160/269/70 166/280/70 167/276/70
f 158/273/71 159/264/71 165/266/71 164/278/71
f 183/281/39 164/282/39 174/283/39 187/284/39
f 170/285/47 171/286/47 172/287/47 173/288/47
f 184/289/39 183/281/39 171/290/39 170/291/39
f 184/289/39 170/291/39 180/292/39 188/293/39
f 182/294/38 185/295/38 173/296/38 172/297/38
f 187/298/72 186/299/72 177/300/72 176/301/72
f 172/287/47 171/286/47 176/301/47 177/300/47
f 164/282/73 169/302/73 175/303/73 174/283/73
f 182/294/38 172/297/38 177/304/38 186/305/38
f 189/306/74 188/307/74 180/308/74 181/309/74
f 170/285/47 173/288/47 181/310/47 180/311/47
f 168/312/73 166/313/73 178/314/73 179/315/73
f 185/295/75 168/312/75 179/315/75 189/316/75
f 173/296/76 185/295/76 189/316/76 181/317/76
f 179/315/77 178/314/77 188/307/77 189/306/77
f 169/302/78 182/294/78 186/305/78 175/303/78
f 174/283/72 175/303/72 186/299/72 187/298/72
f 169/302/78 168/312/78 185/295/78 182/294/78
f 166/313/39 184/289/39 188/293/39 178/314/39
f 166/313/39 164/282/39 183/281/39 184/289/39
f 171/290/39 183/281/39 187/284/39 176/318/39
f 56/319/73 60/320/73 58/66/73 57/65/73
f 59/73/73 60/320/73 56/319/73 55/74/73
f 198/63/30 193/66/30 192/65/30 199/64/30
f 199/67/29 192/70/29 191/69/29 200/68/29
f 201/71/32 190/74/32 194/73/32 197/72/32
f 197/75/31 194/78/31 195/77/31 196/76/31
f 196/76/34 195/77/34 193/80/34 198/79/34
f 200/68/33 191/69/33 190/82/33 201/81/33
f 202/83/40 201/71/40 197/72/40 206/84/40
f 204/85/37 199/67/37 200/68/37 203/86/37
f 205/87/36 198/63/36 199/64/36 204/88/36
f 203/86/39 200/68/39 201/81/39 202/89/39
f 207/90/38 196/76/38 198/79/38 205/91/38
f 206/92/35 197/75/35 196/76/35 207/90/35
f 210/93/42 205/96/42 204/95/42 211/94/42
f 211/94/41 204/95/41 203/98/41 212/97/41
f 213/99/44 202/102/44 206/101/44 209/100/44
f 209/100/43 206/101/43 207/104/43 208/103/43
f 208/103/46 207/104/46 205/106/46 210/105/46
f 212/97/45 203/98/45 202/102/45 213/99/45
f 215/107/39 212/97/39 213/99/39 214/108/39
f 220/109/38 208/103/38 210/105/38 217/110/38
f 217/111/36 210/93/36 211/94/36 216/112/36
f 214/108/40 213/99/40 209/100/40 219/113/40
f 216/112/37 211/94/37 212/97/37 215/107/37
f 219/113/35 209/100/35 208/103/35 220/109/35
f 223/114/47 217/111/47 216/112/47 224/115/47
f 224/116/47 216/112/47 215/107/47 225/117/47
f 226/118/39 232/121/39 231/120/39 225/119/39
f 226/122/47 214/108/47 219/113/47 222/123/47
f 222/124/47 219/113/47 220/109/47 221/125/47
f 221/126/47 220/109/47 217/110/47 223/127/47
f 221/128/38 223/131/38 229/130/38 227/129/38
f 228/132/53 234/135/53 238/134/53 232/133/53
f 225/136/47 215/107/47 214/108/47 226/137/47
f 221/128/35 227/129/35 228/139/35 222/138/35
f 222/138/40 228/139/40 232/121/40 226/118/40
f 225/119/37 231/120/37 230/141/37 224/140/37
f 223/142/36 224/140/36 230/141/36 229/143/36
f 238/134/39 244/146/39 243/145/39 237/144/39
f 231/147/52 237/144/52 236/149/52 230/148/52
f 229/150/51 235/153/51 233/152/51 227/151/51
f 232/133/50 238/134/50 237/144/50 231/147/50
f 230/148/49 236/149/49 235/155/49 229/154/49
f 227/151/48 233/152/48 234/135/48 228/132/48
f 240/156/47 246/158/47 250/157/47 244/146/47
f 236/149/36 242/160/36 241/159/36 235/155/36
f 233/152/35 239/161/35 240/156/35 234/135/35
f 234/135/40 240/156/40 244/146/40 238/134/40
f 237/144/37 243/145/37 242/160/37 236/149/37
f 235/153/38 241/162/38 239/161/38 233/152/38
f 250/163/39 256/166/39 255/165/39 249/164/39
f 243/145/47 249/168/47 248/167/47 242/160/47
f 241/162/47 247/170/47 245/169/47 239/161/47
f 244/146/47 250/172/47 249/171/47 243/145/47
f 242/160/47 248/174/47 247/173/47 241/159/47
f 239/161/47 245/176/47 246/175/47 240/156/47
f 252/177/59 258/180/59 262/179/59 256/178/59
f 248/181/36 254/184/36 253/183/36 247/182/36
f 245/185/35 251/188/35 252/187/35 246/186/35
f 246/186/40 252/187/40 256/166/40 250/163/40
f 249/164/37 255/165/37 254/184/37 248/181/37
f 247/189/38 253/190/38 251/188/38 245/185/38
f 262/179/39 268/193/39 267/192/39 261/191/39
f 255/194/58 261/191/58 260/196/58 254/195/58
f 253/197/57 259/200/57 257/199/57 251/198/57
f 256/178/56 262/179/56 261/191/56 255/194/56
f 254/195/55 260/196/55 259/202/55 253/201/55
f 251/198/54 257/199/54 258/180/54 252/177/54
f 267/192/47 273/205/47 272/204/47 266/203/47
f 260/196/36 266/203/36 265/206/36 259/202/36
f 257/199/35 263/208/35 264/207/35 258/180/35
f 258/180/40 264/207/40 268/193/40 262/179/40
f 261/191/37 267/192/37 266/203/37 260/196/37
f 259/200/38 265/209/38 263/208/38 257/199/38
f 272/210/36 278/213/36 277/212/36 271/211/36
f 265/209/47 271/215/47 269/214/47 263/208/47
f 268/193/47 274/217/47 273/216/47 267/192/47
f 266/203/47 272/219/47 271/218/47 265/206/47
f 263/208/47 269/221/47 270/220/47 264/207/47
f 264/207/47 270/223/47 274/222/47 268/193/47
f 277/224/61 283/227/61 281/226/61 275/225/61
f 269/228/35 275/231/35 276/230/35 270/229/35
f 270/229/40 276/230/40 280/233/40 274/232/40
f 273/234/37 279/235/37 278/213/37 272/210/37
f 271/236/38 277/237/38 275/231/38 269/228/38
f 274/232/39 280/233/39 279/235/39 273/234/39
f 281/226/47 287/240/47 288/239/47 282/238/47
f 280/241/60 286/244/60 285/243/60 279/242/60
f 278/245/65 284/248/65 283/247/65 277/246/65
f 275/225/64 281/226/64 282/238/64 276/249/64
f 276/249/63 282/238/63 286/244/63 280/241/63
f 279/242/62 285/243/62 284/248/62 278/245/62
f 292/250/39 298/253/39 297/252/39 291/251/39
f 282/238/47 288/255/47 292/254/47 286/244/47
f 285/243/47 291/257/47 290/256/47 284/248/47
f 283/227/47 289/259/47 287/258/47 281/226/47
f 286/244/47 292/261/47 291/260/47 285/243/47
f 284/248/47 290/263/47 289/262/47 283/247/47
f 294/264/71 300/266/71 304/265/71 298/253/71
f 290/267/36 296/270/36 295/269/36 289/268/36
f 287/271/35 293/273/35 294/264/35 288/272/35
f 288/272/40 294/264/40 298/253/40 292/250/40
f 291/251/37 297/252/37 296/270/37 290/267/37
f 289/274/38 295/275/38 293/273/38 287/271/38
f 297/252/70 303/277/70 302/276/70 296/270/70
f 295/275/69 301/279/69 299/278/69 293/273/69
f 298/253/68 304/265/68 303/277/68 297/252/68
f 296/270/67 302/276/67 301/280/67 295/269/67
f 293/273/66 299/278/66 300/266/66 294/264/66
f 318/281/38 322/284/38 309/283/38 299/282/38
f 305/285/47 308/288/47 307/287/47 306/286/47
f 319/289/38 305/291/38 306/290/38 318/281/38
f 319/289/38 323/293/38 315/292/38 305/291/38
f 317/294/39 307/297/39 308/296/39 320/295/39
f 322/298/72 311/301/72 312/300/72 321/299/72
f 307/287/47 312/300/47 311/301/47 306/286/47
f 299/282/73 309/283/73 310/303/73 304/302/73
f 317/294/39 321/305/39 312/304/39 307/297/39
f 324/306/74 316/309/74 315/308/74 323/307/74
f 305/285/47 315/311/47 316/310/47 308/288/47
f 303/312/73 314/315/73 313/314/73 301/313/73
f 320/295/79 324/316/79 314/315/79 303/312/79
f 308/296/80 316/317/80 324/316/80 320/295/80
f 314/315/77 324/306/77 323/307/77 313/314/77
f 304/302/81 310/303/81 321/305/81 317/294/81
f 309/283/72 322/298/72 321/299/72 310/303/72
f 304/302/81 317/294/81 320/295/81 303/312/81
f 301/313/38 313/314/38 323/293/38 319/289/38
f 301/313/38 319/289/38 318/281/38 299/282/38
f 306/290/38 311/318/38 322/284/38 318/281/38
f 191/319/73 192/65/73 193/66/73 195/320/73
f 194/73/73 190/74/73 191/319/73 195/320/73
f 333/63/32 328/66/32 327/65/32 334/64/32
f 334/67/31 327/70/31 326/69/31 335/68/31
f 336/71/30 325/74/30 329/73/30 332/72/30
f 332/75/29 329/78/29 330/77/29 331/76/29
f 331/76/33 330/77/33 328/80/33 333/79/33
f 335/68/34 326/69/34 325/82/34 336/81/34
f 337/83/36 336/71/36 332/72/36 341/84/36
f 339/85/35 334/67/35 335/68/35 338/86/35
f 340/87/40 333/63/40 334/64/40 339/88/40
f 338/86/38 335/68/38 336/81/38 337/89/38
f 342/90/39 331/76/39 333/79/39 340/91/39
f 341/92/37 332/75/37 331/76/37 342/90/37
f 345/93/44 340/96/44 339/95/44 346/94/44
f 346/94/43 339/95/43 338/98/43 347/97/43
f 348/99/42 337/102/42 341/101/42 344/100/42
f 344/100/41 341/101/41 342/104/41 343/103/41
f 343/103/45 342/104/45 340/106/45 345/105/45
f 347/97/46 338/98/46 337/102/46 348/99/46
f 350/107/38 347/97/38 348/99/38 349/108/38
f 355/109/39 343/103/39 345/105/39 352/110/39
f 352/111/40 345/93/40 346/94/40 351/112/40
f 349/108/36 348/99/36 344/100/36 354/113/36
f 351/112/35 346/94/35 347/97/35 350/107/35
f 354/113/37 344/100/37 343/103/37 355/109/37
f 358/114/47 352/111/47 351/112/47 359/115/47
f 359/116/47 351/112/47 350/107/47 360/117/47
f 361/118/38 367/121/38 366/120/38 360/119/38
f 361/122/47 349/108/47 354/113/47 357/123/47
f 357/124/47 354/113/47 355/109/47 356/125/47
f 356/126/47 355/109/47 352/110/47 358/127/47
f 356/128/39 358/131/39 364/130/39 362/129/39
f 363/132/49 369/135/49 373/134/49 367/133/49
f 360/136/47 350/107/47 349/108/47 361/137/47
f 356/128/37 362/129/37 363/139/37 357/138/37
f 357/138/36 363/139/36 367/121/36 361/118/36
f 360/119/35 366/120/35 365/141/35 359/140/35
f 358/142/40 359/140/40 365/141/40 364/143/40
f 373/134/38 379/146/38 378/145/38 372/144/38
f 366/147/48 372/144/48 371/149/48 365/148/48
f 364/150/50 370/153/50 368/152/50 362/151/50
f 367/133/51 373/134/51 372/144/51 366/147/51
f 365/148/53 371/149/53 370/155/53 364/154/53
f 362/151/52 368/152/52 369/135/52 363/132/52
f 375/156/47 381/158/47 385/157/47 379/146/47
f 371/149/40 377/160/40 376/159/40 370/155/40
f 368/152/37 374/161/37 375/156/37 369/135/37
f 369/135/36 375/156/36 379/146/36 373/134/36
f 372/144/35 378/145/35 377/160/35 371/149/35
f 370/153/39 376/162/39 374/161/39 368/152/39
f 385/163/38 391/166/38 390/165/38 384/164/38
f 378/145/47 384/168/47 383/167/47 377/160/47
f 376/162/47 382/170/47 380/169/47 374/161/47
f 379/146/47 385/172/47 384/171/47 378/145/47
f 377/160/47 383/174/47 382/173/47 376/159/47
f 374/161/47 380/176/47 381/175/47 375/156/47
f 387/177/55 393/180/55 397/179/55 391/178/55
f 383/181/40 389/184/40 388/183/40 382/182/40
f 380/185/37 386/188/37 387/187/37 381/186/37
f 381/186/36 387/187/36 391/166/36 385/163/36
f 384/164/35 390/165/35 389/184/35 383/181/35
f 382/189/39 388/190/39 386/188/39 380/185/39
f 397/179/38 403/193/38 402/192/38 396/191/38
f 390/194/54 396/191/54 395/196/54 389/195/54
f 388/197/56 394/200/56 392/199/56 386/198/56
f 391/178/57 397/179/57 396/191/57 390/194/57
f 389/195/59 395/196/59 394/202/59 388/201/59
f 386/198/58 392/199/58 393/180/58 387/177/58
f 402/192/47 408/205/47 407/204/47 401/203/47
f 395/196/40 401/203/40 400/206/40 394/202/40
f 392/199/37 398/208/37 399/207/37 393/180/37
f 393/180/36 399/207/36 403/193/36 397/179/36
f 396/191/35 402/192/35 401/203/35 395/196/35
f 394/200/39 400/209/39 398/208/39 392/199/39
f 407/210/40 413/213/40 412/212/40 406/211/40
f 400/209/47 406/215/47 404/214/47 398/208/47
f 403/193/47 409/217/47 408/216/47 402/192/47
f 401/203/47 407/219/47 406/218/47 400/206/47
f 398/208/47 404/221/47 405/220/47 399/207/47
f 399/207/47 405/223/47 409/222/47 403/193/47
f 412/224/60 418/227/60 416/226/60 410/225/60
f 404/228/37 410/231/37 411/230/37 405/229/37
f 405/229/36 411/230/36 415/233/36 409/232/36
f 408/234/35 414/235/35 413/213/35 407/210/35
f 406/236/39 412/237/39 410/231/39 404/228/39
f 409/232/38 415/233/38 414/235/38 408/234/38
f 416/226/47 422/240/47 423/239/47 417/238/47
f 415/241/61 421/244/61 420/243/61 414/242/61
f 413/245/63 419/248/63 418/247/63 412/246/63
f 410/225/62 416/226/62 417/238/62 411/249/62
f 411/249/65 417/238/65 421/244/65 415/241/65
f 414/242/64 420/243/64 419/248/64 413/245/64
f 427/250/38 433/253/38 432/252/38 426/251/38
f 417/238/47 423/255/47 427/254/47 421/244/47
f 420/243/47 426/257/47 425/256/47 419/248/47
f 418/227/47 424/259/47 422/258/47 416/226/47
f 421/244/47 427/261/47 426/260/47 420/243/47
f 419/248/47 425/263/47 424/262/47 418/247/47
f 429/264/67 435/266/67 439/265/67 433/253/67
f 425/267/40 431/270/40 430/269/40 424/268/40
f 422/271/37 428/273/37 429/264/37 423/272/37
f 423/272/36 429/264/36 433/253/36 427/250/36
f 426/251/35 432/252/35 431/270/35 425/267/35
f 424/274/39 430/275/39 428/273/39 422/271/39
f 432/252/66 438/277/66 437/276/66 431/270/66
f 430/275/68 436/279/68 434/278/68 428/273/68
f 433/253/69 439/265/69 438/277/69 432/252/69
f 431/270/71 437/276/71 436/280/71 430/269/71
f 428/273/70 434/278/70 435/266/70 429/264/70
f 453/281/39 457/284/39 444/283/39 434/282/39
f 440/285/47 443/288/47 442/287/47 441/286/47
f 454/289/39 440/291/39 441/290/39 453/281/39
f 454/289/39 458/293/39 450/292/39 440/291/39
f 452/294/38 442/297/38 443/296/38 455/295/38
f 457/298/74 446/301/74 447/300/74 456/299/74
f 442/287/47 447/300/47 446/301/47 441/286/47
f 434/282/73 444/283/73 445/303/73 439/302/73
f 452/294/38 456/305/38 447/304/38 442/297/38
f 459/306/72 451/309/72 450/308/72 458/307/72
f 440/285/47 450/311/47 451/310/47 443/288/47
f 438/312/73 449/315/73 448/314/73 436/313/73
f 455/295/82 459/316/82 449/315/82 438/312/82
f 443/296/83 451/317/83 459/316/83 455/295/83
f 449/315/84 459/306/84 458/307/84 448/314/84
f 439/302/78 445/303/78 456/305/78 452/294/78
f 444/283/74 457/298/74 456/299/74 445/303/74
f 439/302/78 452/294/78 455/295/78 438/312/78
f 436/313/39 448/314/39 458/293/39 454/289/39
f 436/313/39 454/289/39 453/281/39 434/282/39
f 441/290/39 446/318/39 457/284/39 453/281/39
f 326/319/73 327/65/73 328/66/73 330/320/73
f 329/73/73 325/74/73 326/319/73 330/320/73
f 468/63/31 469/64/31 462/65/31 463/66/31
f 469/67/32 470/68/32 461/69/32 462/70/32
f 471/71/29 467/72/29 464/73/29 460/74/29
f 467/75/30 466/76/30 465/77/30 464/78/30
f 466/76/34 468/79/34 463/80/34 465/77/34
f 470/68/33 471/81/33 460/82/33 461/69/33
f 472/83/37 476/84/37 467/72/37 471/71/37
f 474/85/40 473/86/40 470/68/40 469/67/40
f 475/87/35 474/88/35 469/64/35 468/63/35
f 473/86/39 472/89/39 471/81/39 470/68/39
f 477/90/38 475/91/38 468/79/38 466/76/38
f 476/92/36 477/90/36 466/76/36 467/75/36
f 480/93/43 481/94/43 474/95/43 475/96/43
f 481/94/44 482/97/44 473/98/44 474/95/44
f 483/99/41 479/100/41 476/101/41 472/102/41
f 479/100/42 478/103/42 477/104/42 476/101/42
f 478/103/46 480/105/46 475/106/46 477/104/46
f 482/97/45 483/99/45 472/102/45 473/98/45
f 485/107/39 484/108/39 483/99/39 482/97/39
f 490/109/38 487/110/38 480/105/38 478/103/38
f 487/111/35 486/112/35 481/94/35 480/93/35
f 484/108/37 489/113/37 479/100/37 483/99/37
f 486/112/40 485/107/40 482/97/40 481/94/40
f 489/113/36 490/109/36 478/103/36 479/100/36
f 493/114/47 494/115/47 486/112/47 487/111/47
f 494/116/47 495/117/47 485/107/47 486/112/47
f 496/118/39 495/119/39 501/120/39 502/121/39
f 496/122/47 492/123/47 489/113/47 484/108/47
f 492/124/47 491/125/47 490/109/47 489/113/47
f 491/126/47 493/127/47 487/110/47 490/109/47
f 491/128/38 497/129/38 499/130/38 493/131/38
f 498/132/52 502/133/52 508/134/52 504/135/52
f 495/136/47 496/137/47 484/108/47 485/107/47
f 491/128/36 492/138/36 498/139/36 497/129/36
f 492/138/37 496/118/37 502/121/37 498/139/37
f 495/119/40 494/140/40 500/141/40 501/120/40
f 493/142/35 499/143/35 500/141/35 494/140/35
f 508/134/39 507/144/39 513/145/39 514/146/39
f 501/147/53 500/148/53 506/149/53 507/144/53
f 499/150/51 497/151/51 503/152/51 505/153/51
f 502/133/50 501/147/50 507/144/50 508/134/50
f 500/148/48 499/154/48 505/155/48 506/149/48
f 497/151/49 498/132/49 504/135/49 503/152/49
f 510/156/47 514/146/47 520/157/47 516/158/47
f 506/149/35 505/155/35 511/159/35 512/160/35
f 503/152/36 504/135/36 510/156/36 509/161/36
f 504/135/37 508/134/37 514/146/37 510/156/37
f 507/144/40 506/149/40 512/160/40 513/145/40
f 505/153/38 503/152/38 509/161/38 511/162/38
f 520/163/39 519/164/39 525/165/39 526/166/39
f 513/145/47 512/160/47 518/167/47 519/168/47
f 511/162/47 509/161/47 515/169/47 517/170/47
f 514/146/47 513/145/47 519/171/47 520/172/47
f 512/160/47 511/159/47 517/173/47 518/174/47
f 509/161/47 510/156/47 516/175/47 515/176/47
f 522/177/58 526/178/58 532/179/58 528/180/58
f 518/181/35 517/182/35 523/183/35 524/184/35
f 515/185/36 516/186/36 522/187/36 521/188/36
f 516/186/37 520/163/37 526/166/37 522/187/37
f 519/164/40 518/181/40 524/184/40 525/165/40
f 517/189/38 515/185/38 521/188/38 523/190/38
f 532/179/39 531/191/39 537/192/39 538/193/39
f 525/194/59 524/195/59 530/196/59 531/191/59
f 523/197/57 521/198/57 527/199/57 529/200/57
f 526/178/56 525/194/56 531/191/56 532/179/56
f 524/195/54 523/201/54 529/202/54 530/196/54
f 521/198/55 522/177/55 528/180/55 527/199/55
f 537/192/47 536/203/47 542/204/47 543/205/47
f 530/196/35 529/202/35 535/206/35 536/203/35
f 527/199/36 528/180/36 534/207/36 533/208/36
f 528/180/37 532/179/37 538/193/37 534/207/37
f 531/191/40 530/196/40 536/203/40 537/192/40
f 529/200/38 527/199/38 533/208/38 535/209/38
f 542/210/35 541/211/35 547/212/35 548/213/35
f 535/209/47 533/208/47 539/214/47 541/215/47
f 538/193/47 537/192/47 543/216/47 544/217/47
f 536/203/47 535/206/47 541/218/47 542/219/47
f 533/208/47 534/207/47 540/220/47 539/221/47
f 534/207/47 538/193/47 544/222/47 540/223/47
f 547/224/61 545/225/61 551/226/61 553/227/61
f 539/228/36 540/229/36 546/230/36 545/231/36
f 540/229/37 544/232/37 550/233/37 546/230/37
f 543/234/40 542/210/40 548/213/40 549/235/40
f 541/236/38 539/228/38 545/231/38 547/237/38
f 544/232/39 543/234/39 549/235/39 550/233/39
f 551/226/47 552/238/47 558/239/47 557/240/47
f 550/241/60 549/242/60 555/243/60 556/244/60
f 548/245/64 547/246/64 553/247/64 554/248/64
f 545/225/65 546/249/65 552/238/65 551/226/65
f 546/249/62 550/241/62 556/244/62 552/238/62
f 549/242/63 548/245/63 554/248/63 555/243/63
f 562/250/39 561/251/39 567/252/39 568/253/39
f 552/238/47 556/244/47 562/254/47 558/255/47
f 555/243/47 554/248/47 560/256/47 561/257/47
f 553/227/47 551/226/47 557/258/47 559/259/47
f 556/244/47 555/243/47 561/260/47 562/261/47
f 554/248/47 553/247/47 559/262/47 560/263/47
f 564/264/70 568/253/70 574/265/70 570/266/70
f 560/267/35 559/268/35 565/269/35 566/270/35
f 557/271/36 558/272/36 564/264/36 563/273/36
f 558/272/37 562/250/37 568/253/37 564/264/37
f 561/251/40 560/267/40 566/270/40 567/252/40
f 559/274/38 557/271/38 563/273/38 565/275/38
f 567/252/71 566/270/71 572/276/71 573/277/71
f 565/275/69 563/273/69 569/278/69 571/279/69
f 568/253/68 567/252/68 573/277/68 574/265/68
f 566/270/66 565/269/66 571/280/66 572/276/66
f 563/273/67 564/264/67 570/266/67 569/278/67
f 588/281/38 569/282/38 579/283/38 592/284/38
f 575/285/47 576/286/47 577/287/47 578/288/47
f 589/289/38 588/281/38 576/290/38 575/291/38
f 589/289/38 575/291/38 585/292/38 593/293/38
f 587/294/39 590/295/39 578/296/39 577/297/39
f 592/298/74 591/299/74 582/300/74 581/301/74
f 577/287/47 576/286/47 581/301/47 582/300/47
f 569/282/73 574/302/73 580/303/73 579/283/73
f 587/294/39 577/297/39 582/304/39 591/305/39
f 594/306/72 593/307/72 585/308/72 586/309/72
f 575/285/47 578/288/47 586/310/47 585/311/47
f 573/312/73 571/313/73 583/314/73 584/315/73
f 590/295/85 573/312/85 584/315/85 594/316/85
f 578/296/86 590/295/86 594/316/86 586/317/86
f 584/315/84 583/314/84 593/307/84 594/306/84
f 574/302/81 587/294/81 591/305/81 580/303/81
f 579/283/74 580/303/74 591/299/74 592/298/74
f 574/302/81 573/312/81 590/295/81 587/294/81
f 571/313/38 589/289/38 593/293/38 583/314/38
f 571/313/38 569/282/38 588/281/38 589/289/38
f 576/290/38 588/281/38 592/284/38 581/318/38
f 461/319/73 465/320/73 463/66/73 462/65/73
f 464/73/73 465/320/73 461/319/73 460/74/73
o Cylinder.001
v 2.784436 1.004283 1.013079
v 2.027705 1.004283 1.013079
v 2.784436 1.249379 1.078752
v 2.027705 1.249379 1.078752
v 2.784436 1.428801 1.258175
v 2.027705 1.428801 1.258174
v 2.784436 1.494474 1.503270
v 2.027705 1.494474 1.503270
v 2.784436 1.428801 1.748365
v 2.027705 1.428801 1.748365
v 2.784435 1.249379 1.927788
v 2.027705 1.249379 1.927788
v 2.784435 1.004283 1.993461
v 2.027705 1.004283 1.993461
v 2.784435 0.759188 1.927788
v 2.027705 0.759188 1.927788
v 2.784435 0.579765 1.748365
v 2.027705 0.579766 1.748365
v 2.784435 0.514092 1.503270
v 2.027705 0.514092 1.503270
v 2.784435 0.579765 1.258175
v 2.027705 0.579766 1.258174
v 2.784435 0.759188 1.078752
v 2.027705 0.759188 1.078752
v 1.871257 0.157887 1.849708
v 2.940883 0.157886 1.849709
v 2.940883 0.158610 1.503270
v 1.871257 0.158610 1.503270
v 2.940883 0.157886 1.156831
v 1.871257 0.157887 1.156831
v 2.926577 1.004283 1.013079
v 2.926577 1.249379 1.078752
v 2.926577 1.428801 1.258175
v 2.926577 1.494474 1.503270
v 2.926577 1.428801 1.748365
v 2.926577 1.249379 1.927788
v 2.926577 1.004283 1.993461
v 2.926577 0.759188 1.927788
v 2.926577 0.579765 1.748365
v 2.926577 0.514092 1.503270
v 2.926577 0.579765 1.258175
v 2.926577 0.759188 1.078752
v 3.002683 1.004283 1.184646
v 3.002683 1.163595 1.227334
v 3.002683 1.280220 1.343958
v 3.002683 1.322907 1.503270
v 3.002683 1.280220 1.662582
v 3.002683 1.163595 1.779207
v 3.002683 1.004283 1.821894
v 3.002683 0.844971 1.779207
v 3.002683 0.728347 1.662582
v 3.002683 0.685659 1.503270
v 3.002683 0.728347 1.343958
v 3.002683 0.844971 1.227334
v 1.881110 1.249379 1.078752
v 1.881110 1.004283 1.013079
v 1.881110 1.428801 1.258174
v 1.881110 1.494474 1.503270
v 1.881110 1.428801 1.748365
v 1.881110 1.249379 1.927788
v 1.881110 1.004283 1.993461
v 1.881110 0.759188 1.927788
v 1.881110 0.579766 1.748365
v 1.881110 0.514092 1.503270
v 1.881110 0.579766 1.258174
v 1.881110 0.759188 1.078752
v 1.818932 1.160387 1.232890
v 1.818932 1.004283 1.191062
v 1.818932 1.274663 1.347166
v 1.818932 1.316491 1.503270
v 1.818932 1.274663 1.659374
v 1.818932 1.160387 1.773650
v 1.818932 1.004283 1.815478
v 1.818932 0.848179 1.773650
v 1.818932 0.733903 1.659374
v 1.818932 0.692076 1.503270
v 1.818932 0.733903 1.347166
v 1.818932 0.848179 1.232890
v 2.027705 0.423052 1.258174
v 2.027705 0.416824 1.503270
v 2.784435 0.423052 1.748365
v 2.784435 0.417897 1.503270
v 2.784435 0.423052 1.258175
v 2.027705 0.423052 1.748365
v 1.871257 0.308572 1.156831
v 2.940883 0.308571 1.849709
v 2.940884 0.308571 1.156831
v 1.871257 0.300959 1.503270
v 2.940883 0.302286 1.503270
v 1.871257 0.308572 1.849708
vn -0.0000 0.2588 -0.9659
vn -0.0000 0.7071 -0.7071
vn -0.0000 0.9659 -0.2588
vn -0.0000 0.9659 0.2588
vn -0.0000 0.7071 0.7071
vn -0.0000 0.2588 0.9659
vn -0.0000 -0.2588 0.9659
vn -0.0000 -0.7071 0.7071
vn 1.0000 -0.0000 -0.0000
vn -1.0000 -0.0000 -0.0000
vn -0.0000 -0.7071 -0.7071
vn -0.0000 -0.2588 -0.9659
vn -0.0000 -1.0000 -0.0021
vn -0.0000 -1.0000 0.0021
vn -0.0000 -0.0000 -1.0000
vn -0.0000 -0.0000 1.0000
vn 0.9088 0.4031 -0.1080
vn -0.0000 -0.9659 -0.2588
vn -0.0000 -0.9659 0.2588
vn 0.9088 -0.4031 -0.1080
vn 0.9088 -0.1080 0.4031
vn 0.9088 0.4031 0.1080
vn 0.9088 -0.2951 -0.2951
vn 0.9088 0.1080 -0.4031
vn 0.9088 -0.2951 0.2951
vn 0.9088 0.2951 0.2951
vn 0.9088 -0.1080 -0.4031
vn 0.9088 0.2951 -0.2951
vn 0.9088 -0.4031 0.1080
vn 0.9088 0.1080 0.4031
vn -0.9404 -0.3285 -0.0880
vn -0.9404 -0.0880 0.3285
vn -0.9404 0.3285 0.0880
vn -0.9404 -0.2405 -0.2405
vn -0.9404 0.0880 -0.3285
vn -0.9404 -0.2405 0.2405
vn -0.9404 0.2405 0.2405
vn -0.9404 -0.0880 -0.3285
vn -0.9404 0.2405 -0.2405
vn -0.9404 -0.3285 0.0880
vn -0.9404 0.0880 0.3285
vn -0.9404 0.3285 -0.0880
vn -0.0000 0.6628 0.7488
vn -0.5967 0.8023 -0.0188
vn 0.5956 0.8031 0.0155
vn -0.0000 0.6628 -0.7488
vn -0.5967 0.8023 0.0188
vn 0.5956 0.8031 -0.0155
vt 0.218762 0.111768
vt 0.432338 0.112332
vt 0.432192 0.167610
vt 0.218616 0.167045
vt 0.432046 0.222887
vt 0.218470 0.222323
vt 0.431899 0.278164
vt 0.218324 0.277600
vt 0.431753 0.333442
vt 0.218178 0.332877
vt 0.431607 0.388719
vt 0.218032 0.388155
vt 0.431461 0.443997
vt 0.217886 0.443432
vt 0.431315 0.499274
vt 0.217740 0.498710
vt 0.431169 0.554551
vt 0.217593 0.553987
vt 0.823125 0.451815
vt 0.747566 0.453015
vt 0.747611 0.420256
vt 0.823128 0.420458
vt 0.823103 0.087077
vt 0.898681 0.085633
vt 0.898622 0.118380
vt 0.823099 0.118155
vt 0.472835 0.444106
vt 0.472689 0.499383
vt 0.219055 0.001213
vt 0.432630 0.001777
vt 0.432484 0.057055
vt 0.218908 0.056490
vt 0.177768 0.443326
vt 0.177914 0.388049
vt 0.747611 0.118373
vt 0.898613 0.420261
vt 0.931448 0.118381
vt 0.931439 0.420262
vt 0.898664 0.453010
vt 0.747546 0.085638
vt 0.714784 0.420256
vt 0.714784 0.118373
vt 0.178353 0.222217
vt 0.178207 0.277494
vt 0.136223 0.267709
vt 0.136318 0.231779
vt 0.178061 0.332771
vt 0.178645 0.111662
vt 0.178791 0.056384
vt 0.178499 0.166939
vt 0.178937 0.001107
vt 0.217447 0.609264
vt 0.217301 0.664542
vt 0.177184 0.664436
vt 0.177330 0.609158
vt 0.177476 0.553881
vt 0.177622 0.498604
vt 0.085989 0.703603
vt 0.050059 0.703508
vt 0.018990 0.685461
vt 0.001107 0.654297
vt 0.001202 0.618366
vt 0.019249 0.587297
vt 0.050413 0.569414
vt 0.086344 0.569509
vt 0.117413 0.587557
vt 0.135296 0.618721
vt 0.135201 0.654651
vt 0.117153 0.685720
vt 0.135639 0.488819
vt 0.135734 0.452889
vt 0.136077 0.322987
vt 0.136172 0.287056
vt 0.136808 0.046600
vt 0.136903 0.010669
vt 0.136516 0.157155
vt 0.136611 0.121224
vt 0.135493 0.544096
vt 0.135588 0.508166
vt 0.135931 0.378264
vt 0.136026 0.342334
vt 0.136662 0.101877
vt 0.136757 0.065947
vt 0.136369 0.212432
vt 0.136464 0.176502
vt 0.135347 0.599374
vt 0.135442 0.563443
vt 0.135785 0.433542
vt 0.135880 0.397611
vt 0.472251 0.665216
vt 0.472397 0.609938
vt 0.513730 0.620083
vt 0.513637 0.655290
vt 0.472981 0.388829
vt 0.473128 0.333551
vt 0.473274 0.278274
vt 0.473858 0.057164
vt 0.473712 0.112442
vt 0.473566 0.167719
vt 0.473420 0.222996
vt 0.474004 0.001887
vt 0.430877 0.665106
vt 0.431023 0.609829
vt 0.472543 0.554661
vt 0.596810 0.703603
vt 0.561603 0.703510
vt 0.531160 0.685826
vt 0.531414 0.589639
vt 0.561951 0.572117
vt 0.597158 0.572210
vt 0.627601 0.589894
vt 0.645124 0.620430
vt 0.645031 0.655637
vt 0.627347 0.686080
vt 0.514169 0.454251
vt 0.514076 0.489457
vt 0.514607 0.288419
vt 0.514514 0.323625
vt 0.515338 0.012031
vt 0.515244 0.047238
vt 0.515045 0.122586
vt 0.514952 0.157793
vt 0.514023 0.509528
vt 0.513929 0.544735
vt 0.514461 0.343696
vt 0.514368 0.378903
vt 0.515191 0.067309
vt 0.515098 0.102516
vt 0.514899 0.177864
vt 0.514806 0.213070
vt 0.513876 0.564805
vt 0.513783 0.600012
vt 0.514315 0.398973
vt 0.514222 0.434180
vt 0.514753 0.233141
vt 0.514660 0.268348
vt 0.647338 0.376101
vt 0.647338 0.162528
vt 0.681477 0.162528
vt 0.681477 0.376101
vt 0.769734 0.001119
vt 0.823100 0.015118
vt 0.823102 0.036239
vt 0.769913 0.035194
vt 0.876495 0.537578
vt 0.823128 0.523528
vt 0.823126 0.502629
vt 0.876346 0.503495
vt 0.998893 0.162537
vt 0.998887 0.376109
vt 0.964747 0.376108
vt 0.964754 0.162536
vt 0.876469 0.001107
vt 0.876297 0.035184
vt 0.769759 0.537590
vt 0.769901 0.503505
s 0
usemtl Material.002
f 595/321/87 596/322/87 598/323/87 597/324/87
f 597/324/88 598/323/88 600/325/88 599/326/88
f 599/326/89 600/325/89 602/327/89 601/328/89
f 601/328/90 602/327/90 604/329/90 603/330/90
f 603/330/91 604/329/91 606/331/91 605/332/91
f 605/332/92 606/331/92 608/333/92 607/334/92
f 607/334/93 608/333/93 610/335/93 609/336/93
f 609/336/94 610/335/94 612/337/94 611/338/94
f 683/339/95 680/340/95 620/341/95 621/342/95
f 682/343/96 679/344/96 624/345/96 622/346/96
f 610/335/93 608/333/93 655/347/93 656/348/93
f 615/349/97 616/350/97 618/351/97 617/352/97
f 617/352/98 618/351/98 596/322/98 595/321/98
f 605/332/92 607/334/92 631/353/92 630/354/92
f 620/341/99 619/355/99 622/346/99 621/342/99
f 621/342/100 622/346/100 624/345/100 623/356/100
f 679/357/101 681/358/101 623/356/101 624/345/101
f 681/359/95 683/339/95 621/342/95 623/356/95
f 684/360/96 682/343/96 622/346/96 619/355/96
f 680/361/102 684/362/102 619/355/102 620/341/102
f 627/363/103 628/364/103 640/365/103 639/366/103
f 603/330/91 605/332/91 630/354/91 629/367/91
f 601/328/90 603/330/90 629/367/90 628/364/90
f 617/352/98 595/321/98 625/368/98 636/369/98
f 595/321/87 597/324/87 626/370/87 625/368/87
f 599/326/89 601/328/89 628/364/89 627/363/89
f 615/349/97 617/352/97 636/369/97 635/371/97
f 597/324/88 599/326/88 627/363/88 626/370/88
f 613/372/104 615/373/104 635/374/104 634/375/104
f 611/338/105 613/372/105 634/375/105 633/376/105
f 609/336/94 611/338/94 633/376/94 632/377/94
f 607/334/93 609/336/93 632/377/93 631/353/93
f 637/378/95 638/379/95 639/380/95 640/381/95 641/382/95 642/383/95 643/384/95 644/385/95 645/386/95 646/387/95 647/388/95 648/389/95
f 634/375/106 635/374/106 647/388/106 646/387/106
f 631/353/107 632/377/107 644/390/107 643/391/107
f 628/364/108 629/367/108 641/392/108 640/393/108
f 635/371/109 636/369/109 648/394/109 647/395/109
f 625/368/110 626/370/110 638/396/110 637/397/110
f 632/377/111 633/376/111 645/398/111 644/399/111
f 629/367/112 630/354/112 642/400/112 641/401/112
f 636/369/113 625/368/113 637/402/113 648/403/113
f 626/370/114 627/363/114 639/404/114 638/405/114
f 633/376/115 634/375/115 646/406/115 645/407/115
f 630/354/116 631/353/116 643/408/116 642/409/116
f 659/410/117 658/411/117 670/412/117 671/413/117
f 608/333/92 606/331/92 654/414/92 655/347/92
f 606/331/91 604/329/91 653/415/91 654/414/91
f 604/329/90 602/327/90 652/416/90 653/415/90
f 596/322/98 618/351/98 660/417/98 650/418/98
f 598/323/87 596/322/87 650/418/87 649/419/87
f 602/327/89 600/325/89 651/420/89 652/416/89
f 618/351/97 616/350/97 659/421/97 660/417/97
f 600/325/88 598/323/88 649/419/88 651/420/88
f 616/422/104 614/423/104 658/411/104 659/410/104
f 614/423/105 612/337/105 657/424/105 658/411/105
f 612/337/94 610/335/94 656/348/94 657/424/94
f 661/425/96 662/426/96 672/427/96 671/413/96 670/412/96 669/428/96 668/429/96 667/430/96 666/431/96 665/432/96 664/433/96 663/434/96
f 656/348/118 655/347/118 667/435/118 668/436/118
f 653/415/119 652/416/119 664/437/119 665/438/119
f 660/417/120 659/421/120 671/439/120 672/440/120
f 649/419/121 650/418/121 662/441/121 661/442/121
f 657/424/122 656/348/122 668/443/122 669/444/122
f 654/414/123 653/415/123 665/445/123 666/446/123
f 650/418/124 660/417/124 672/447/124 662/448/124
f 651/420/125 649/419/125 661/449/125 663/450/125
f 658/411/126 657/424/126 669/451/126 670/452/126
f 655/347/127 654/414/127 666/453/127 667/454/127
f 652/416/128 651/420/128 663/455/128 664/456/128
f 611/457/102 612/458/102 678/459/102 675/460/102
f 612/461/96 614/462/96 674/463/96 678/464/96
f 615/465/95 613/466/95 676/467/95 677/468/95
f 616/469/101 615/470/101 677/471/101 673/472/101
f 614/462/96 616/473/96 673/474/96 674/463/96
f 613/466/95 611/475/95 675/476/95 676/467/95
f 675/460/129 678/459/129 684/362/129 680/361/129
f 678/464/130 674/463/130 682/343/130 684/360/130
f 677/468/131 676/467/131 683/339/131 681/359/131
f 673/472/132 677/471/132 681/358/132 679/357/132
f 674/463/133 673/474/133 679/344/133 682/343/133
f 676/467/134 675/476/134 680/340/134 683/339/134
