# Blender 5.1.0
# www.blender.org
mtllib socket800.mtl
o SocketBase.001
v 0.031250 -0.125000 -0.125000
v 0.031250 -0.125000 0.125000
v 0.031250 0.125000 -0.125000
v 0.031250 0.125000 0.125000
v 0.031250 -0.091403 -0.033414
v 0.031250 -0.091497 0.033156
v 0.031250 -0.048779 0.084212
v 0.031250 0.016764 0.095865
v 0.031250 -0.048540 -0.084350
v 0.031250 0.017035 -0.095817
v 0.031250 0.074462 0.062661
v 0.031250 0.097876 -0.061407
v 0.031250 0.097699 0.063704
v 0.031250 0.074639 -0.062450
v 0.000000 -0.156250 -0.156250
v 0.000000 -0.156250 0.156250
v 0.000000 0.156250 -0.156250
v 0.000000 0.156250 0.156250
v 0.031250 -0.125000 -0.125000
v 0.031250 -0.125000 0.125000
v 0.031250 0.125000 -0.125000
v 0.031250 0.125000 0.125000
vn 1.0000 -0.0000 -0.0000
vn -1.0000 -0.0000 -0.0000
vn 0.7071 -0.0000 0.7071
vn 0.7071 -0.7071 -0.0000
vn 0.7071 0.7071 -0.0000
vn 0.7071 -0.0000 -0.7071
vt 0.971577 0.941641
vt 0.929189 0.650340
vt 0.971577 0.550962
vt 0.580899 0.941641
vt 0.580899 0.550963
vt 0.633401 0.694084
vt 0.505786 0.501459
vt 0.502721 0.989798
vt 0.014383 0.986733
vt 0.017448 0.498394
vt 0.081797 0.430359
vt 0.436990 0.436652
vt 0.014383 0.010202
vt 0.083179 0.075010
vt 0.438372 0.081303
vt 0.502721 0.013267
vt 0.928913 0.845853
vt 0.892601 0.844223
vt 0.892878 0.648710
vt 0.802858 0.596567
vt 0.802435 0.896111
vt 0.700010 0.877901
vt 0.700383 0.614487
vt 0.633254 0.798115
s 0
usemtl None
f 4/1/1 12/2/1 3/3/1
f 2/4/1 1/5/1 5/6/1
f 18/7/2 17/8/2 15/9/2
f 16/10/3 20/11/3 22/12/3
f 15/13/4 19/14/4 20/11/4
f 18/7/5 22/12/5 21/15/5
f 17/16/6 21/15/6 19/14/6
f 16/10/2 18/7/2 15/9/2
f 18/7/3 16/10/3 22/12/3
f 16/10/4 15/13/4 20/11/4
f 17/16/5 18/7/5 21/15/5
f 15/13/6 17/16/6 19/14/6
f 4/1/1 13/17/1 12/2/1
f 11/18/1 13/17/1 4/1/1
f 3/3/1 12/2/1 14/19/1
f 3/3/1 14/19/1 10/20/1
f 8/21/1 11/18/1 4/1/1
f 7/22/1 8/21/1 4/1/1
f 1/5/1 3/3/1 10/20/1
f 1/5/1 10/20/1 9/23/1
f 7/22/1 4/1/1 2/4/1
f 6/24/1 7/22/1 2/4/1
f 1/5/1 9/23/1 5/6/1
f 5/6/1 6/24/1 2/4/1
o Cylinder
v 0.018708 0.016764 0.095865
v 0.076438 0.016764 0.095865
v 0.018708 0.074462 0.062661
v 0.076438 0.074462 0.062661
v 0.018708 0.097319 0.000138
v 0.076438 0.097319 0.000138
v 0.018708 0.074639 -0.062450
v 0.076438 0.074639 -0.062450
v 0.018708 0.017035 -0.095817
v 0.076438 0.017035 -0.095817
v 0.018708 -0.048540 -0.084350
v 0.076438 -0.048540 -0.084350
v 0.018708 -0.091403 -0.033414
v 0.076438 -0.091403 -0.033414
v 0.018708 -0.091497 0.033156
v 0.076438 -0.091497 0.033156
v 0.018708 -0.048779 0.084212
v 0.076438 -0.048779 0.084212
v 0.076438 0.097699 0.063704
v 0.018708 0.097699 0.063704
v 0.018708 0.097899 0.000173
v 0.076438 0.097899 0.000173
v 0.018708 0.097876 -0.061407
v 0.076438 0.097876 -0.061407
v 0.076438 0.048619 0.048619
v 0.076438 0.068758 0.000000
v 0.076438 -0.068758 0.000000
v 0.076438 -0.048619 0.048619
v 0.076438 0.000000 0.068758
v 0.076438 -0.048619 -0.048619
v 0.076438 0.000000 -0.068758
v 0.076438 0.048619 -0.048619
v 0.018708 -0.048619 0.048619
v 0.018708 -0.000000 0.068758
v 0.018708 -0.000000 -0.068758
v 0.018708 0.068758 -0.000000
v 0.018708 0.048619 -0.048619
v 0.018708 -0.068758 -0.000000
v 0.018708 0.048619 0.048619
v 0.018708 -0.048619 -0.048619
v 0.136746 0.120781 -0.089052
v 0.125973 0.139441 -0.089052
v 0.193973 0.153821 -0.061682
v 0.183199 0.172481 -0.061682
v 0.217677 0.167506 0.004398
v 0.206903 0.186166 0.004398
v 0.193973 0.153821 0.070477
v 0.183199 0.172481 0.070477
v 0.136746 0.120781 0.097848
v 0.125973 0.139441 0.097848
v 0.079520 0.087741 0.070477
v 0.068747 0.106401 0.070477
v 0.055816 0.074056 0.004398
v 0.045043 0.092716 0.004398
v 0.079520 0.087741 -0.061681
v 0.068747 0.106401 -0.061682
v 0.018755 -0.000000 -0.042408
v 0.063322 0.000000 -0.042408
v 0.018755 -0.009983 -0.035154
v 0.063322 -0.009983 -0.035154
v 0.018755 -0.006170 -0.023418
v 0.063322 -0.006170 -0.023418
v 0.018755 0.006170 -0.023418
v 0.063322 0.006170 -0.023418
v 0.018755 0.009983 -0.035154
v 0.063322 0.009983 -0.035154
v 0.018755 0.036726 0.021204
v 0.063322 0.036726 0.021204
v 0.018755 0.035436 0.008932
v 0.063322 0.035436 0.008932
v 0.018755 0.023366 0.006366
v 0.063322 0.023366 0.006366
v 0.018755 0.017196 0.017053
v 0.063322 0.017196 0.017053
v 0.018755 0.025453 0.026223
v 0.063322 0.025453 0.026223
v 0.018755 -0.036726 0.021204
v 0.063322 -0.036726 0.021204
v 0.018755 -0.025453 0.026223
v 0.063322 -0.025453 0.026223
v 0.018755 -0.017196 0.017053
v 0.063322 -0.017196 0.017053
v 0.018755 -0.023366 0.006366
v 0.063322 -0.023366 0.006366
v 0.018755 -0.035436 0.008932
v 0.063322 -0.035436 0.008932
vn -0.0000 0.4988 0.8667
vn -1.0000 -0.0000 -0.0000
vn -0.0000 0.0448 -0.9990
vn -0.0000 0.5012 -0.8653
vn -0.0000 -0.1723 -0.9851
vn -0.0000 -0.7651 -0.6439
vn -0.0000 -1.0000 -0.0014
vn 1.0000 -0.0000 -0.0000
vn -0.0000 -0.7670 0.6417
vn -0.0000 -0.1750 0.9846
vn -0.0000 1.0000 0.0032
vn -0.0000 1.0000 -0.0004
vn -0.0000 -0.0448 0.9990
vn -0.0000 0.3827 0.9239
vn -0.0000 0.9239 0.3827
vn -0.0000 0.9239 -0.3827
vn -0.0000 0.3827 -0.9239
vn -0.0000 -0.3827 -0.9239
vn -0.0000 -0.9239 -0.3827
vn -0.0000 -0.9239 0.3827
vn -0.0000 -0.3827 0.9239
vn 0.3314 0.1913 -0.9239
vn 0.8001 0.4619 -0.3827
vn 0.8001 0.4619 0.3827
vn 0.3314 0.1913 0.9239
vn -0.3314 -0.1913 0.9239
vn -0.8001 -0.4619 0.3827
vn -0.5000 0.8660 -0.0000
vn -0.8001 -0.4619 -0.3827
vn -0.3314 -0.1913 -0.9239
vn 0.5000 -0.8660 -0.0000
vn -0.0000 -0.5878 -0.8090
vn -0.0000 -0.9511 0.3090
vn -0.0000 -0.0000 1.0000
vn -0.0000 0.9511 0.3090
vn -0.0000 0.5878 -0.8090
vn -0.0000 0.9945 -0.1045
vn -0.0000 0.2079 -0.9781
vn -0.0000 -0.8660 -0.5000
vn -0.0000 -0.7431 0.6691
vn -0.0000 0.4067 0.9135
vn -0.0000 -0.4067 0.9135
vn -0.0000 0.7431 0.6691
vn -0.0000 0.8660 -0.5000
vn -0.0000 -0.2079 -0.9781
vn -0.0000 -0.9945 -0.1045
vt 0.806560 0.498829
vt 0.615600 0.564141
vt 0.615600 0.498829
vt 0.897344 0.828943
vt 0.897010 0.785168
vt 0.913538 0.784449
vt 0.615600 0.106956
vt 0.806560 0.084136
vt 0.806560 0.106956
vt 0.615600 0.172268
vt 0.806560 0.172268
vt 0.615600 0.237580
vt 0.806560 0.237580
vt 0.615600 0.302892
vt 0.806560 0.302892
vt 0.615600 0.368205
vt 0.515991 0.860525
vt 0.538254 0.827965
vt 0.558080 0.875637
vt 0.678855 0.766496
vt 0.673171 0.827774
vt 0.653345 0.780102
vt 0.806560 0.368205
vt 0.615600 0.433517
vt 0.806560 0.433517
vt 0.702326 0.860525
vt 0.724589 0.827774
vt 0.744280 0.875502
vt 0.880265 0.784449
vt 0.880390 0.873437
vt 0.876207 0.829018
vt 0.615600 0.586961
vt 0.806560 0.649291
vt 0.615600 0.649291
vt 0.806560 0.023720
vt 0.615600 0.084136
vt 0.615600 0.023720
vt 0.701193 0.827869
vt 0.701653 0.890234
vt 0.678855 0.889243
vt 0.806560 0.564141
vt 0.701653 0.767487
vt 0.701761 0.827904
vt 0.897010 0.874156
vt 0.896931 0.828968
vt 0.807124 0.597728
vt 0.858755 0.406768
vt 0.858755 0.597728
vt 0.963144 0.214679
vt 0.911514 0.023720
vt 0.963144 0.023720
vt 0.858755 0.214680
vt 0.807124 0.023720
vt 0.858755 0.023720
vt 0.963144 0.406204
vt 0.911514 0.215244
vt 0.963144 0.215244
vt 0.858755 0.406204
vt 0.807124 0.215244
vt 0.858755 0.215244
vt 0.859319 0.406204
vt 0.910949 0.215244
vt 0.910949 0.406204
vt 0.859319 0.214680
vt 0.910949 0.023720
vt 0.910949 0.214680
vt 0.859319 0.597728
vt 0.910949 0.406768
vt 0.910949 0.597728
vt 0.315100 0.805337
vt 0.403239 0.768829
vt 0.439747 0.856967
vt 0.404168 0.480942
vt 0.354698 0.587609
vt 0.327528 0.596913
vt 0.330264 0.656994
vt 0.303094 0.666299
vt 0.145446 0.117314
vt 0.180116 0.166460
vt 0.118276 0.126619
vt 0.207286 0.157155
vt 0.311759 0.211102
vt 0.338929 0.201798
vt 0.443402 0.255745
vt 0.470572 0.246440
vt 0.505242 0.295586
vt 0.532412 0.073998
vt 0.346240 0.160970
vt 0.507978 0.355667
vt 0.480808 0.364971
vt 0.431338 0.471638
vt 0.265331 0.428276
vt 0.176949 0.457042
vt 0.098978 0.911655
vt 0.086872 0.764238
vt 0.098978 0.764238
vt 0.086872 0.911655
vt 0.074765 0.764238
vt 0.062659 0.911655
vt 0.062659 0.764238
vt 0.038445 0.911655
vt 0.054293 0.923169
vt 0.044498 0.930285
vt 0.050552 0.764238
vt 0.038445 0.764238
vt 0.034704 0.752724
vt 0.054293 0.752724
vt 0.232691 0.765312
vt 0.220585 0.912728
vt 0.220585 0.765312
vt 0.208478 0.912728
vt 0.208478 0.765312
vt 0.269011 0.912728
vt 0.256905 0.765312
vt 0.269011 0.765312
vt 0.224326 0.924242
vt 0.204737 0.924242
vt 0.256905 0.912728
vt 0.244798 0.765312
vt 0.232691 0.912728
vt 0.204737 0.753798
vt 0.214531 0.746682
vt 0.174840 0.912728
vt 0.162734 0.765312
vt 0.174840 0.765312
vt 0.150627 0.912728
vt 0.150627 0.765312
vt 0.138520 0.912728
vt 0.138520 0.765312
vt 0.122673 0.924242
vt 0.142262 0.924242
vt 0.126414 0.765312
vt 0.186947 0.912728
vt 0.186947 0.765312
vt 0.132467 0.746682
vt 0.653480 0.875502
vt 0.622293 0.921899
vt 0.557973 0.910557
vt 0.515991 0.795213
vt 0.557973 0.745181
vt 0.622293 0.733840
vt 0.605617 0.760411
vt 0.605808 0.895327
vt 0.557945 0.780237
vt 0.839680 0.875637
vt 0.865189 0.889243
vt 0.808627 0.921899
vt 0.744307 0.910557
vt 0.702326 0.795213
vt 0.744307 0.745181
vt 0.808627 0.733840
vt 0.865189 0.766496
vt 0.839815 0.780237
vt 0.792143 0.760411
vt 0.791952 0.895327
vt 0.744415 0.780102
vt 0.861883 0.794437
vt 0.896522 0.828920
vt 0.861883 0.863600
vt 0.806560 0.586961
vt 0.913538 0.873438
vt 0.807124 0.406768
vt 0.911514 0.214679
vt 0.807124 0.214680
vt 0.911514 0.406204
vt 0.807124 0.406204
vt 0.859319 0.215244
vt 0.859319 0.023720
vt 0.859319 0.406768
vt 0.403239 0.893475
vt 0.351608 0.893475
vt 0.315100 0.856967
vt 0.351608 0.768829
vt 0.439747 0.805337
vt 0.532412 0.286281
vt 0.196946 0.064786
vt 0.331618 0.030342
vt 0.470572 0.034157
vt 0.480912 0.126526
vt 0.116037 0.332092
vt 0.091734 0.195226
vt 0.241028 0.291410
vt 0.238788 0.496883
vt 0.074765 0.911655
vt 0.034704 0.923169
vt 0.050552 0.911655
vt 0.044499 0.745608
vt 0.214531 0.931358
vt 0.244798 0.912728
vt 0.224326 0.753798
vt 0.162734 0.912728
vt 0.132467 0.931358
vt 0.126414 0.912728
vt 0.122673 0.753798
vt 0.142262 0.753798
s 0
usemtl Material.001
f 24/25/7 25/26/7 23/27/7
f 27/28/8 45/29/8 29/30/8
f 29/31/9 46/32/9 30/33/9
f 30/33/10 31/34/10 29/31/10
f 32/35/11 33/36/11 31/34/11
f 34/37/12 35/38/12 33/36/12
f 36/39/13 37/40/13 35/38/13
f 38/41/14 49/42/14 50/43/14
f 30/44/14 48/45/14 54/46/14
f 38/47/15 39/48/15 37/40/15
f 40/49/16 23/27/16 39/48/16
f 35/50/8 60/51/8 62/52/8
f 25/53/8 29/54/8 58/55/8
f 42/56/17 44/57/17 43/58/17
f 44/59/18 45/60/18 43/61/18
f 28/62/14 41/63/14 26/64/14
f 26/65/19 42/56/19 25/26/19
f 28/62/14 46/66/14 44/67/14
f 27/28/8 42/68/8 43/69/8
f 53/70/20 62/71/20 52/72/20
f 49/73/21 62/74/21 60/75/21
f 50/76/22 60/77/22 55/78/22
f 51/79/23 55/80/23 56/81/23
f 47/82/24 56/83/24 61/84/24
f 47/85/25 58/86/25 48/87/25
f 48/88/26 59/89/26 54/90/26
f 54/91/27 57/92/27 53/93/27
f 62/94/14 59/95/14 61/96/14
f 63/97/28 66/98/28 65/99/28
f 65/99/29 68/100/29 67/101/29
f 68/102/30 69/103/30 67/104/30
f 70/105/31 71/106/31 69/103/31
f 72/107/32 73/108/32 71/106/32
f 74/109/33 75/110/33 73/108/33
f 76/111/34 72/112/34 68/102/34
f 75/110/35 78/113/35 77/114/35
f 77/114/36 64/115/36 63/97/36
f 69/103/37 73/116/37 77/117/37
f 80/118/38 81/119/38 79/120/38
f 82/121/39 83/122/39 81/119/39
f 83/122/40 86/123/40 85/124/40
f 80/125/14 86/126/14 84/127/14
f 86/123/41 87/128/41 85/124/41
f 87/128/42 80/125/42 79/129/42
f 81/130/8 85/131/8 87/128/8
f 89/132/43 92/133/43 91/134/43
f 91/134/44 94/135/44 93/136/44
f 94/137/45 95/138/45 93/139/45
f 90/140/14 96/141/14 94/135/14
f 96/142/46 97/143/46 95/138/46
f 97/143/47 90/144/47 89/132/47
f 91/134/8 95/145/8 97/146/8
f 100/147/48 101/148/48 99/149/48
f 101/148/49 104/150/49 103/151/49
f 103/151/50 106/152/50 105/153/50
f 100/154/14 106/152/14 104/155/14
f 106/152/51 107/156/51 105/153/51
f 108/157/52 99/149/52 107/158/52
f 101/159/8 105/153/8 107/156/8
f 24/25/7 26/65/7 25/26/7
f 27/28/8 43/69/8 45/29/8
f 29/31/9 45/60/9 46/32/9
f 30/33/10 32/35/10 31/34/10
f 32/35/11 34/37/11 33/36/11
f 34/37/12 36/39/12 35/38/12
f 36/39/13 38/47/13 37/40/13
f 47/160/14 48/45/14 28/62/14
f 28/62/14 26/64/14 24/161/14
f 24/161/14 40/162/14 38/41/14
f 38/41/14 36/163/14 34/164/14
f 34/164/14 32/165/14 30/44/14
f 30/44/14 54/46/14 53/166/14
f 34/164/14 30/44/14 53/166/14
f 47/160/14 28/62/14 24/161/14
f 51/167/14 47/160/14 24/161/14
f 34/164/14 53/166/14 52/168/14
f 34/164/14 52/168/14 49/42/14
f 51/167/14 24/161/14 38/41/14
f 50/43/14 51/167/14 38/41/14
f 38/41/14 34/164/14 49/42/14
f 30/44/14 28/62/14 48/45/14
f 38/47/15 40/49/15 39/48/15
f 40/49/16 24/25/16 23/27/16
f 59/169/8 29/170/8 31/171/8
f 31/171/8 33/172/8 35/50/8
f 35/50/8 37/173/8 39/174/8
f 39/174/8 23/175/8 25/176/8
f 25/176/8 61/177/8 56/178/8
f 39/174/8 25/176/8 56/178/8
f 57/179/8 59/169/8 31/171/8
f 62/52/8 57/179/8 31/171/8
f 39/174/8 56/178/8 55/180/8
f 39/174/8 55/180/8 60/51/8
f 62/52/8 31/171/8 35/50/8
f 35/50/8 39/174/8 60/51/8
f 58/55/8 61/181/8 25/53/8
f 25/53/8 27/182/8 29/54/8
f 29/54/8 59/183/8 58/55/8
f 42/56/17 41/184/17 44/57/17
f 44/59/18 46/32/18 45/60/18
f 28/62/14 44/67/14 41/63/14
f 26/65/19 41/184/19 42/56/19
f 28/62/14 30/44/14 46/66/14
f 27/28/8 25/185/8 42/68/8
f 53/70/20 57/186/20 62/71/20
f 49/73/21 52/187/21 62/74/21
f 50/76/22 49/188/22 60/77/22
f 51/79/23 50/189/23 55/80/23
f 47/82/24 51/190/24 56/83/24
f 47/85/25 61/191/25 58/86/25
f 48/88/26 58/192/26 59/89/26
f 54/91/27 59/193/27 57/92/27
f 61/96/14 56/194/14 55/195/14
f 55/195/14 60/196/14 62/94/14
f 62/94/14 57/197/14 59/95/14
f 59/95/14 58/198/14 61/96/14
f 61/96/14 55/195/14 62/94/14
f 63/97/28 64/115/28 66/98/28
f 65/99/29 66/98/29 68/100/29
f 68/102/30 70/105/30 69/103/30
f 70/105/31 72/107/31 71/106/31
f 72/107/32 74/109/32 73/108/32
f 74/109/33 76/199/33 75/110/33
f 68/102/34 66/200/34 64/201/34
f 64/201/34 78/202/34 76/111/34
f 76/111/34 74/203/34 72/112/34
f 72/112/34 70/105/34 68/102/34
f 68/102/34 64/201/34 76/111/34
f 75/110/35 76/199/35 78/113/35
f 77/114/36 78/113/36 64/115/36
f 77/117/37 63/204/37 65/205/37
f 65/205/37 67/104/37 69/103/37
f 69/103/37 71/206/37 73/116/37
f 73/116/37 75/207/37 77/117/37
f 77/117/37 65/205/37 69/103/37
f 80/118/38 82/121/38 81/119/38
f 82/121/39 84/208/39 83/122/39
f 83/122/40 84/208/40 86/123/40
f 84/127/14 82/209/14 80/125/14
f 80/125/14 88/210/14 86/126/14
f 86/123/41 88/210/41 87/128/41
f 87/128/42 88/210/42 80/125/42
f 87/128/8 79/129/8 81/130/8
f 81/130/8 83/211/8 85/131/8
f 89/132/43 90/144/43 92/133/43
f 91/134/44 92/133/44 94/135/44
f 94/137/45 96/142/45 95/138/45
f 94/135/14 92/133/14 90/140/14
f 90/140/14 98/212/14 96/141/14
f 96/142/46 98/213/46 97/143/46
f 97/143/47 98/213/47 90/144/47
f 97/146/8 89/214/8 91/134/8
f 91/134/8 93/136/8 95/145/8
f 100/147/48 102/215/48 101/148/48
f 101/148/49 102/215/49 104/150/49
f 103/151/50 104/150/50 106/152/50
f 104/155/14 102/216/14 100/154/14
f 100/154/14 108/217/14 106/152/14
f 106/152/51 108/217/51 107/156/51
f 108/157/52 100/147/52 99/149/52
f 107/156/8 99/218/8 101/159/8
f 101/159/8 103/219/8 105/153/8
