# Blender 5.1.0
# www.blender.org
mtllib stirling_engine_static.mtl
o Cylinder.002
v -0.571945 -0.369075 0.165496
v -0.491073 -0.323068 0.165496
v -0.576168 -0.361652 0.128019
v -0.495296 -0.315645 0.128019
v -0.587704 -0.341373 0.100585
v -0.506833 -0.295366 0.100585
v -0.603464 -0.313671 0.090543
v -0.522592 -0.267664 0.090543
v -0.619223 -0.285969 0.100585
v -0.538351 -0.239962 0.100585
v -0.630760 -0.265690 0.128019
v -0.549888 -0.219683 0.128019
v -0.634983 -0.258267 0.165496
v -0.554111 -0.212260 0.165496
v -0.630760 -0.265690 0.202972
v -0.549888 -0.219683 0.202972
v -0.619223 -0.285969 0.230406
v -0.538351 -0.239962 0.230406
v -0.603464 -0.313671 0.240448
v -0.522592 -0.267664 0.240448
v -0.587704 -0.341373 0.230406
v -0.506833 -0.295366 0.230406
v -0.576168 -0.361652 0.202972
v -0.495296 -0.315645 0.202972
v -0.316461 -0.031526 0.165524
v -0.438123 -0.097777 0.165524
v -0.309255 -0.044192 0.111143
v -0.430918 -0.110442 0.111143
v -0.289571 -0.078794 0.071334
v -0.411233 -0.145044 0.071334
v -0.262680 -0.126061 0.056762
v -0.384343 -0.192312 0.056762
v -0.235790 -0.173329 0.071334
v -0.357453 -0.239579 0.071334
v -0.216105 -0.207931 0.111143
v -0.337768 -0.274181 0.111143
v -0.208900 -0.220596 0.165524
v -0.330563 -0.286847 0.165524
v -0.216105 -0.207931 0.219905
v -0.337768 -0.274181 0.219905
v -0.235790 -0.173329 0.259715
v -0.357453 -0.239579 0.259715
v -0.262680 -0.126061 0.274286
v -0.384343 -0.192312 0.274286
v -0.289571 -0.078794 0.259715
v -0.411233 -0.145044 0.259715
v -0.309255 -0.044192 0.219905
v -0.430918 -0.110442 0.219905
v -0.310029 -0.042831 0.165524
v -0.303686 -0.053982 0.117647
v -0.286355 -0.084446 0.082598
v -0.262680 -0.126061 0.069769
v -0.239006 -0.167676 0.082598
v -0.221675 -0.198141 0.117647
v -0.215332 -0.209291 0.165524
v -0.221675 -0.198141 0.213402
v -0.239006 -0.167676 0.248451
v -0.262680 -0.126061 0.261280
v -0.286355 -0.084446 0.248451
v -0.303686 -0.053982 0.213402
v -0.516177 -0.158056 0.165524
v -0.509833 -0.169207 0.117647
v -0.492502 -0.199671 0.082598
v -0.468828 -0.241286 0.069769
v -0.445153 -0.282901 0.082598
v -0.427823 -0.313365 0.117647
v -0.421479 -0.324516 0.165524
v -0.427823 -0.313365 0.213402
v -0.445153 -0.282901 0.248451
v -0.468828 -0.241286 0.261280
v -0.492502 -0.199671 0.248451
v -0.509833 -0.169207 0.213402
v -0.534998 -0.169652 0.111143
v -0.542204 -0.156987 0.165524
v -0.515314 -0.204254 0.071334
v -0.488423 -0.251522 0.056762
v -0.461533 -0.298789 0.071334
v -0.441849 -0.333392 0.111143
v -0.434643 -0.346057 0.165524
v -0.441849 -0.333392 0.219905
v -0.461533 -0.298789 0.259715
v -0.488423 -0.251522 0.274286
v -0.515314 -0.204254 0.259715
v -0.534998 -0.169652 0.219905
v -0.526161 -0.231104 0.144504
v -0.528946 -0.226208 0.165524
v -0.518553 -0.244479 0.129117
v -0.508159 -0.262749 0.123485
v -0.497765 -0.281019 0.129117
v -0.490156 -0.294394 0.144504
v -0.487371 -0.299290 0.165524
v -0.490156 -0.294394 0.186544
v -0.497765 -0.281019 0.201932
v -0.508159 -0.262749 0.207564
v -0.518553 -0.244479 0.201932
v -0.526161 -0.231104 0.186544
v -0.573275 -0.257906 0.144504
v -0.576060 -0.253011 0.165524
v -0.565666 -0.271281 0.129117
v -0.555272 -0.289551 0.123485
v -0.544878 -0.307822 0.129117
v -0.537270 -0.321197 0.144504
v -0.534485 -0.326092 0.165524
v -0.537270 -0.321197 0.186544
v -0.544878 -0.307822 0.201932
v -0.555272 -0.289551 0.207564
v -0.565666 -0.271281 0.201932
v -0.573275 -0.257906 0.186544
v -0.484572 -0.499135 0.014367
v 0.002060 -0.499135 -0.001581
v -0.484571 -0.493924 -0.005081
v 0.002060 -0.493924 -0.021029
v -0.484571 -0.479687 -0.019318
v 0.005368 -0.479687 -0.035761
v -0.484571 -0.460239 -0.024529
v 0.002060 -0.460239 -0.040477
v -0.484571 -0.440791 -0.019318
v 0.002060 -0.440790 -0.035266
v -0.484571 -0.426553 -0.005081
v 0.002060 -0.426553 -0.021029
v -0.484571 -0.421342 0.014367
v 0.002060 -0.421342 -0.001581
v -0.484571 -0.426553 0.033815
v 0.002060 -0.426553 0.017867
v -0.484571 -0.440791 0.048052
v 0.002060 -0.440790 0.032104
v -0.484571 -0.460239 0.053263
v 0.002060 -0.460239 0.037315
v -0.484571 -0.479687 0.048052
v -0.001249 -0.479687 0.032599
v -0.484571 -0.493924 0.033815
v 0.002060 -0.493924 0.017867
v -0.562181 -0.499135 0.063115
v -0.574664 -0.493924 0.048202
v -0.583802 -0.479687 0.037285
v -0.587147 -0.460239 0.033289
v -0.583802 -0.440791 0.037285
v -0.574664 -0.426553 0.048202
v -0.562181 -0.421342 0.063116
v -0.549697 -0.426553 0.078029
v -0.540559 -0.440791 0.088946
v -0.537214 -0.460239 0.092942
v -0.540559 -0.479687 0.088946
v -0.549697 -0.493924 0.078029
v -0.605257 -0.499135 0.099173
v -0.622946 -0.493924 0.091091
v -0.635896 -0.479687 0.085175
v -0.640636 -0.460239 0.083010
v -0.635896 -0.440791 0.085175
v -0.622946 -0.426553 0.091091
v -0.605257 -0.421342 0.099173
v -0.587567 -0.426554 0.107255
v -0.574618 -0.440791 0.113171
v -0.569878 -0.460239 0.115336
v -0.574618 -0.479687 0.113171
v -0.587567 -0.493924 0.107255
v -0.638541 -0.472478 0.170450
v -0.655635 -0.469515 0.160232
v -0.665900 -0.459876 0.145841
v -0.666585 -0.446143 0.131133
v -0.657507 -0.431997 0.120048
v -0.641098 -0.421228 0.115558
v -0.621755 -0.416721 0.118864
v -0.604662 -0.419684 0.129082
v -0.594397 -0.429323 0.143474
v -0.593712 -0.443056 0.158182
v -0.602790 -0.457202 0.169266
v -0.619198 -0.467971 0.173757
v -0.646401 -0.372293 0.202143
v -0.660198 -0.366283 0.188767
v -0.665416 -0.362124 0.169771
v -0.660656 -0.360930 0.150243
v -0.647195 -0.363023 0.135418
v -0.628542 -0.367489 0.129266
v -0.609863 -0.373741 0.133437
v -0.596162 -0.380102 0.146813
v -0.590945 -0.384261 0.165809
v -0.595704 -0.385454 0.185336
v -0.609166 -0.383362 0.200162
v -0.627722 -0.378545 0.206313
v -0.596047 -0.293370 0.199911
v -0.603454 -0.280814 0.186023
v -0.605147 -0.275135 0.166780
v -0.600673 -0.277856 0.147339
v -0.591230 -0.288248 0.132908
v -0.579349 -0.303525 0.127355
v -0.568213 -0.319594 0.132167
v -0.560806 -0.332150 0.146055
v -0.559113 -0.337828 0.165297
v -0.563587 -0.335107 0.184738
v -0.573030 -0.324716 0.199169
v -0.584911 -0.309439 0.204723
v 0.576064 -0.369075 -0.168658
v 0.495193 -0.323068 -0.168658
v 0.580287 -0.361653 -0.131181
v 0.499415 -0.315646 -0.131181
v 0.591824 -0.341373 -0.103747
v 0.510952 -0.295366 -0.103747
v 0.607583 -0.313672 -0.093705
v 0.526711 -0.267664 -0.093705
v 0.623343 -0.285969 -0.103747
v 0.542471 -0.239962 -0.103747
v 0.634879 -0.265690 -0.131181
v 0.554008 -0.219683 -0.131181
v 0.639102 -0.258267 -0.168658
v 0.558230 -0.212260 -0.168658
v 0.634879 -0.265690 -0.206134
v 0.554008 -0.219683 -0.206134
v 0.623343 -0.285969 -0.233568
v 0.542471 -0.239962 -0.233568
v 0.607583 -0.313672 -0.243610
v 0.526711 -0.267664 -0.243610
v 0.591824 -0.341373 -0.233568
v 0.510952 -0.295366 -0.233568
v 0.580287 -0.361653 -0.206134
v 0.499415 -0.315646 -0.206134
v 0.320580 -0.031526 -0.168686
v 0.442243 -0.097777 -0.168686
v 0.313375 -0.044192 -0.114305
v 0.435038 -0.110442 -0.114305
v 0.293690 -0.078794 -0.074496
v 0.415353 -0.145044 -0.074496
v 0.266800 -0.126061 -0.059924
v 0.388463 -0.192312 -0.059924
v 0.239910 -0.173329 -0.074496
v 0.361573 -0.239579 -0.074496
v 0.220225 -0.207931 -0.114305
v 0.341888 -0.274181 -0.114305
v 0.213020 -0.220596 -0.168686
v 0.334682 -0.286847 -0.168686
v 0.220225 -0.207931 -0.223067
v 0.341888 -0.274181 -0.223067
v 0.239910 -0.173329 -0.262877
v 0.361573 -0.239579 -0.262877
v 0.266800 -0.126061 -0.277448
v 0.388463 -0.192312 -0.277448
v 0.293690 -0.078794 -0.262877
v 0.415353 -0.145044 -0.262877
v 0.313375 -0.044192 -0.223067
v 0.435038 -0.110442 -0.223067
v 0.314149 -0.042831 -0.168686
v 0.307805 -0.053982 -0.120809
v 0.290474 -0.084446 -0.085760
v 0.266800 -0.126061 -0.072931
v 0.243126 -0.167676 -0.085760
v 0.225795 -0.198141 -0.120809
v 0.219451 -0.209291 -0.168686
v 0.225795 -0.198141 -0.216564
v 0.243126 -0.167676 -0.251613
v 0.266800 -0.126061 -0.264442
v 0.290474 -0.084446 -0.251613
v 0.307805 -0.053982 -0.216564
v 0.520296 -0.158056 -0.168686
v 0.513952 -0.169207 -0.120809
v 0.496622 -0.199671 -0.085760
v 0.472947 -0.241286 -0.072931
v 0.449273 -0.282901 -0.085760
v 0.431942 -0.313365 -0.120809
v 0.425598 -0.324516 -0.168686
v 0.431942 -0.313365 -0.216564
v 0.449273 -0.282901 -0.251613
v 0.472947 -0.241286 -0.264442
v 0.496622 -0.199671 -0.251613
v 0.513952 -0.169207 -0.216564
v 0.539118 -0.169652 -0.114305
v 0.546323 -0.156987 -0.168686
v 0.519433 -0.204255 -0.074496
v 0.492543 -0.251522 -0.059924
v 0.465653 -0.298790 -0.074496
v 0.445968 -0.333392 -0.114305
v 0.438763 -0.346057 -0.168686
v 0.445968 -0.333392 -0.223067
v 0.465653 -0.298790 -0.262877
v 0.492543 -0.251522 -0.277448
v 0.519433 -0.204255 -0.262877
v 0.539118 -0.169652 -0.223067
v 0.530281 -0.231104 -0.147667
v 0.533066 -0.226209 -0.168686
v 0.522672 -0.244479 -0.132279
v 0.512278 -0.262749 -0.126647
v 0.501884 -0.281020 -0.132279
v 0.494276 -0.294395 -0.147667
v 0.491491 -0.299290 -0.168686
v 0.494276 -0.294395 -0.189706
v 0.501884 -0.281020 -0.205094
v 0.512278 -0.262749 -0.210726
v 0.522672 -0.244479 -0.205094
v 0.530281 -0.231104 -0.189706
v 0.577394 -0.257907 -0.147667
v 0.580179 -0.253011 -0.168686
v 0.569786 -0.271281 -0.132279
v 0.559392 -0.289552 -0.126647
v 0.548998 -0.307822 -0.132279
v 0.541389 -0.321197 -0.147667
v 0.538604 -0.326092 -0.168686
v 0.541389 -0.321197 -0.189706
v 0.548998 -0.307822 -0.205094
v 0.559392 -0.289552 -0.210726
v 0.569786 -0.271281 -0.205094
v 0.577394 -0.257907 -0.189706
v 0.488691 -0.499135 -0.017529
v 0.488691 -0.493924 0.001919
v 0.488691 -0.479687 0.016156
v 0.488691 -0.460239 0.021367
v 0.488691 -0.440791 0.016156
v 0.488691 -0.426554 0.001919
v 0.488691 -0.421343 -0.017529
v 0.488691 -0.426554 -0.036977
v 0.488691 -0.440791 -0.051214
v 0.488691 -0.460239 -0.056425
v 0.488691 -0.479687 -0.051214
v 0.488691 -0.493924 -0.036977
v 0.566300 -0.499135 -0.066278
v 0.578783 -0.493924 -0.051364
v 0.587922 -0.479687 -0.040447
v 0.591266 -0.460239 -0.036451
v 0.587922 -0.440791 -0.040447
v 0.578783 -0.426554 -0.051364
v 0.566300 -0.421343 -0.066278
v 0.553817 -0.426554 -0.081191
v 0.544678 -0.440791 -0.092108
v 0.541334 -0.460239 -0.096104
v 0.544678 -0.479687 -0.092108
v 0.553817 -0.493924 -0.081191
v 0.609376 -0.499135 -0.102335
v 0.627066 -0.493924 -0.094253
v 0.640015 -0.479687 -0.088337
v 0.644755 -0.460239 -0.086172
v 0.640015 -0.440791 -0.088337
v 0.627066 -0.426554 -0.094253
v 0.609376 -0.421343 -0.102335
v 0.591687 -0.426554 -0.110417
v 0.578737 -0.440791 -0.116333
v 0.573997 -0.460239 -0.118498
v 0.578737 -0.479687 -0.116333
v 0.591687 -0.493924 -0.110417
v 0.642660 -0.472478 -0.173612
v 0.659754 -0.469515 -0.163394
v 0.670019 -0.459876 -0.149003
v 0.670704 -0.446144 -0.134295
v 0.661626 -0.431998 -0.123210
v 0.645218 -0.421228 -0.118720
v 0.625875 -0.416721 -0.122026
v 0.608781 -0.419684 -0.132244
v 0.598516 -0.429323 -0.146636
v 0.597831 -0.443056 -0.161344
v 0.606909 -0.457202 -0.172429
v 0.623318 -0.467971 -0.176919
v 0.650521 -0.372294 -0.205305
v 0.664317 -0.366283 -0.191929
v 0.669535 -0.362124 -0.172933
v 0.664776 -0.360931 -0.153406
v 0.651314 -0.363023 -0.138580
v 0.632661 -0.367490 -0.132428
v 0.613982 -0.373741 -0.136599
v 0.600282 -0.380102 -0.149975
v 0.595064 -0.384261 -0.168971
v 0.599824 -0.385454 -0.188498
v 0.613285 -0.383362 -0.203324
v 0.631841 -0.378545 -0.209476
v 0.600167 -0.293370 -0.203073
v 0.607574 -0.280814 -0.189185
v 0.609267 -0.275136 -0.169942
v 0.604792 -0.277857 -0.150501
v 0.595350 -0.288248 -0.136070
v 0.583468 -0.303525 -0.130517
v 0.572332 -0.319594 -0.135329
v 0.564926 -0.332150 -0.149217
v 0.563233 -0.337828 -0.168459
v 0.567707 -0.335107 -0.187901
v 0.577150 -0.324716 -0.202331
v 0.589031 -0.309439 -0.207885
vn 0.4821 -0.8475 -0.2222
vn 0.3767 -0.6621 -0.6478
vn 0.1486 -0.2612 -0.9538
vn -0.1486 0.2612 -0.9538
vn -0.3767 0.6621 -0.6478
vn -0.4821 0.8475 -0.2222
vn -0.4821 0.8475 0.2222
vn -0.3767 0.6621 0.6478
vn -0.1486 0.2612 0.9538
vn 0.1486 -0.2612 0.9538
vn 0.8692 0.4945 -0.0000
vn 0.3767 -0.6621 0.6478
vn 0.4821 -0.8475 0.2222
vn -0.8692 -0.4945 -0.0000
vn -0.4619 0.8483 -0.2588
vn -0.3382 0.6211 -0.7070
vn -0.1238 0.2273 -0.9659
vn 0.1238 -0.2273 -0.9659
vn 0.3382 -0.6211 -0.7070
vn 0.4619 -0.8483 -0.2588
vn 0.4619 -0.8483 0.2588
vn 0.3382 -0.6211 0.7070
vn 0.1238 -0.2273 0.9659
vn -0.1238 0.2273 0.9659
vn -0.3496 0.6146 -0.7071
vn -0.3382 0.6211 0.7070
vn -0.4619 0.8483 0.2588
vn -0.1263 0.2259 -0.9659
vn -0.4713 0.8432 0.2588
vn 0.1263 -0.2259 0.9659
vn 0.1263 -0.2259 -0.9659
vn -0.4713 0.8432 -0.2588
vn -0.1263 0.2259 0.9659
vn 0.3450 -0.6172 -0.7071
vn 0.4713 -0.8432 0.2588
vn -0.3450 0.6172 -0.7071
vn -0.3450 0.6172 0.7071
vn 0.4713 -0.8432 -0.2588
vn 0.3450 -0.6172 0.7071
vn -0.7036 -0.6706 0.2350
vn -0.1280 0.2250 0.9659
vn 0.1280 -0.2250 0.9659
vn 0.3496 -0.6146 0.7071
vn 0.4776 -0.8396 0.2588
vn 0.4776 -0.8396 -0.2588
vn 0.3496 -0.6146 -0.7071
vn 0.1280 -0.2250 -0.9659
vn -0.4776 0.8396 0.2588
vn -0.4776 0.8396 -0.2588
vn -0.1280 0.2250 -0.9659
vn -0.3496 0.6146 0.7071
vn -0.7036 -0.6706 -0.2350
vn -0.9785 -0.1874 0.0860
vn -0.9360 -0.2622 -0.2350
vn -0.7773 -0.5411 0.3210
vn -0.6611 -0.7454 -0.0860
vn -0.8623 -0.3916 -0.3210
vn -0.8623 -0.3916 0.3210
vn -0.6611 -0.7454 0.0860
vn -0.7773 -0.5411 -0.3210
vn -0.9360 -0.2622 0.2350
vn -0.9785 -0.1874 -0.0860
vn -0.0085 -0.9659 -0.2588
vn -0.0237 -0.7069 -0.7069
vn -0.0316 -0.2587 -0.9654
vn -0.0316 0.2587 -0.9654
vn -0.0232 0.7069 -0.7069
vn -0.0085 0.9659 -0.2588
vn 0.0085 0.9659 0.2588
vn 0.0232 0.7069 0.7069
vn 0.0316 0.2587 0.9654
vn 0.0316 -0.2587 0.9654
vn 0.0226 -0.7069 0.7069
vn 0.0085 -0.9659 0.2588
vn -0.3741 0.6558 -0.6558
vn 0.5511 -0.2238 0.8038
vn -0.4782 0.2273 -0.8483
vn 0.1461 -0.9656 0.2151
vn -0.1605 -0.9534 -0.2555
vn -0.4826 -0.2267 -0.8460
vn 0.4175 -0.7063 0.5716
vn -0.3858 -0.6524 -0.6524
vn 0.5814 -0.2585 0.7714
vn 0.5698 0.2583 0.7801
vn 0.3982 0.7053 0.5865
vn 0.1389 0.9653 0.2211
vn -0.1513 0.9548 -0.2558
vn -0.8968 -0.2585 -0.3591
vn 0.1827 0.9586 0.2183
vn 0.4105 -0.7060 0.5771
vn -0.1661 -0.9659 -0.1985
vn 0.4576 0.6626 0.5929
vn -0.4977 0.6777 -0.5414
vn 0.1582 -0.9659 0.2050
vn -0.4697 -0.7070 -0.5288
vn 0.5646 0.2260 0.7938
vn -0.1867 0.9597 -0.2102
vn -0.6538 -0.2585 -0.7112
vn 0.8643 -0.1897 0.4658
vn 0.8428 -0.1320 0.5218
vn 0.2042 0.9772 -0.0582
vn -0.8173 0.2566 -0.5159
vn 0.5075 -0.6810 0.5279
vn -0.3524 -0.9186 0.1790
vn 0.5421 0.8239 0.1652
vn -0.5647 0.6465 -0.5130
vn 0.0872 -0.9133 0.3979
vn -0.7165 -0.6911 -0.0948
vn 0.8199 0.4370 0.3698
vn -0.1620 0.9324 -0.3231
vn -0.8135 0.5580 -0.1642
vn 0.7081 0.0430 -0.7048
vn -0.8572 0.1688 -0.4866
vn 0.4371 -0.3148 0.8425
vn -0.5274 -0.2936 0.7972
vn 0.9566 -0.0799 -0.2802
vn -0.4080 0.2563 -0.8763
vn -0.0787 -0.3476 0.9343
vn -0.8530 -0.1737 0.4921
vn 0.9576 -0.1835 0.2222
vn 0.2708 0.1781 -0.9460
vn -0.9991 -0.0053 0.0416
vn 0.6476 -0.4054 0.6452
vn 0.5578 -0.4455 -0.7003
vn -0.6348 0.4360 -0.6379
vn 0.2749 -0.1533 0.9492
vn -0.5556 0.3755 0.7418
vn 0.7797 -0.5787 -0.2393
vn -0.2488 0.1541 -0.9562
vn -0.1743 0.1304 0.9760
vn -0.7814 0.5294 0.3305
vn 0.7978 -0.5441 0.2598
vn 0.1788 -0.1665 -0.9697
vn -0.6577 0.2585 -0.7075
vn -0.4821 -0.8475 0.2222
vn -0.3767 -0.6621 0.6478
vn -0.1486 -0.2612 0.9538
vn 0.1486 0.2612 0.9538
vn 0.3767 0.6621 0.6478
vn 0.4821 0.8475 0.2222
vn 0.4821 0.8475 -0.2222
vn 0.3767 0.6621 -0.6478
vn 0.1486 0.2612 -0.9538
vn -0.1486 -0.2612 -0.9538
vn -0.8692 0.4945 -0.0000
vn -0.3767 -0.6621 -0.6478
vn -0.4821 -0.8475 -0.2222
vn 0.8692 -0.4945 -0.0000
vn 0.4619 0.8483 0.2588
vn 0.3382 0.6211 0.7070
vn 0.1238 0.2273 0.9659
vn -0.1238 -0.2273 0.9659
vn -0.3382 -0.6211 0.7070
vn -0.4619 -0.8483 0.2588
vn -0.4619 -0.8483 -0.2588
vn -0.3382 -0.6211 -0.7070
vn -0.1238 -0.2273 -0.9659
vn 0.1238 0.2273 -0.9659
vn 0.3496 0.6146 0.7071
vn 0.3382 0.6211 -0.7070
vn 0.4619 0.8483 -0.2588
vn 0.1263 0.2259 0.9659
vn 0.4713 0.8432 -0.2588
vn -0.1263 -0.2259 -0.9659
vn -0.1263 -0.2259 0.9659
vn 0.4713 0.8432 0.2588
vn 0.1263 0.2259 -0.9659
vn -0.3450 -0.6172 0.7071
vn -0.4713 -0.8432 -0.2588
vn 0.3450 0.6172 0.7071
vn 0.3450 0.6172 -0.7071
vn -0.4713 -0.8432 0.2588
vn -0.3450 -0.6172 -0.7071
vn 0.7036 -0.6706 -0.2350
vn 0.1280 0.2250 -0.9659
vn -0.1280 -0.2250 -0.9659
vn -0.3496 -0.6146 -0.7071
vn -0.4776 -0.8396 -0.2588
vn -0.4776 -0.8396 0.2588
vn -0.3496 -0.6146 0.7071
vn -0.1280 -0.2250 0.9659
vn 0.4776 0.8396 -0.2588
vn 0.4776 0.8396 0.2588
vn 0.1280 0.2250 0.9659
vn 0.3496 0.6146 -0.7071
vn 0.7036 -0.6706 0.2350
vn 0.9785 -0.1874 -0.0860
vn 0.9360 -0.2622 0.2350
vn 0.7773 -0.5411 -0.3210
vn 0.6611 -0.7454 0.0860
vn 0.8623 -0.3916 0.3210
vn 0.8623 -0.3916 -0.3210
vn 0.6611 -0.7454 -0.0860
vn 0.7773 -0.5411 0.3210
vn 0.9360 -0.2622 -0.2350
vn 0.9785 -0.1874 0.0860
vn 0.0232 -0.7069 0.7069
vn 0.0324 -0.2587 0.9654
vn -0.0309 -0.2587 -0.9655
vn -0.0232 -0.7069 -0.7069
vn 0.3532 0.7014 0.6191
vn -0.5464 -0.2577 -0.7969
vn 0.4748 0.2547 0.8424
vn -0.1731 -0.9514 -0.2549
vn 0.1389 -0.9653 0.2211
vn 0.4791 -0.2550 0.8399
vn -0.4589 -0.6283 -0.6283
vn 0.3623 -0.7024 0.6127
vn -0.5886 -0.2092 -0.7809
vn -0.5765 0.2115 -0.7893
vn -0.4328 0.6375 -0.6375
vn -0.1605 0.9534 -0.2555
vn 0.1334 0.9651 0.2256
vn 0.8737 -0.3752 0.3096
vn -0.1827 0.9586 -0.2183
vn -0.4105 -0.7060 -0.5771
vn 0.1661 -0.9659 0.1985
vn -0.4576 0.6626 -0.5929
vn 0.4977 0.6777 0.5414
vn -0.1582 -0.9659 -0.2050
vn 0.4697 -0.7070 0.5288
vn -0.5600 0.2581 -0.7873
vn 0.1867 0.9597 0.2102
vn 0.6570 -0.2397 0.7147
vn -0.6878 -0.2899 -0.6655
vn -0.7978 -0.2553 -0.5462
vn -0.2042 0.9772 0.0583
vn 0.8508 0.1517 0.5032
vn -0.5075 -0.6810 -0.5279
vn 0.3524 -0.9186 -0.1790
vn -0.5421 0.8239 -0.1652
vn 0.5647 0.6465 0.5130
vn -0.0872 -0.9133 -0.3979
vn 0.7165 -0.6911 0.0948
vn -0.8199 0.4370 -0.3698
vn 0.1620 0.9324 0.3231
vn 0.8135 0.5580 0.1642
vn -0.5257 0.1391 0.8392
vn 0.8572 0.1688 0.4866
vn -0.2072 -0.3623 -0.9087
vn 0.7281 -0.2580 -0.6351
vn -0.8330 0.0671 0.5492
vn 0.4080 0.2563 0.8763
vn 0.3144 -0.3511 -0.8820
vn 0.8530 -0.1737 -0.4921
vn -0.9576 -0.1835 -0.2222
vn -0.1142 0.2204 0.9687
vn 0.9991 -0.0052 -0.0416
vn -0.6190 -0.3868 -0.6835
vn -0.5578 -0.4455 0.7003
vn 0.6348 0.4360 0.6379
vn -0.2605 -0.1444 -0.9546
vn 0.5556 0.3755 -0.7418
vn -0.7797 -0.5787 0.2393
vn 0.2713 0.1713 0.9471
vn 0.2038 0.1485 -0.9677
vn 0.7814 0.5294 -0.3305
vn -0.7978 -0.5441 -0.2598
vn -0.1652 -0.1561 0.9738
vn 0.6538 0.2586 0.7112
vn -0.0229 -0.7163 -0.6974
vn -0.0326 -0.2408 -0.9700
vn 0.0310 -0.2406 0.9701
vn 0.0229 -0.7163 0.6974
vn -0.3624 0.7024 -0.6127
vn 0.5600 -0.2581 0.7873
vn -0.4791 0.2550 -0.8399
vn 0.1605 -0.9534 0.2555
vn -0.1334 -0.9651 -0.2256
vn -0.4748 -0.2547 -0.8424
vn 0.4328 -0.6375 0.6375
vn -0.3532 -0.7014 -0.6191
vn 0.5765 -0.2115 0.7893
vn 0.5886 0.2092 0.7809
vn 0.4589 0.6283 0.6283
vn 0.1731 0.9513 0.2549
vn -0.1389 0.9653 -0.2211
vn -0.8489 -0.4055 -0.3390
vn 0.1582 0.9659 0.2050
vn 0.4576 -0.6626 0.5929
vn -0.1867 -0.9597 -0.2102
vn 0.4105 0.7060 0.5771
vn -0.4697 0.7070 -0.5288
vn 0.1827 -0.9586 0.2183
vn -0.4977 -0.6777 -0.5414
vn 0.5464 0.2577 0.7969
vn -0.1661 0.9659 -0.1985
vn -0.6609 -0.2402 -0.7110
vn 0.7065 -0.2204 0.6726
vn 0.8185 -0.2567 0.5140
vn 0.3067 0.9500 -0.0588
vn -0.8325 0.1085 -0.5433
vn 0.5637 -0.6426 0.5189
vn -0.2814 -0.9389 0.1984
vn 0.6881 0.7021 0.1834
vn -0.5089 0.6815 -0.5259
vn 0.1415 -0.9037 0.4041
vn -0.6351 -0.7699 -0.0627
vn 0.8845 0.2588 0.3882
vn -0.1269 0.9367 -0.3262
vn -0.7873 0.5594 -0.2595
vn 0.5283 0.2500 -0.8114
vn -0.6981 0.2536 -0.6696
vn 0.2242 -0.3145 0.9224
vn -0.7263 -0.2128 0.6536
vn 0.8535 0.1774 -0.4899
vn -0.2359 0.2916 -0.9270
vn -0.3046 -0.3089 0.9010
vn -0.9658 -0.0571 0.2528
vn 0.9992 0.0392 -0.0099
vn 0.0934 0.2964 -0.9505
vn -0.9664 0.1184 -0.2283
vn 0.6282 -0.3755 0.6814
vn 0.5349 -0.4061 -0.7410
vn -0.5912 0.4194 -0.6889
vn 0.2639 -0.1415 0.9541
vn -0.5918 0.4151 0.6909
vn 0.7767 -0.5361 -0.3307
vn -0.2693 0.1788 -0.9463
vn -0.1973 0.1532 0.9683
vn -0.7952 0.5590 0.2349
vn 0.8317 -0.5285 0.1704
vn 0.1669 -0.1513 -0.9743
vn -0.6570 0.2397 -0.7147
vn 0.0234 -0.7162 0.6975
vn 0.0318 -0.2407 0.9701
vn -0.0318 -0.2407 -0.9701
vn -0.0223 -0.7164 -0.6974
vn 0.3858 0.6524 0.6524
vn -0.5646 -0.2260 -0.7938
vn 0.4826 0.2267 0.8460
vn -0.1389 -0.9653 -0.2211
vn 0.1513 -0.9548 0.2558
vn 0.4782 -0.2273 0.8483
vn -0.3982 -0.7053 -0.5865
vn 0.3741 -0.6558 0.6558
vn -0.5698 -0.2583 -0.7801
vn -0.5814 0.2585 -0.7714
vn -0.4175 0.7063 -0.5716
vn -0.1461 0.9656 -0.2151
vn 0.1605 0.9534 0.2555
vn 0.8798 -0.2588 0.3986
vn -0.1582 0.9659 -0.2050
vn -0.4576 -0.6626 -0.5929
vn 0.1867 -0.9597 0.2102
vn -0.4105 0.7060 -0.5771
vn 0.4697 0.7070 0.5288
vn -0.1827 -0.9586 -0.2183
vn 0.4977 -0.6777 0.5414
vn -0.5511 0.2238 -0.8038
vn 0.1661 0.9659 0.1985
vn 0.6577 -0.2585 0.7075
vn -0.8467 -0.1415 -0.5129
vn -0.8545 -0.1614 -0.4938
vn -0.3067 0.9500 0.0588
vn 0.7919 0.2548 0.5550
vn -0.5638 -0.6426 -0.5189
vn 0.2813 -0.9389 -0.1984
vn -0.6881 0.7021 -0.1834
vn 0.5089 0.6815 0.5259
vn -0.1415 -0.9037 -0.4041
vn 0.6351 -0.7699 0.0627
vn -0.8845 0.2588 -0.3882
vn 0.1269 0.9367 0.3262
vn 0.7873 0.5594 0.2595
vn -0.7249 0.1459 0.6732
vn 0.6981 0.2536 0.6696
vn -0.4177 -0.2754 -0.8658
vn 0.5284 -0.2478 -0.8120
vn -0.9658 0.0519 0.2539
vn 0.2359 0.2916 0.9270
vn 0.0905 -0.3068 -0.9475
vn 0.9658 -0.0571 -0.2528
vn -0.9992 0.0392 0.0099
vn -0.2862 0.2357 0.9287
vn 0.9664 0.1184 0.2283
vn -0.6531 -0.3914 -0.6483
vn -0.5349 -0.4061 0.7410
vn 0.5912 0.4194 0.6889
vn -0.2760 -0.1492 -0.9495
vn 0.5918 0.4151 -0.6909
vn -0.7767 -0.5361 0.3307
vn 0.2434 0.1586 0.9569
vn 0.1719 0.1373 -0.9755
vn 0.7952 0.5590 -0.2349
vn -0.8317 -0.5285 -0.1704
vn -0.1830 -0.1635 0.9694
vn 0.6609 0.2402 0.7110
vt 0.836037 0.786687
vt 0.787950 0.772946
vt 0.835829 0.769727
vt 0.789182 0.753388
vt 0.837060 0.750168
vt 0.791193 0.731562
vt 0.839071 0.728342
vt 0.793204 0.709736
vt 0.841082 0.706516
vt 0.794435 0.690178
vt 0.842314 0.686958
vt 0.857883 0.918473
vt 0.809796 0.904733
vt 0.857674 0.901513
vt 0.855610 0.884678
vt 0.807732 0.887898
vt 0.851771 0.865460
vt 0.803892 0.868680
vt 0.846856 0.844100
vt 0.798977 0.847320
vt 0.841941 0.822740
vt 0.723241 0.706927
vt 0.785963 0.675483
vt 0.765463 0.742584
vt 0.794062 0.825960
vt 0.838102 0.803522
vt 0.790223 0.806742
vt 0.849197 0.726877
vt 0.869080 0.669591
vt 0.909614 0.732062
vt 0.930047 0.247400
vt 0.956111 0.174411
vt 0.955802 0.252443
vt 0.622693 0.268038
vt 0.650047 0.190007
vt 0.656835 0.264567
vt 0.687663 0.198314
vt 0.693367 0.264619
vt 0.720659 0.205482
vt 0.725999 0.263331
vt 0.746418 0.209793
vt 0.750499 0.261225
vt 0.766162 0.210959
vt 0.767579 0.259799
vt 0.784636 0.260149
vt 0.785721 0.209248
vt 0.808901 0.260541
vt 0.810537 0.204395
vt 0.840811 0.259199
vt 0.840996 0.196960
vt 0.875393 0.255156
vt 0.613496 0.182932
vt 0.661526 0.124712
vt 0.873384 0.188886
vt 0.905939 0.250129
vt 0.902767 0.181866
vt 0.723975 0.268522
vt 0.693285 0.269524
vt 0.841294 0.263913
vt 0.820984 0.383090
vt 0.811228 0.265470
vt 0.929584 0.257105
vt 0.903815 0.257832
vt 0.659707 0.270685
vt 0.873803 0.261126
vt 0.629877 0.274729
vt 0.787020 0.265756
vt 0.767795 0.266826
vt 0.748448 0.267041
vt 0.693236 0.407087
vt 0.721452 0.489659
vt 0.613496 0.442525
vt 0.772691 0.381190
vt 0.751772 0.383299
vt 0.692063 0.393184
vt 0.659770 0.398750
vt 0.853477 0.385458
vt 0.724540 0.387670
vt 0.885740 0.387951
vt 0.953944 0.389109
vt 0.933228 0.390696
vt 0.793658 0.381321
vt 0.912480 0.390066
vt 0.630670 0.403188
vt 0.803070 0.155618
vt 0.780951 0.112628
vt 0.799908 0.108065
vt 0.833461 0.142340
vt 0.867226 0.133884
vt 0.782065 0.165885
vt 0.766004 0.169337
vt 0.749858 0.165734
vt 0.728549 0.154857
vt 0.928293 0.176816
vt 0.893292 0.129323
vt 0.912350 0.122492
vt 0.935146 0.106724
vt 0.697577 0.139457
vt 0.877007 0.075662
vt 0.844674 0.043611
vt 0.855834 0.037012
vt 0.751601 0.112603
vt 0.676742 0.083992
vt 0.692050 0.092327
vt 0.822390 0.102078
vt 0.766261 0.113752
vt 0.711354 0.101636
vt 0.843904 0.092425
vt 0.732917 0.107964
vt 0.863027 0.083723
vt 0.889213 0.065777
vt 0.702888 0.054181
vt 0.794536 0.067374
vt 0.812761 0.060527
vt 0.766086 0.072911
vt 0.720107 0.061786
vt 0.830359 0.051901
vt 0.778653 0.071489
vt 0.737915 0.068043
vt 0.867387 0.031165
vt 0.753578 0.071787
vt 0.053953 0.793545
vt 0.053393 0.509775
vt 0.062266 0.792372
vt 0.063505 0.509919
vt 0.071999 0.793238
vt 0.074806 0.514979
vt 0.082710 0.795590
vt 0.085982 0.518175
vt 0.093190 0.798751
vt 0.095953 0.520569
vt 0.102422 0.801979
vt 0.104668 0.521452
vt 0.110501 0.804429
vt 0.118986 0.805172
vt 0.113196 0.520471
vt 0.129199 0.803525
vt 0.123080 0.517790
vt 0.140608 0.799716
vt 0.015355 0.517721
vt 0.035799 0.801161
vt 0.024127 0.805489
vt 0.026253 0.515754
vt 0.045731 0.796712
vt 0.036096 0.510757
vt 0.095771 0.857804
vt 0.023423 0.845354
vt 0.039122 0.865941
vt 0.028124 0.870528
vt 0.085472 0.855442
vt 0.054436 0.843813
vt 0.045455 0.841563
vt 0.074716 0.851743
vt 0.035527 0.841908
vt 0.064162 0.847567
vt 0.146151 0.837026
vt 0.134601 0.842981
vt 0.123734 0.849524
vt 0.113979 0.854845
vt 0.105123 0.857779
vt 0.082131 0.887794
vt 0.070301 0.906363
vt 0.073600 0.881863
vt 0.124676 0.879678
vt 0.112213 0.889183
vt 0.056943 0.870279
vt 0.137209 0.868393
vt 0.101001 0.893497
vt 0.091149 0.892367
vt 0.048547 0.866255
vt 0.065198 0.875822
vt 0.148910 0.859484
vt 0.039471 0.897965
vt 0.031097 0.937545
vt 0.031140 0.899924
vt 0.125394 0.901812
vt 0.108965 0.907993
vt 0.077051 0.909322
vt 0.055380 0.900869
vt 0.140546 0.894812
vt 0.094980 0.910901
vt 0.084538 0.911186
vt 0.047489 0.898716
vt 0.063083 0.903489
vt 0.152424 0.889382
vt 0.083109 0.950438
vt 0.079108 0.999839
vt 0.076147 0.950842
vt 0.130939 0.937121
vt 0.116533 0.941042
vt 0.040640 0.941164
vt 0.060259 0.948227
vt 0.143284 0.935297
vt 0.091520 0.948443
vt 0.050615 0.945101
vt 0.068844 0.950120
vt 0.153924 0.935935
vt 0.102384 0.945162
vt 0.020557 0.969665
vt 0.136900 0.973431
vt 0.126302 0.979921
vt 0.088900 0.998815
vt 0.031351 0.976527
vt 0.057422 0.992582
vt 0.145812 0.969757
vt 0.113764 0.987705
vt 0.100525 0.994529
vt 0.044107 0.985052
vt 0.069262 0.997659
vt 0.155156 0.969489
vt 0.385342 0.792564
vt 0.447701 0.777247
vt 0.448088 0.793793
vt 0.384955 0.776018
vt 0.446084 0.760556
vt 0.383338 0.759327
vt 0.443760 0.743732
vt 0.381013 0.742503
vt 0.441435 0.726908
vt 0.378688 0.725679
vt 0.439818 0.710217
vt 0.377072 0.708988
vt 0.439431 0.693671
vt 0.435518 0.893498
vt 0.373806 0.875751
vt 0.436552 0.876980
vt 0.376075 0.859137
vt 0.438821 0.860366
vt 0.379056 0.842417
vt 0.441803 0.843645
vt 0.382038 0.825696
vt 0.444785 0.826925
vt 0.321496 0.680217
vt 0.376685 0.692442
vt 0.337445 0.733130
vt 0.384307 0.809082
vt 0.447053 0.810310
vt 0.463547 0.732623
vt 0.447588 0.679270
vt 0.502815 0.693136
vt 0.477141 0.210403
vt 0.505215 0.289507
vt 0.483916 0.289579
vt 0.500536 0.205044
vt 0.531013 0.292009
vt 0.229887 0.216052
vt 0.259443 0.304264
vt 0.231462 0.309209
vt 0.259585 0.214243
vt 0.287592 0.301023
vt 0.287948 0.212518
vt 0.313866 0.298039
vt 0.312973 0.211228
vt 0.338071 0.295768
vt 0.357060 0.211306
vt 0.362161 0.295539
vt 0.380396 0.212511
vt 0.387853 0.295489
vt 0.405375 0.213692
vt 0.414603 0.294720
vt 0.430570 0.214139
vt 0.440292 0.292969
vt 0.526689 0.196850
vt 0.478143 0.133902
vt 0.499442 0.115988
vt 0.454496 0.213239
vt 0.463244 0.291070
vt 0.287337 0.306939
vt 0.260324 0.309464
vt 0.388816 0.301080
vt 0.416561 0.464274
vt 0.392791 0.468587
vt 0.484280 0.296222
vt 0.462730 0.296782
vt 0.234840 0.314355
vt 0.439730 0.298271
vt 0.506086 0.295316
vt 0.414745 0.299526
vt 0.363204 0.301957
vt 0.338435 0.303450
vt 0.313471 0.304671
vt 0.284874 0.474619
vt 0.312114 0.541071
vt 0.231793 0.522996
vt 0.331108 0.475451
vt 0.260533 0.474529
vt 0.440588 0.460341
vt 0.371039 0.472291
vt 0.351142 0.474648
vt 0.462982 0.457632
vt 0.483468 0.456757
vt 0.309032 0.475180
vt 0.529865 0.297641
vt 0.503984 0.457920
vt 0.374248 0.148596
vt 0.356181 0.103255
vt 0.373417 0.104131
vt 0.418918 0.148666
vt 0.396388 0.148302
vt 0.335230 0.210752
vt 0.355044 0.149256
vt 0.320923 0.147262
vt 0.338079 0.148931
vt 0.300888 0.143837
vt 0.276254 0.139044
vt 0.459324 0.143890
vt 0.245538 0.131153
vt 0.439835 0.147987
vt 0.426276 0.100891
vt 0.424525 0.045116
vt 0.440193 0.096791
vt 0.325236 0.102191
vt 0.453552 0.091399
vt 0.465928 0.082613
vt 0.391689 0.105497
vt 0.340705 0.102056
vt 0.275651 0.096515
vt 0.290998 0.100446
vt 0.409907 0.103308
vt 0.308388 0.101607
vt 0.436220 0.040650
vt 0.449133 0.034265
vt 0.383576 0.049014
vt 0.329548 0.046209
vt 0.342199 0.046080
vt 0.286136 0.046783
vt 0.300925 0.047151
vt 0.398515 0.049077
vt 0.354853 0.046785
vt 0.315786 0.046777
vt 0.412282 0.047808
vt 0.368643 0.047984
vt 0.044773 0.509318
vt 0.022843 0.221125
vt 0.030944 0.217755
vt 0.013600 0.225310
vt 0.003076 0.229491
vt 0.134218 0.514025
vt 0.114672 0.230613
vt 0.125726 0.228079
vt 0.104557 0.231657
vt 0.095793 0.230596
vt 0.086980 0.227431
vt 0.076267 0.223009
vt 0.063626 0.218828
vt 0.050828 0.216247
vt 0.039750 0.215895
vt 0.107668 0.171618
vt 0.119754 0.168970
vt 0.049667 0.173992
vt 0.059327 0.150117
vt 0.062920 0.176998
vt 0.131103 0.168153
vt 0.037443 0.170663
vt 0.018651 0.166192
vt 0.027230 0.167791
vt 0.000161 0.168765
vt 0.009883 0.166567
vt 0.075531 0.178705
vt 0.086527 0.178050
vt 0.096560 0.175240
vt 0.009038 0.138060
vt 0.005082 0.114625
vt 0.012246 0.117687
vt 0.090135 0.142230
vt 0.105007 0.136290
vt 0.044260 0.150013
vt 0.022732 0.143640
vt 0.075646 0.147448
vt 0.121114 0.134240
vt 0.135066 0.136945
vt 0.031806 0.147300
vt 0.015839 0.140507
vt 0.000407 0.136472
vt 0.059114 0.117945
vt 0.053616 0.070645
vt 0.064999 0.069858
vt 0.091882 0.116412
vt 0.112480 0.116567
vt 0.144851 0.141266
vt 0.145400 0.122750
vt 0.155156 0.126618
vt 0.045488 0.119696
vt 0.025134 0.119785
vt 0.074097 0.117157
vt 0.131212 0.118816
vt 0.034151 0.120178
vt 0.018111 0.118997
vt 0.007627 0.067365
vt 0.028495 0.002398
vt 0.015242 0.069882
vt 0.100940 0.072522
vt 0.136968 0.077163
vt 0.042325 0.071373
vt 0.023260 0.071224
vt 0.032075 0.071625
vt 0.088201 0.070679
vt 0.126417 0.076608
vt 0.076150 0.069661
vt 0.114043 0.074681
vt 0.061582 0.022322
vt 0.069996 0.024988
vt 0.085674 0.022595
vt 0.093892 0.018337
vt 0.120954 0.005660
vt 0.052923 0.017517
vt 0.044561 0.011807
vt 0.077907 0.025005
vt 0.111739 0.008928
vt 0.036495 0.006450
vt 0.102629 0.013532
vt 0.788159 0.789907
vt 0.810004 0.921693
vt 0.746386 0.747072
vt 0.730481 0.741180
vt 0.722009 0.726485
vt 0.733845 0.687745
vt 0.750982 0.674079
vt 0.770058 0.669591
vt 0.782599 0.728918
vt 0.899366 0.745578
vt 0.882848 0.749429
vt 0.864485 0.742584
vt 0.852561 0.673442
vt 0.887443 0.676436
vt 0.902730 0.692143
vt 0.910845 0.712503
vt 0.627597 0.107836
vt 0.954597 0.260177
vt 0.613732 0.419211
vt 0.722099 0.425963
vt 0.738627 0.450322
vt 0.738390 0.473636
vt 0.692352 0.494096
vt 0.658887 0.485760
vt 0.630023 0.466884
vt 0.687567 0.047272
vt 0.372771 0.892270
vt 0.322554 0.725421
vt 0.313733 0.711418
vt 0.313345 0.694872
vt 0.336001 0.671381
vt 0.352972 0.670730
vt 0.367864 0.678439
vt 0.368921 0.723643
vt 0.354417 0.732479
vt 0.503202 0.709681
vt 0.495046 0.724082
vt 0.480531 0.732479
vt 0.448646 0.724474
vt 0.462102 0.670873
vt 0.479086 0.670730
vt 0.493988 0.678878
vt 0.229887 0.502459
vt 0.240407 0.484719
vt 0.306907 0.484964
vt 0.320727 0.502794
vt 0.322634 0.523330
vt 0.291987 0.551261
vt 0.267647 0.551171
vt 0.245614 0.540825
vt 0.527849 0.461108
vt 0.020278 0.000161
s 0
usemtl Material
f 1/1/1 3/3/1 4/2/1
f 3/3/2 5/5/2 6/4/2
f 5/5/3 7/7/3 8/6/3
f 7/7/4 9/9/4 10/8/4
f 9/9/5 11/11/5 12/10/5
f 11/12/6 13/14/6 14/13/6
f 14/13/7 13/14/7 15/15/7
f 16/16/8 15/15/8 17/17/8
f 18/18/9 17/17/9 19/19/9
f 20/20/10 19/19/10 21/21/10
f 22/22/11 6/24/11 14/23/11
f 22/25/12 21/21/12 23/26/12
f 24/27/13 23/26/13 1/1/13
f 7/28/14 23/30/14 15/29/14
f 25/31/15 27/33/15 28/32/15
f 27/34/16 29/36/16 30/35/16
f 29/36/17 31/38/17 32/37/17
f 31/38/18 33/40/18 34/39/18
f 33/40/19 35/42/19 36/41/19
f 35/42/20 37/44/20 38/43/20
f 38/43/21 37/44/21 39/45/21
f 40/46/22 39/45/22 41/47/22
f 42/48/23 41/47/23 43/49/23
f 44/50/24 43/49/24 45/51/24
f 28/52/25 30/35/25 75/53/25
f 46/54/26 45/51/26 47/55/26
f 48/56/27 47/55/27 25/31/27
f 31/38/11 52/58/11 53/57/11
f 58/59/28 57/61/28 69/60/28
f 47/55/11 60/63/11 49/62/11
f 27/33/11 25/31/11 49/62/11
f 31/38/11 29/36/11 51/64/11
f 45/51/11 59/65/11 60/63/11
f 29/36/11 27/34/11 50/66/11
f 43/49/11 58/59/11 59/65/11
f 43/49/11 41/47/11 57/61/11
f 41/47/11 39/45/11 56/67/11
f 39/45/11 37/44/11 55/68/11
f 35/42/11 54/69/11 55/68/11
f 33/40/11 53/57/11 54/69/11
f 64/70/11 72/72/11 68/71/11
f 54/69/29 66/74/29 67/73/29
f 51/64/30 63/76/30 64/75/30
f 59/65/31 58/59/31 70/77/31
f 56/67/32 55/68/32 67/73/32
f 52/58/33 64/75/33 65/78/33
f 60/63/34 59/65/34 71/79/34
f 49/62/35 61/81/35 62/80/35
f 57/61/36 56/67/36 68/82/36
f 53/57/37 65/78/37 66/74/37
f 49/62/38 60/63/38 72/83/38
f 50/66/39 62/84/39 63/76/39
f 81/85/40 93/87/40 92/86/40
f 46/54/41 83/89/41 82/88/41
f 44/50/42 82/88/42 81/85/42
f 42/48/43 81/85/43 80/90/43
f 40/46/44 80/90/44 79/91/44
f 36/41/45 38/43/45 79/91/45
f 34/39/46 36/41/46 78/92/46
f 32/37/47 34/39/47 77/93/47
f 26/94/48 74/96/48 84/95/48
f 26/94/49 28/32/49 73/97/49
f 30/35/50 32/37/50 76/98/50
f 48/56/51 84/95/51 83/89/51
f 86/99/48 98/101/48 108/100/48
f 77/93/52 78/92/52 90/102/52
f 84/95/53 74/96/53 86/99/53
f 75/53/54 87/104/54 85/103/54
f 82/88/55 94/105/55 93/87/55
f 78/92/56 79/91/56 91/106/56
f 76/98/57 88/107/57 87/104/57
f 82/88/58 83/89/58 95/108/58
f 80/90/59 92/86/59 91/106/59
f 76/98/60 77/93/60 89/109/60
f 83/89/61 84/95/61 96/110/61
f 73/97/62 85/111/62 86/99/62
f 85/103/25 87/104/25 99/112/25
f 94/105/42 106/114/42 105/113/42
f 90/102/45 91/106/45 103/115/45
f 87/104/50 88/107/50 100/116/50
f 95/108/41 107/117/41 106/114/41
f 92/86/44 104/118/44 103/115/44
f 88/107/47 89/109/47 101/119/47
f 96/110/51 108/100/51 107/117/51
f 86/99/49 85/111/49 97/120/49
f 93/87/43 105/113/43 104/118/43
f 89/109/46 90/102/46 102/121/46
f 109/122/63 111/124/63 112/123/63
f 111/124/64 113/126/64 114/125/64
f 113/126/65 115/128/65 116/127/65
f 115/128/66 117/130/66 118/129/66
f 117/130/67 119/132/67 120/131/67
f 119/132/68 121/134/68 122/133/68
f 122/133/69 121/134/69 123/135/69
f 124/136/70 123/135/70 125/137/70
f 126/138/71 125/137/71 127/139/71
f 128/140/72 127/142/72 129/141/72
f 130/143/73 129/141/73 131/144/73
f 132/145/74 131/144/74 109/122/74
f 119/132/75 117/130/75 137/146/75
f 142/147/76 154/149/76 155/148/76
f 117/130/77 115/128/77 136/150/77
f 131/144/78 144/152/78 133/151/78
f 111/124/79 109/122/79 133/151/79
f 115/128/80 113/126/80 135/153/80
f 129/141/81 143/154/81 144/152/81
f 113/126/82 111/124/82 134/155/82
f 127/142/83 142/147/83 143/154/83
f 125/137/84 141/157/84 142/156/84
f 123/135/85 140/158/85 141/157/85
f 121/134/86 139/159/86 140/158/86
f 121/134/87 119/132/87 138/160/87
f 148/161/88 147/163/88 159/162/88
f 139/159/89 151/165/89 152/164/89
f 144/152/90 143/154/90 155/148/90
f 134/155/91 133/151/91 145/166/91
f 140/158/92 152/164/92 153/167/92
f 137/146/93 149/169/93 150/168/93
f 133/151/94 144/152/94 156/170/94
f 135/153/95 134/155/95 146/171/95
f 141/157/96 153/167/96 154/172/96
f 138/160/97 150/168/97 151/165/97
f 136/150/98 135/153/98 147/163/98
f 167/173/99 166/175/99 178/174/99
f 154/149/100 166/175/100 167/173/100
f 151/165/101 163/177/101 164/176/101
f 149/169/102 148/161/102 160/178/102
f 156/170/103 155/148/103 167/173/103
f 146/171/104 145/166/104 157/179/104
f 152/164/105 164/176/105 165/180/105
f 149/169/106 161/182/106 162/181/106
f 145/166/107 156/170/107 168/183/107
f 147/163/108 146/171/108 158/184/108
f 153/167/109 165/180/109 166/185/109
f 150/168/110 162/181/110 163/177/110
f 172/186/111 171/188/111 183/187/111
f 163/177/112 175/190/112 176/189/112
f 161/182/113 160/178/113 172/186/113
f 168/183/114 167/173/114 179/191/114
f 158/184/115 157/179/115 169/192/115
f 164/176/116 176/189/116 177/193/116
f 162/181/117 161/182/117 173/194/117
f 157/179/118 168/183/118 180/195/118
f 159/162/119 158/184/119 170/196/119
f 165/180/120 177/193/120 178/197/120
f 162/181/121 174/198/121 175/190/121
f 160/178/122 159/162/122 171/188/122
f 179/191/123 178/174/123 190/199/123
f 175/190/124 187/201/124 188/200/124
f 173/194/125 172/186/125 184/202/125
f 180/195/126 179/191/126 191/203/126
f 170/196/127 169/192/127 181/204/127
f 176/189/128 188/200/128 189/205/128
f 173/194/129 185/207/129 186/206/129
f 169/192/130 180/195/130 192/208/130
f 171/188/131 170/196/131 182/209/131
f 177/193/132 189/205/132 190/210/132
f 174/198/133 186/206/133 187/201/133
f 137/146/134 136/150/134 148/161/134
f 194/211/135 193/213/135 195/212/135
f 196/214/136 195/212/136 197/215/136
f 198/216/137 197/215/137 199/217/137
f 200/218/138 199/217/138 201/219/138
f 202/220/139 201/219/139 203/221/139
f 204/222/140 203/221/140 205/223/140
f 205/224/141 207/226/141 208/225/141
f 207/226/142 209/228/142 210/227/142
f 209/228/143 211/230/143 212/229/143
f 211/230/144 213/232/144 214/231/144
f 214/233/145 198/235/145 206/234/145
f 213/232/146 215/237/146 216/236/146
f 215/237/147 193/213/147 194/211/147
f 199/238/148 215/240/148 207/239/148
f 218/241/149 217/243/149 219/242/149
f 220/244/150 219/242/150 221/245/150
f 222/246/151 221/248/151 223/247/151
f 224/249/152 223/247/152 225/250/152
f 226/251/153 225/250/153 227/252/153
f 228/253/154 227/252/154 229/254/154
f 229/254/155 231/256/155 232/255/155
f 231/256/156 233/258/156 234/257/156
f 233/258/157 235/260/157 236/259/157
f 235/260/158 237/262/158 238/261/158
f 222/263/159 267/265/159 265/264/159
f 237/262/160 239/267/160 240/266/160
f 239/267/161 217/243/161 218/241/161
f 223/247/145 244/269/145 245/268/145
f 249/270/162 261/272/162 262/271/162
f 239/267/145 252/274/145 241/273/145
f 219/242/145 217/243/145 241/273/145
f 223/247/145 221/248/145 243/275/145
f 237/262/145 251/276/145 252/274/145
f 221/245/145 219/242/145 242/277/145
f 235/260/145 250/278/145 251/276/145
f 235/260/145 233/258/145 249/270/145
f 233/258/145 231/256/145 248/279/145
f 231/256/145 229/254/145 247/280/145
f 227/252/145 246/281/145 247/280/145
f 225/250/145 245/268/145 246/281/145
f 256/282/145 264/284/145 260/283/145
f 247/280/163 246/281/163 258/285/163
f 244/269/164 243/275/164 255/286/164
f 250/278/165 262/271/165 263/287/165
f 247/280/166 259/289/166 260/288/166
f 245/268/167 244/269/167 256/282/167
f 251/276/168 263/287/168 264/290/168
f 242/277/169 241/273/169 253/291/169
f 248/279/170 260/288/170 261/272/170
f 246/281/171 245/268/171 257/292/171
f 252/274/172 264/290/172 253/291/172
f 243/293/173 242/277/173 254/294/173
f 273/295/174 285/297/174 284/296/174
f 236/259/175 238/261/175 275/298/175
f 234/257/176 236/259/176 274/299/176
f 232/255/177 234/257/177 273/295/177
f 230/300/178 232/255/178 272/301/178
f 230/300/179 271/303/179 270/302/179
f 228/253/180 270/302/180 269/304/180
f 226/251/181 269/304/181 268/305/181
f 240/266/182 218/241/182 266/306/182
f 220/244/183 265/264/183 266/306/183
f 224/249/184 268/305/184 267/307/184
f 238/261/185 240/266/185 276/308/185
f 288/309/182 278/311/182 290/310/182
f 269/304/186 270/302/186 282/312/186
f 276/308/187 266/306/187 278/311/187
f 267/265/188 279/314/188 277/313/188
f 274/299/189 286/315/189 285/297/189
f 270/302/190 271/303/190 283/316/190
f 268/305/191 280/318/191 279/317/191
f 274/299/192 275/298/192 287/319/192
f 272/301/193 284/296/193 283/316/193
f 268/305/194 269/304/194 281/320/194
f 275/298/195 276/308/195 288/309/195
f 265/264/196 277/313/196 278/311/196
f 279/314/159 291/322/159 289/321/159
f 285/297/176 286/315/176 298/323/176
f 283/316/179 295/325/179 294/324/179
f 280/318/184 292/327/184 291/326/184
f 286/315/175 287/319/175 299/328/175
f 283/316/178 284/296/178 296/329/178
f 281/320/181 293/330/181 292/327/181
f 287/319/185 288/309/185 300/331/185
f 277/313/183 289/321/183 290/310/183
f 284/296/177 285/297/177 297/332/177
f 282/312/180 294/324/180 293/330/180
f 110/333/74 301/335/74 302/334/74
f 132/145/197 302/334/197 303/336/197
f 130/143/198 303/336/198 304/337/198
f 128/338/71 304/340/71 305/339/71
f 126/138/70 305/339/70 306/341/70
f 124/136/69 306/341/69 307/342/69
f 307/342/68 308/343/68 120/131/68
f 308/343/67 309/344/67 118/129/67
f 309/344/66 310/345/66 116/127/66
f 310/345/199 311/346/199 114/125/199
f 311/346/200 312/347/200 112/123/200
f 312/347/63 301/335/63 110/333/63
f 305/339/201 317/349/201 318/348/201
f 323/350/202 322/352/202 334/351/202
f 304/340/203 316/353/203 317/349/203
f 301/335/204 312/347/204 324/354/204
f 301/335/205 313/356/205 314/355/205
f 303/336/206 315/358/206 316/357/206
f 312/347/207 311/346/207 323/350/207
f 302/334/208 314/355/208 315/358/208
f 311/346/209 310/345/209 322/352/209
f 310/345/210 309/344/210 321/359/210
f 309/344/211 308/343/211 320/360/211
f 308/343/212 307/342/212 319/361/212
f 306/341/213 318/348/213 319/361/213
f 327/362/214 339/364/214 340/363/214
f 319/361/215 331/366/215 332/365/215
f 324/354/216 323/350/216 335/367/216
f 314/355/217 313/356/217 325/368/217
f 320/360/218 332/365/218 333/369/218
f 317/349/219 329/371/219 330/370/219
f 313/356/220 324/354/220 336/372/220
f 315/358/221 314/355/221 326/373/221
f 322/352/222 321/359/222 333/369/222
f 318/348/223 330/370/223 331/366/223
f 315/358/224 327/362/224 328/374/224
f 346/375/225 358/377/225 359/376/225
f 335/367/226 334/351/226 346/375/226
f 331/366/227 343/379/227 344/378/227
f 328/380/228 340/382/228 341/381/228
f 336/372/229 335/367/229 347/383/229
f 326/373/230 325/368/230 337/384/230
f 332/365/231 344/378/231 345/385/231
f 329/371/232 341/381/232 342/386/232
f 325/368/233 336/372/233 348/387/233
f 327/362/234 326/373/234 338/388/234
f 333/369/235 345/385/235 346/375/235
f 330/370/236 342/386/236 343/379/236
f 352/389/237 351/391/237 363/390/237
f 344/378/238 343/379/238 355/392/238
f 341/381/239 340/382/239 352/393/239
f 347/383/240 359/376/240 360/394/240
f 337/384/241 349/396/241 350/395/241
f 345/385/242 344/378/242 356/397/242
f 342/386/243 341/381/243 353/398/243
f 348/387/244 360/394/244 349/396/244
f 339/364/245 338/388/245 350/395/245
f 345/385/246 357/399/246 358/377/246
f 343/379/247 342/386/247 354/400/247
f 340/363/248 339/364/248 351/391/248
f 358/377/249 370/402/249 371/401/249
f 355/392/250 367/404/250 368/403/250
f 353/398/251 352/393/251 364/405/251
f 359/376/252 371/401/252 372/406/252
f 350/395/253 349/396/253 361/407/253
f 356/397/254 368/403/254 369/408/254
f 354/400/255 353/398/255 365/409/255
f 360/394/256 372/406/256 361/407/256
f 351/391/257 350/395/257 362/410/257
f 357/399/258 369/408/258 370/402/258
f 355/392/259 354/400/259 366/411/259
f 329/371/260 317/349/260 316/353/260
f 1/1/1 4/2/1 2/412/1
f 3/3/2 6/4/2 4/2/2
f 5/5/3 8/6/3 6/4/3
f 7/7/4 10/8/4 8/6/4
f 9/9/5 12/10/5 10/8/5
f 11/12/6 14/13/6 12/413/6
f 14/13/7 15/15/7 16/16/7
f 16/16/8 17/17/8 18/18/8
f 18/18/9 19/19/9 20/20/9
f 20/20/10 21/21/10 22/25/10
f 6/24/11 2/415/11 4/414/11
f 2/415/11 22/22/11 24/416/11
f 22/22/11 18/418/11 20/417/11
f 18/418/11 14/23/11 16/419/11
f 14/23/11 10/8/11 12/10/11
f 10/8/11 6/24/11 8/420/11
f 6/24/11 22/22/11 2/415/11
f 22/22/11 14/23/11 18/418/11
f 14/23/11 6/24/11 10/8/11
f 22/25/12 23/26/12 24/27/12
f 24/27/13 1/1/13 2/412/13
f 23/30/14 3/422/14 1/421/14
f 3/422/14 7/28/14 5/423/14
f 7/28/14 11/11/14 9/9/14
f 11/11/14 15/29/14 13/424/14
f 15/29/14 19/426/14 17/425/14
f 19/426/14 23/30/14 21/427/14
f 23/30/14 7/28/14 3/422/14
f 7/28/14 15/29/14 11/11/14
f 15/29/14 23/30/14 19/426/14
f 25/31/15 28/32/15 26/94/15
f 27/34/16 30/35/16 28/52/16
f 29/36/17 32/37/17 30/35/17
f 31/38/18 34/39/18 32/37/18
f 33/40/19 36/41/19 34/39/19
f 35/42/20 38/43/20 36/41/20
f 38/43/21 39/45/21 40/46/21
f 40/46/22 41/47/22 42/48/22
f 42/48/23 43/49/23 44/50/23
f 44/50/24 45/51/24 46/54/24
f 28/52/25 75/53/25 73/428/25
f 46/54/26 47/55/26 48/56/26
f 48/56/27 25/31/27 26/94/27
f 31/38/11 53/57/11 33/40/11
f 58/59/28 69/60/28 70/77/28
f 47/55/11 49/62/11 25/31/11
f 27/33/11 49/62/11 50/429/11
f 31/38/11 51/64/11 52/58/11
f 45/51/11 60/63/11 47/55/11
f 29/36/11 50/66/11 51/64/11
f 43/49/11 59/65/11 45/51/11
f 43/49/11 57/61/11 58/59/11
f 41/47/11 56/67/11 57/61/11
f 39/45/11 55/68/11 56/67/11
f 35/42/11 55/68/11 37/44/11
f 33/40/11 54/69/11 35/42/11
f 72/72/11 62/84/11 61/430/11
f 62/84/11 64/70/11 63/76/11
f 64/70/11 66/432/11 65/431/11
f 66/432/11 68/71/11 67/433/11
f 68/71/11 70/435/11 69/434/11
f 70/435/11 72/72/11 71/436/11
f 72/72/11 64/70/11 62/84/11
f 64/70/11 68/71/11 66/432/11
f 68/71/11 72/72/11 70/435/11
f 54/69/29 67/73/29 55/68/29
f 51/64/30 64/75/30 52/58/30
f 59/65/31 70/77/31 71/79/31
f 56/67/32 67/73/32 68/82/32
f 52/58/33 65/78/33 53/57/33
f 60/63/34 71/79/34 72/83/34
f 49/62/35 62/80/35 50/429/35
f 57/61/36 68/82/36 69/60/36
f 53/57/37 66/74/37 54/69/37
f 49/62/38 72/83/38 61/81/38
f 50/66/39 63/76/39 51/64/39
f 81/85/40 92/86/40 80/90/40
f 46/54/41 82/88/41 44/50/41
f 44/50/42 81/85/42 42/48/42
f 42/48/43 80/90/43 40/46/43
f 40/46/44 79/91/44 38/43/44
f 36/41/45 79/91/45 78/92/45
f 34/39/46 78/92/46 77/93/46
f 32/37/47 77/93/47 76/98/47
f 26/94/48 84/95/48 48/56/48
f 26/94/49 73/97/49 74/96/49
f 30/35/50 76/98/50 75/53/50
f 48/56/51 83/89/51 46/54/51
f 86/99/48 108/100/48 96/110/48
f 77/93/52 90/102/52 89/109/52
f 84/95/53 86/99/53 96/110/53
f 75/53/54 85/103/54 73/428/54
f 82/88/55 93/87/55 81/85/55
f 78/92/56 91/106/56 90/102/56
f 76/98/57 87/104/57 75/53/57
f 82/88/58 95/108/58 94/105/58
f 80/90/59 91/106/59 79/91/59
f 76/98/60 89/109/60 88/107/60
f 83/89/61 96/110/61 95/108/61
f 73/97/62 86/99/62 74/96/62
f 85/103/25 99/112/25 97/437/25
f 94/105/42 105/113/42 93/87/42
f 90/102/45 103/115/45 102/121/45
f 87/104/50 100/116/50 99/112/50
f 95/108/41 106/114/41 94/105/41
f 92/86/44 103/115/44 91/106/44
f 88/107/47 101/119/47 100/116/47
f 96/110/51 107/117/51 95/108/51
f 86/99/49 97/120/49 98/101/49
f 93/87/43 104/118/43 92/86/43
f 89/109/46 102/121/46 101/119/46
f 109/122/63 112/123/63 110/333/63
f 111/124/261 114/125/261 112/123/261
f 113/126/262 116/127/262 114/125/262
f 115/128/66 118/129/66 116/127/66
f 117/130/67 120/131/67 118/129/67
f 119/132/68 122/133/68 120/131/68
f 122/133/69 123/135/69 124/136/69
f 124/136/70 125/137/70 126/138/70
f 126/138/71 127/139/71 128/338/71
f 128/140/263 129/141/263 130/143/263
f 130/143/264 131/144/264 132/145/264
f 132/145/74 109/122/74 110/333/74
f 119/132/265 137/146/265 138/160/265
f 142/147/266 155/148/266 143/154/266
f 117/130/267 136/150/267 137/146/267
f 131/144/268 133/151/268 109/122/268
f 111/124/269 133/151/269 134/155/269
f 115/128/270 135/153/270 136/150/270
f 129/141/271 144/152/271 131/144/271
f 113/126/272 134/155/272 135/153/272
f 127/142/273 143/154/273 129/141/273
f 125/137/274 142/156/274 127/139/274
f 123/135/275 141/157/275 125/137/275
f 121/134/276 140/158/276 123/135/276
f 121/134/277 138/160/277 139/159/277
f 148/161/278 159/162/278 160/178/278
f 139/159/279 152/164/279 140/158/279
f 144/152/280 155/148/280 156/170/280
f 134/155/281 145/166/281 146/171/281
f 140/158/282 153/167/282 141/157/282
f 137/146/283 150/168/283 138/160/283
f 133/151/284 156/170/284 145/166/284
f 135/153/285 146/171/285 147/163/285
f 141/157/286 154/172/286 142/156/286
f 138/160/287 151/165/287 139/159/287
f 136/150/288 147/163/288 148/161/288
f 167/173/289 178/174/289 179/191/289
f 154/149/290 167/173/290 155/148/290
f 151/165/291 164/176/291 152/164/291
f 149/169/292 160/178/292 161/182/292
f 156/170/293 167/173/293 168/183/293
f 146/171/294 157/179/294 158/184/294
f 152/164/295 165/180/295 153/167/295
f 149/169/296 162/181/296 150/168/296
f 145/166/297 168/183/297 157/179/297
f 147/163/298 158/184/298 159/162/298
f 153/167/299 166/185/299 154/172/299
f 150/168/300 163/177/300 151/165/300
f 172/186/301 183/187/301 184/202/301
f 163/177/302 176/189/302 164/176/302
f 161/182/303 172/186/303 173/194/303
f 168/183/304 179/191/304 180/195/304
f 158/184/305 169/192/305 170/196/305
f 164/176/306 177/193/306 165/180/306
f 162/181/307 173/194/307 174/198/307
f 157/179/308 180/195/308 169/192/308
f 159/162/309 170/196/309 171/188/309
f 165/180/310 178/197/310 166/185/310
f 162/181/311 175/190/311 163/177/311
f 160/178/312 171/188/312 172/186/312
f 179/191/313 190/199/313 191/203/313
f 175/190/314 188/200/314 176/189/314
f 173/194/315 184/202/315 185/207/315
f 180/195/316 191/203/316 192/208/316
f 170/196/317 181/204/317 182/209/317
f 176/189/318 189/205/318 177/193/318
f 173/194/319 186/206/319 174/198/319
f 169/192/320 192/208/320 181/204/320
f 171/188/321 182/209/321 183/187/321
f 177/193/322 190/210/322 178/197/322
f 174/198/323 187/201/323 175/190/323
f 137/146/324 148/161/324 149/169/324
f 194/211/135 195/212/135 196/214/135
f 196/214/136 197/215/136 198/216/136
f 198/216/137 199/217/137 200/218/137
f 200/218/138 201/219/138 202/220/138
f 202/220/139 203/221/139 204/222/139
f 204/222/140 205/223/140 206/234/140
f 205/224/141 208/225/141 206/438/141
f 207/226/142 210/227/142 208/225/142
f 209/228/143 212/229/143 210/227/143
f 211/230/144 214/231/144 212/229/144
f 198/235/145 194/440/145 196/439/145
f 194/440/145 214/233/145 216/441/145
f 214/233/145 210/443/145 212/442/145
f 210/443/145 206/234/145 208/444/145
f 206/234/145 202/445/145 204/222/145
f 202/445/145 198/235/145 200/446/145
f 198/235/145 214/233/145 194/440/145
f 214/233/145 206/234/145 210/443/145
f 206/234/145 198/235/145 202/445/145
f 213/232/146 216/236/146 214/231/146
f 215/237/147 194/211/147 216/236/147
f 215/240/148 195/448/148 193/447/148
f 195/448/148 199/238/148 197/449/148
f 199/238/148 203/221/148 201/450/148
f 203/221/148 207/239/148 205/223/148
f 207/239/148 211/452/148 209/451/148
f 211/452/148 215/240/148 213/453/148
f 215/240/148 199/238/148 195/448/148
f 199/238/148 207/239/148 203/221/148
f 207/239/148 215/240/148 211/452/148
f 218/241/149 219/242/149 220/244/149
f 220/244/150 221/245/150 222/263/150
f 222/246/151 223/247/151 224/249/151
f 224/249/152 225/250/152 226/251/152
f 226/251/153 227/252/153 228/253/153
f 228/253/154 229/254/154 230/300/154
f 229/254/155 232/255/155 230/300/155
f 231/256/156 234/257/156 232/255/156
f 233/258/157 236/259/157 234/257/157
f 235/260/158 238/261/158 236/259/158
f 222/263/159 265/264/159 220/244/159
f 237/262/160 240/266/160 238/261/160
f 239/267/161 218/241/161 240/266/161
f 223/247/145 245/268/145 225/250/145
f 249/270/162 262/271/162 250/278/162
f 239/267/145 241/273/145 217/243/145
f 219/242/145 241/273/145 242/277/145
f 223/247/145 243/275/145 244/269/145
f 237/262/145 252/274/145 239/267/145
f 221/245/145 242/277/145 243/293/145
f 235/260/145 251/276/145 237/262/145
f 235/260/145 249/270/145 250/278/145
f 233/258/145 248/279/145 249/270/145
f 231/256/145 247/280/145 248/279/145
f 227/252/145 247/280/145 229/254/145
f 225/250/145 246/281/145 227/252/145
f 264/284/145 254/455/145 253/454/145
f 254/455/145 256/282/145 255/286/145
f 256/282/145 258/457/145 257/456/145
f 258/457/145 260/283/145 259/458/145
f 260/283/145 262/460/145 261/459/145
f 262/460/145 264/284/145 263/461/145
f 264/284/145 256/282/145 254/455/145
f 256/282/145 260/283/145 258/457/145
f 260/283/145 264/284/145 262/460/145
f 247/280/163 258/285/163 259/289/163
f 244/269/164 255/286/164 256/282/164
f 250/278/165 263/287/165 251/276/165
f 247/280/166 260/288/166 248/279/166
f 245/268/167 256/282/167 257/292/167
f 251/276/168 264/290/168 252/274/168
f 242/277/169 253/291/169 254/294/169
f 248/279/170 261/272/170 249/270/170
f 246/281/171 257/292/171 258/285/171
f 252/274/172 253/291/172 241/273/172
f 243/293/173 254/294/173 255/462/173
f 273/295/174 284/296/174 272/301/174
f 236/259/175 275/298/175 274/299/175
f 234/257/176 274/299/176 273/295/176
f 232/255/177 273/295/177 272/301/177
f 230/300/178 272/301/178 271/303/178
f 230/300/179 270/302/179 228/253/179
f 228/253/180 269/304/180 226/251/180
f 226/251/181 268/305/181 224/249/181
f 240/266/182 266/306/182 276/308/182
f 220/244/183 266/306/183 218/241/183
f 224/249/184 267/307/184 222/246/184
f 238/261/185 276/308/185 275/298/185
f 288/309/182 290/310/182 300/331/182
f 269/304/186 282/312/186 281/320/186
f 276/308/187 278/311/187 288/309/187
f 267/265/188 277/313/188 265/264/188
f 274/299/189 285/297/189 273/295/189
f 270/302/190 283/316/190 282/312/190
f 268/305/191 279/317/191 267/307/191
f 274/299/192 287/319/192 286/315/192
f 272/301/193 283/316/193 271/303/193
f 268/305/194 281/320/194 280/318/194
f 275/298/195 288/309/195 287/319/195
f 265/264/196 278/311/196 266/306/196
f 279/314/159 289/321/159 277/313/159
f 285/297/176 298/323/176 297/332/176
f 283/316/179 294/324/179 282/312/179
f 280/318/184 291/326/184 279/317/184
f 286/315/175 299/328/175 298/323/175
f 283/316/178 296/329/178 295/325/178
f 281/320/181 292/327/181 280/318/181
f 287/319/185 300/331/185 299/328/185
f 277/313/183 290/310/183 278/311/183
f 284/296/177 297/332/177 296/329/177
f 282/312/180 293/330/180 281/320/180
f 110/333/74 302/334/74 132/145/74
f 132/145/325 303/336/325 130/143/325
f 130/143/326 304/337/326 128/140/326
f 128/338/71 305/339/71 126/138/71
f 126/138/70 306/341/70 124/136/70
f 124/136/69 307/342/69 122/133/69
f 307/342/68 120/131/68 122/133/68
f 308/343/67 118/129/67 120/131/67
f 309/344/66 116/127/66 118/129/66
f 310/345/327 114/125/327 116/127/327
f 311/346/328 112/123/328 114/125/328
f 312/347/63 110/333/63 112/123/63
f 305/339/329 318/348/329 306/341/329
f 323/350/330 334/351/330 335/367/330
f 304/340/331 317/349/331 305/339/331
f 301/335/332 324/354/332 313/356/332
f 301/335/333 314/355/333 302/334/333
f 303/336/334 316/357/334 304/337/334
f 312/347/335 323/350/335 324/354/335
f 302/334/336 315/358/336 303/336/336
f 311/346/337 322/352/337 323/350/337
f 310/345/338 321/359/338 322/352/338
f 309/344/339 320/360/339 321/359/339
f 308/343/340 319/361/340 320/360/340
f 306/341/341 319/361/341 307/342/341
f 327/362/342 340/363/342 328/374/342
f 319/361/343 332/365/343 320/360/343
f 324/354/344 335/367/344 336/372/344
f 314/355/345 325/368/345 326/373/345
f 320/360/346 333/369/346 321/359/346
f 317/349/347 330/370/347 318/348/347
f 313/356/348 336/372/348 325/368/348
f 315/358/349 326/373/349 327/362/349
f 322/352/350 333/369/350 334/351/350
f 318/348/351 331/366/351 319/361/351
f 315/358/352 328/374/352 316/357/352
f 346/375/353 359/376/353 347/383/353
f 335/367/354 346/375/354 347/383/354
f 331/366/355 344/378/355 332/365/355
f 328/380/356 341/381/356 329/371/356
f 336/372/357 347/383/357 348/387/357
f 326/373/358 337/384/358 338/388/358
f 332/365/359 345/385/359 333/369/359
f 329/371/360 342/386/360 330/370/360
f 325/368/361 348/387/361 337/384/361
f 327/362/362 338/388/362 339/364/362
f 333/369/363 346/375/363 334/351/363
f 330/370/364 343/379/364 331/366/364
f 352/389/365 363/390/365 364/463/365
f 344/378/366 355/392/366 356/397/366
f 341/381/367 352/393/367 353/398/367
f 347/383/368 360/394/368 348/387/368
f 337/384/369 350/395/369 338/388/369
f 345/385/370 356/397/370 357/399/370
f 342/386/371 353/398/371 354/400/371
f 348/387/372 349/396/372 337/384/372
f 339/364/373 350/395/373 351/391/373
f 345/385/374 358/377/374 346/375/374
f 343/379/375 354/400/375 355/392/375
f 340/363/376 351/391/376 352/389/376
f 358/377/377 371/401/377 359/376/377
f 355/392/378 368/403/378 356/397/378
f 353/398/379 364/405/379 365/409/379
f 359/376/380 372/406/380 360/394/380
f 350/395/381 361/407/381 362/410/381
f 356/397/382 369/408/382 357/399/382
f 354/400/383 365/409/383 366/411/383
f 360/394/384 361/407/384 349/396/384
f 351/391/385 362/410/385 363/390/385
f 357/399/386 370/402/386 358/377/386
f 355/392/387 366/411/387 367/404/387
f 329/371/388 316/353/388 328/380/388
o Cylinder
v -0.358757 -0.000000 0.291481
v -0.310416 -0.180408 0.291481
v -0.178348 -0.312476 0.291481
v 0.002060 -0.360817 0.291481
v 0.182468 -0.312476 0.291481
v 0.314536 -0.180408 0.291481
v 0.362876 0.000000 0.291481
v 0.314536 0.180408 0.291481
v 0.182468 0.312476 0.291481
v 0.002060 0.360817 0.291481
v -0.178348 0.312476 0.291481
v -0.310416 0.180408 0.291481
v -0.231826 -0.000000 0.339209
v -0.200491 -0.116943 0.339209
v -0.114883 -0.202551 0.339209
v 0.002060 -0.233885 0.339209
v 0.119003 -0.202551 0.339209
v 0.204611 -0.116943 0.339209
v 0.235945 0.000000 0.339209
v 0.204611 0.116943 0.339209
v 0.119003 0.202551 0.339209
v 0.002060 0.233885 0.339209
v -0.114883 0.202551 0.339209
v -0.200491 0.116943 0.339209
v 0.189560 -0.500000 -0.221615
v -0.185440 -0.500000 -0.221615
v -0.185440 -0.500000 -0.596614
v 0.189560 -0.500000 -0.596614
v 0.189560 -0.437500 -0.271615
v -0.185440 -0.437500 -0.271615
v -0.185440 -0.437500 -0.546615
v 0.189560 -0.437500 -0.546615
v 0.127060 -0.437500 -0.334115
v -0.122940 -0.437500 -0.334115
v -0.122940 -0.437500 -0.484115
v 0.127060 -0.437500 -0.484115
v 0.064560 -0.125000 -0.346615
v -0.060440 -0.125000 -0.346615
v -0.060440 -0.125000 -0.471615
v 0.064560 -0.125000 -0.471615
v 0.064560 -0.125000 -0.346615
v -0.060440 -0.125000 -0.346615
v -0.060440 -0.125000 -0.471615
v 0.064560 -0.125000 -0.471615
v -0.060440 -0.125000 -0.393485
v -0.060440 -0.125000 -0.424745
v 0.064560 -0.125000 -0.393485
v 0.064560 -0.125000 -0.424745
v -0.060440 -0.125000 -0.393485
v -0.060440 -0.125000 -0.424745
v 0.064560 -0.125000 -0.393485
v 0.064560 -0.125000 -0.424745
v 0.077060 -0.059855 -0.379115
v -0.072940 -0.059855 -0.379115
v -0.072940 -0.059855 -0.439115
v 0.077060 -0.059855 -0.439115
v -0.064231 -0.066291 -0.483061
v 0.002060 -0.093750 -0.483061
v 0.068351 -0.066291 -0.483061
v 0.095810 -0.000000 -0.483061
v 0.095810 -0.000000 -0.348140
v 0.068351 -0.066291 -0.348140
v 0.002060 -0.093750 -0.348140
v -0.064231 -0.066291 -0.348140
v -0.091690 -0.000000 -0.348140
v -0.064231 0.066291 -0.348140
v 0.002060 0.093750 -0.348140
v 0.068351 0.066291 -0.348140
v -0.091690 -0.000000 -0.483061
v -0.064231 0.066291 -0.483061
v 0.002060 0.093750 -0.483061
v 0.068351 0.066291 -0.483061
v -0.358757 -0.000000 -0.294643
v -0.358757 -0.000000 0.291481
v -0.310416 -0.180408 -0.294643
v -0.178348 -0.312476 -0.294643
v 0.002060 -0.360817 -0.294643
v 0.182468 -0.312476 -0.294643
v 0.314536 -0.180408 -0.294643
v 0.362876 0.000000 -0.294643
v 0.362876 0.000000 0.291481
v 0.314536 0.180408 -0.294643
v 0.314536 0.180408 0.291481
v 0.182468 0.312476 -0.294643
v 0.182468 0.312476 0.291481
v 0.002060 0.360817 -0.294643
v 0.002060 0.360817 0.291481
v -0.178348 0.312476 -0.294643
v -0.178348 0.312476 0.291481
v -0.310416 0.180408 -0.294643
v -0.310416 0.180408 0.291481
v -0.231826 -0.000000 -0.342371
v -0.200491 -0.116943 -0.342371
v -0.114883 -0.202551 -0.342371
v 0.002060 -0.233885 -0.342371
v 0.119003 -0.202551 -0.342371
v 0.204611 -0.116943 -0.342371
v 0.235945 0.000000 -0.342371
v 0.204611 0.116943 -0.342371
v 0.119003 0.202551 -0.342371
v 0.002060 0.233885 -0.342371
v -0.114883 0.202551 -0.342371
v -0.200491 0.116943 -0.342371
v 0.189560 -0.500000 0.218452
v -0.185440 -0.500000 0.218452
v -0.185440 -0.500000 0.593452
v 0.189560 -0.500000 0.593452
v 0.189560 -0.437500 0.268452
v -0.185440 -0.437500 0.268452
v -0.185440 -0.437500 0.543453
v 0.189560 -0.437500 0.543453
v 0.127060 -0.437500 0.330952
v -0.122940 -0.437500 0.330952
v -0.122940 -0.437500 0.480952
v 0.127060 -0.437500 0.480952
v 0.064560 -0.125000 0.343453
v -0.060440 -0.125000 0.343453
v -0.060440 -0.125000 0.468453
v 0.064560 -0.125000 0.468453
v 0.064560 -0.125000 0.343453
v -0.060440 -0.125000 0.343453
v -0.060440 -0.125000 0.468453
v 0.064560 -0.125000 0.468453
v -0.060440 -0.125000 0.390323
v -0.060440 -0.125000 0.421583
v 0.064560 -0.125000 0.390323
v 0.064560 -0.125000 0.421583
v -0.060440 -0.125000 0.390323
v -0.060440 -0.125000 0.421583
v 0.064560 -0.125000 0.390323
v 0.064560 -0.125000 0.421583
v 0.077060 -0.059855 0.375952
v -0.072940 -0.059855 0.375952
v -0.072940 -0.059855 0.435952
v 0.077060 -0.059855 0.435952
v -0.064231 -0.066291 0.479899
v 0.002060 -0.093750 0.479899
v 0.068351 -0.066291 0.479899
v 0.095810 -0.000000 0.479899
v 0.095810 -0.000000 0.344978
v 0.068351 -0.066291 0.344978
v 0.002060 -0.093750 0.344978
v -0.064231 -0.066291 0.344978
v -0.091690 -0.000000 0.344978
v -0.064231 0.066291 0.344978
v 0.002060 0.093750 0.344978
v 0.068351 0.066291 0.344978
v -0.091690 -0.000000 0.479899
v -0.064231 0.066291 0.479899
v 0.002060 0.093750 0.479899
v 0.068351 0.066291 0.479899
vn 0.3504 0.0939 0.9319
vn -0.0000 -0.0000 1.0000
vn 0.3504 -0.0939 0.9319
vn -0.0939 -0.3504 0.9319
vn -0.3504 0.0939 0.9319
vn -0.2565 0.2565 0.9319
vn 0.2565 -0.2565 0.9319
vn -0.0939 0.3504 0.9319
vn -0.2565 -0.2565 0.9319
vn 0.0939 0.3504 0.9319
vn -0.3504 -0.0939 0.9319
vn 0.2565 0.2565 0.9319
vn 0.0939 -0.3504 0.9319
vn -0.4785 -0.2827 0.8313
vn -0.6155 0.7006 -0.3611
vn -0.4785 -0.2827 -0.8313
vn 0.6155 0.7005 -0.3611
vn 0.4785 -0.2827 0.8313
vn 0.4785 -0.2827 -0.8313
vn 0.6155 0.7006 0.3611
vn -0.5045 0.6061 0.6149
vn -0.6180 0.1732 -0.7669
vn -0.6180 0.1732 0.7669
vn 0.6180 0.1732 0.7669
vn -0.6155 0.7005 0.3611
vn 0.5045 0.6061 -0.6149
vn 0.6180 0.1732 -0.7669
vn 0.5001 0.5001 -0.7069
vn -0.0000 0.7073 0.7069
vn 0.5001 0.5001 0.7069
vn -0.7073 -0.0000 0.7069
vn -0.5001 0.5001 -0.7069
vn -0.7073 -0.0000 -0.7069
vn 0.7073 -0.0000 0.7069
vn 0.5001 -0.5001 0.7069
vn 0.7073 -0.0000 -0.7069
vn -0.0000 -0.7073 0.7069
vn 0.5001 -0.5001 -0.7069
vn -0.5001 -0.5001 -0.7069
vn -0.0000 -0.7073 -0.7069
vn -0.5001 -0.5001 0.7069
vn -0.5001 0.5001 0.7069
vn 0.5045 0.6062 0.6148
vn 0.9659 0.2588 -0.0000
vn 0.7071 0.7071 -0.0000
vn 0.2588 0.9659 -0.0000
vn -0.2588 0.9659 -0.0000
vn -0.0000 -0.0000 -1.0000
vn -0.7071 0.7071 -0.0000
vn -0.9659 0.2588 -0.0000
vn 0.3504 0.0939 -0.9319
vn 0.3504 -0.0939 -0.9319
vn -0.0939 -0.3504 -0.9319
vn -0.3504 0.0939 -0.9319
vn -0.2565 0.2565 -0.9319
vn 0.2565 -0.2565 -0.9319
vn -0.0939 0.3504 -0.9319
vn -0.2565 -0.2565 -0.9319
vn 0.0939 0.3504 -0.9319
vn -0.3504 -0.0939 -0.9319
vn 0.2565 0.2565 -0.9319
vn 0.0939 -0.3504 -0.9319
vn -0.6155 0.7006 0.3611
vn -0.6155 0.7005 -0.3611
vn 0.6155 0.7005 0.3611
vn 0.6155 0.7006 -0.3611
vn -0.5045 0.6061 -0.6149
vn 0.6179 0.1732 0.7669
vn 0.5045 0.6062 -0.6148
vn 0.5045 0.6061 0.6149
vn -0.0000 0.7073 -0.7069
vn 0.8660 0.5000 -0.0000
vn -0.0000 1.0000 -0.0000
vn 0.8660 -0.5000 -0.0000
vn -0.5045 0.6062 -0.6148
vn -0.5045 0.6062 0.6148
vt 0.438526 0.490619
vt 0.484552 0.420743
vt 0.511968 0.470702
vt 0.519037 0.290470
vt 0.436946 0.433653
vt 0.353990 0.290968
vt 0.514403 0.469286
vt 0.519325 0.385759
vt 0.568048 0.415317
vt 0.567580 0.260618
vt 0.484053 0.255696
vt 0.513611 0.206974
vt 0.358912 0.207441
vt 0.305267 0.261411
vt 0.303867 0.263854
vt 0.341368 0.338652
vt 0.284394 0.337416
vt 0.569449 0.412873
vt 0.531947 0.338076
vt 0.588921 0.339312
vt 0.284402 0.340232
vt 0.354278 0.386258
vt 0.304319 0.413674
vt 0.511167 0.205573
vt 0.436370 0.243074
vt 0.437606 0.186100
vt 0.359705 0.469754
vt 0.389262 0.421031
vt 0.434789 0.186108
vt 0.388763 0.255984
vt 0.361347 0.206025
vt 0.435709 0.490627
vt 0.588913 0.336495
vt 0.568996 0.263053
vt 0.890632 0.199338
vt 0.727606 0.224802
vt 0.702526 0.199338
vt 0.666784 0.046555
vt 0.666784 0.199338
vt 0.727607 0.021091
vt 0.890632 0.046555
vt 0.702526 0.046555
vt 0.865551 0.377585
vt 0.727606 0.377585
vt 0.730652 0.446181
vt 0.879664 0.377933
vt 0.887350 0.452782
vt 0.869881 0.553129
vt 0.926373 0.199338
vt 0.926373 0.046555
vt 0.707160 0.533529
vt 0.837354 0.620977
vt 0.071228 0.977051
vt 0.000174 0.957395
vt 0.018502 0.934620
vt 0.110142 0.820745
vt 0.181196 0.840401
vt 0.162868 0.863176
vt 0.036830 0.911845
vt 0.055158 0.889070
vt 0.089556 0.954276
vt 0.073486 0.866295
vt 0.107884 0.931501
vt 0.144540 0.885951
vt 0.126212 0.908726
vt 0.091814 0.843520
vt 0.152132 0.956118
vt 0.173604 0.882806
vt 0.018502 0.822047
vt 0.065895 0.796128
vt 0.770061 0.697437
vt 0.666784 0.422485
vt 0.669859 0.452424
vt 0.146798 0.775195
vt 0.128470 0.797970
vt 0.588921 0.754462
vt 0.362148 0.471155
vt 0.360473 0.774847
vt 0.305735 0.416109
vt 0.152438 0.678277
vt 0.020559 0.490627
vt 0.000174 0.262179
vt 0.096744 0.054144
vt 0.865551 0.224802
vt 0.720171 0.506389
vt 0.052900 0.999826
vt 0.199524 0.930198
vt 0.044422 0.869439
vt 0.199524 0.817626
vt 0.000000 0.000000
vt 0.286911 0.755375
vt 0.000642 0.417185
vt 0.150389 0.000174
vt 0.865551 0.021091
vt 0.727578 0.416242
vt 0.196379 0.901134
vt 0.181196 0.952973
vt 0.129357 0.937790
vt 0.021647 0.851112
vt 0.036830 0.799272
vt 0.088670 0.814456
vt 0.666784 0.579405
vt 0.515479 0.774379
vt 0.098468 0.624633
vt 0.019647 0.188617
s 0
usemtl Material.003
f 380/464/389 391/465/389 379/466/389
f 388/467/390 392/468/390 396/469/390
f 379/470/391 390/471/391 378/472/391
f 376/473/392 387/474/392 375/475/392
f 373/476/393 396/469/393 384/477/393
f 384/478/394 395/479/394 383/480/394
f 378/481/395 389/482/395 377/483/395
f 383/484/396 394/485/396 382/486/396
f 375/487/397 386/488/397 374/489/397
f 381/490/398 394/485/398 393/491/398
f 374/492/399 385/493/399 373/494/399
f 380/495/400 393/491/400 392/468/400
f 377/496/401 388/467/401 376/497/401
f 454/464/432 453/539/432 452/466/432
f 456/540/433 455/541/433 454/495/433
f 458/542/434 457/543/434 456/490/434
f 460/484/435 459/544/435 458/486/435
f 382/486/436 378/472/436 374/489/436
f 462/478/437 461/545/437 460/480/437
f 445/476/438 463/546/438 462/477/438
f 470/465/439 454/464/439 452/466/439
f 473/485/436 469/471/436 465/488/436
f 469/471/440 452/470/440 451/472/440
f 466/474/441 449/473/441 448/475/441
f 475/469/442 445/476/442 462/477/442
f 474/479/443 462/478/443 460/480/443
f 468/482/444 451/481/444 450/483/444
f 473/485/445 460/484/445 458/486/445
f 465/488/446 448/487/446 447/489/446
f 456/490/447 473/485/447 458/542/447
f 445/494/448 465/488/448 447/492/448
f 454/495/449 472/491/449 456/540/449
f 467/467/450 450/496/450 449/497/450
f 448/553/390 452/553/390 460/553/390
f 452/466/460 457/554/460 453/539/460
f 456/540/461 461/555/461 457/554/461
f 445/476/462 461/555/462 446/556/462
f 380/464/389 392/468/389 391/465/389
f 396/469/390 385/493/390 386/488/390
f 386/488/390 387/474/390 388/467/390
f 388/467/390 389/482/390 390/471/390
f 390/471/390 391/465/390 392/468/390
f 392/468/390 393/491/390 394/485/390
f 394/485/390 395/479/390 396/469/390
f 396/469/390 386/488/390 388/467/390
f 388/467/390 390/471/390 392/468/390
f 392/468/390 394/485/390 396/469/390
f 379/470/391 391/465/391 390/471/391
f 376/473/392 388/467/392 387/474/392
f 373/476/393 385/493/393 396/469/393
f 384/478/394 396/469/394 395/479/394
f 378/481/395 390/471/395 389/482/395
f 383/484/396 395/479/396 394/485/396
f 375/487/397 387/474/397 386/488/397
f 381/490/398 382/542/398 394/485/398
f 374/492/399 386/488/399 385/493/399
f 380/495/400 381/540/400 393/491/400
f 377/496/401 389/482/401 388/467/401
f 454/464/432 455/566/432 453/539/432
f 456/540/433 457/554/433 455/541/433
f 458/542/434 459/567/434 457/543/434
f 460/484/435 461/555/435 459/544/435
f 374/489/436 373/476/436 384/477/436
f 384/477/436 383/480/436 382/486/436
f 382/486/436 381/490/436 380/495/436
f 380/495/436 379/466/436 378/472/436
f 378/472/436 377/483/436 376/497/436
f 376/497/436 375/475/436 374/489/436
f 374/489/436 384/477/436 382/486/436
f 382/486/436 380/495/436 378/472/436
f 378/472/436 376/497/436 374/489/436
f 462/478/437 463/568/437 461/545/437
f 445/476/438 446/556/438 463/546/438
f 470/465/439 471/468/439 454/464/439
f 465/488/436 464/493/436 475/469/436
f 475/469/436 474/479/436 473/485/436
f 473/485/436 472/491/436 471/468/436
f 471/468/436 470/465/436 469/471/436
f 469/471/436 468/482/436 467/467/436
f 467/467/436 466/474/436 465/488/436
f 465/488/436 475/469/436 473/485/436
f 473/485/436 471/468/436 469/471/436
f 469/471/436 467/467/436 465/488/436
f 469/471/440 470/465/440 452/470/440
f 466/474/441 467/467/441 449/473/441
f 475/469/442 464/493/442 445/476/442
f 474/479/443 475/469/443 462/478/443
f 468/482/444 469/471/444 451/481/444
f 473/485/445 474/479/445 460/484/445
f 465/488/446 466/474/446 448/487/446
f 456/490/447 472/491/447 473/485/447
f 445/494/448 464/493/448 465/488/448
f 454/495/449 471/468/449 472/491/449
f 467/467/450 468/482/450 450/496/450
f 460/553/390 462/553/390 445/553/390
f 445/553/390 447/553/390 448/553/390
f 448/553/390 449/553/390 450/553/390
f 450/553/390 451/553/390 452/553/390
f 452/553/390 454/553/390 456/553/390
f 456/553/390 458/553/390 460/553/390
f 460/553/390 445/553/390 448/553/390
f 448/553/390 450/553/390 452/553/390
f 452/553/390 456/553/390 460/553/390
f 452/466/460 456/540/460 457/554/460
f 456/540/461 460/484/461 461/555/461
f 445/476/462 460/484/462 461/555/462
s 1
usemtl None_base.png
f 398/498/402 403/499/403 399/500/404
f 404/501/405 399/500/404 403/502/403
f 404/503/405 397/504/406 400/505/407
f 398/498/402 400/505/407 397/504/406
f 403/499/403 401/506/408 404/507/405
f 426/508/409 407/509/410 406/510/411
f 405/511/412 426/508/409 406/510/411
f 402/512/413 397/504/406 401/513/408
f 428/514/414 405/511/412 408/515/415
f 407/534/410 428/514/414 408/515/415
f 428/535/414 426/508/409 425/536/431
f 477/498/404 482/499/451 481/547/452
f 478/500/402 483/501/453 482/502/451
f 476/504/407 483/503/453 479/505/406
f 479/505/406 477/498/404 476/504/407
f 480/506/454 482/499/451 483/507/453
f 486/509/411 505/508/455 485/510/410
f 505/508/455 484/511/415 485/510/410
f 476/504/407 481/512/452 480/513/454
f 487/515/456 504/548/457 507/514/458
f 507/514/458 486/534/411 487/515/456
f 505/508/455 507/535/458 504/536/457
f 398/498/402 402/547/413 403/499/403
f 404/501/405 400/505/407 399/500/404
f 404/503/405 401/557/408 397/504/406
f 398/498/402 399/500/404 400/505/407
f 403/499/403 402/547/413 401/506/408
f 426/508/409 427/558/463 407/509/410
f 405/511/412 425/548/431 426/508/409
f 402/512/413 398/498/402 397/504/406
f 428/514/414 425/548/431 405/511/412
f 407/534/410 427/565/463 428/514/414
f 428/535/414 427/558/463 426/508/409
f 477/498/404 478/500/402 482/499/451
f 478/500/402 479/505/406 483/501/453
f 476/504/407 480/557/454 483/503/453
f 479/505/406 478/500/402 477/498/404
f 480/506/454 481/547/452 482/499/451
f 486/509/411 506/558/464 505/508/455
f 505/508/455 504/548/457 484/511/415
f 476/504/407 477/498/404 481/512/452
f 487/515/456 484/511/415 504/548/457
f 507/514/458 506/565/464 486/534/411
f 505/508/455 506/558/464 507/535/458
usemtl None_cowl.png.001
f 444/516/416 439/517/417 440/518/418
f 437/519/419 442/520/420 441/521/421
f 433/522/422 444/516/416 440/518/418
f 434/523/423 432/524/424 433/522/422
f 435/525/425 431/526/426 434/523/423
f 435/525/425 429/527/427 430/528/428
f 436/529/429 441/521/421 429/527/427
f 432/530/424 430/528/428 441/531/421
f 440/532/418 438/533/430 436/529/429
f 439/537/417 442/520/420 438/538/430
f 519/518/416 522/549/417 523/516/418
f 521/520/430 516/519/421 520/521/419
f 523/516/418 512/522/424 519/518/416
f 511/524/422 513/523/426 512/522/424
f 510/526/423 514/525/428 513/523/426
f 508/527/429 514/525/428 509/528/425
f 520/521/419 515/529/427 508/527/429
f 509/528/425 511/530/422 522/550/417
f 517/533/420 519/532/416 513/551/426
f 517/538/420 522/552/417 518/537/459
f 444/516/416 443/549/459 439/517/417
f 437/519/419 438/538/430 442/520/420
f 433/522/422 432/524/424 444/516/416
f 434/523/423 431/526/426 432/524/424
f 435/525/425 430/528/428 431/526/426
f 435/525/425 436/529/429 429/527/427
f 436/529/429 437/519/419 441/521/421
f 441/531/421 442/559/420 443/550/459
f 443/550/459 444/560/416 432/530/424
f 432/530/424 431/561/426 430/528/428
f 430/528/428 429/527/427 441/531/421
f 441/531/421 443/550/459 432/530/424
f 436/529/429 435/525/425 434/551/423
f 434/551/423 433/562/422 440/532/418
f 440/532/418 439/563/417 438/533/430
f 438/533/430 437/564/419 436/529/429
f 436/529/429 434/551/423 440/532/418
f 439/537/417 443/552/459 442/520/420
f 519/518/416 518/517/459 522/549/417
f 521/520/430 517/538/420 516/519/421
f 523/516/418 511/524/422 512/522/424
f 511/524/422 510/526/423 513/523/426
f 510/526/423 509/528/425 514/525/428
f 508/527/429 515/529/427 514/525/428
f 520/521/419 516/519/421 515/529/427
f 522/550/417 521/559/430 520/531/419
f 520/531/419 508/527/429 509/528/425
f 509/528/425 510/561/423 511/530/422
f 511/530/422 523/560/418 522/550/417
f 522/550/417 520/531/419 509/528/425
f 513/551/426 514/525/428 515/529/427
f 515/529/427 516/564/421 517/533/420
f 517/533/420 518/563/459 519/532/416
f 519/532/416 512/562/424 513/551/426
f 513/551/426 515/529/427 517/533/420
f 517/538/420 521/520/430 522/552/417
l 412 416
l 413 409
l 411 415
l 410 414
l 424 420
l 418 422
l 423 419
l 417 421
l 491 495
l 492 488
l 490 494
l 489 493
l 503 499
l 497 501
l 502 498
l 496 500
