# Made in Blockbench 5.1.3
mtllib valve placeholder.mtl

o mesh
v 0.5 0.375 0.25
v 0.5 0.375 -0.25
v 0.5 -0.375 0.25
v 0.5 -0.375 -0.25
v 0 0.375 0.25
v 0 0.375 -0.25
v 0 -0.375 0.25
v 0 -0.375 -0.25
vt 0.125 1
vt 0 1
vt 0 0.5
vt 0.125 0.5
vt 0.28125 0.5
vt 0.28125 1
vt 0.15625 1
vt 0.15625 0.5
vt 0 0.34375
vt 0.125 0.34375
vt 0.125 0.46875
vt 0 0.46875
vt 0.28125 0.34375
vt 0.28125 0.46875
vt 0.15625 0.46875
vt 0.15625 0.34375
vt 0.4375 0.5
vt 0.4375 1
vt 0.3125 1
vt 0.3125 0.5
vt 0.59375 1
vt 0.46875 1
vt 0.46875 0.5
vt 0.59375 0.5
vn 1 0 0
vn -1 0 0
vn 0 1 0
vn 0 -1 0
vn 0 0 1
vn 0 0 -1
usemtl m_edd37c08-89c3-f124-2d17-8dac5d03d36b
f 2/1/1 1/2/1 3/3/1
f 2/1/1 3/3/1 4/4/1
f 7/5/2 5/6/2 6/7/2
f 7/5/2 6/7/2 8/8/2
f 5/9/3 1/10/3 2/11/3
f 5/9/3 2/11/3 6/12/3
f 4/13/4 3/14/4 7/15/4
f 4/13/4 7/15/4 8/16/4
f 3/17/5 1/18/5 5/19/5
f 3/17/5 5/19/5 7/20/5
f 6/21/6 2/22/6 4/23/6
f 6/21/6 4/23/6 8/24/6