# moved_half_block
# Fixed for ELN - Merged Objects
mtllib GridFuseHand.mtl
o FuseType
v -0.581672 -0.261603 -1.506603
v -0.58201 -0.400302 -1.511076
v -0.442904 -0.261907 -1.507671
v -0.443243 -0.400606 -1.512144
v -0.556757 -0.261135 1.73031
v -0.557095 -0.399834 1.725836
v -0.41799 -0.261439 1.729241
v -0.418328 -0.400138 1.724769
vt 0.030919 0.968781
vt 0.000124 0.968779
vt 0.00011 0.999594
vt 0.030907 0.999607
vt 0.12327 0.968782
vt 0.123274 0.249868
vt 0.092496 0.250866
vt 0.092491 0.96978
vt 0.000129 0.24987
vt 0.030924 0.249867
vt 0.030899 0.219038
vt 0.00011 0.219058
vt 0.061697 0.96978
vt 0.061702 0.250866
vn -0.0076 0.0322 -0.9995
vn 1 -0.0022 -0.0077
vn 0.0076 -0.0323 0.9995
vn -1 0.0022 0.0077
vn 0.0022 1 -0.0002
vn -0.0022 -1 0.0002
s off
usemtl Material.005
f 1/1/1 3/2/1 4/3/1
f 1/1/1 4/3/1 2/4/1
f 3/5/2 7/6/2 8/7/2
f 3/5/2 8/7/2 4/8/2
f 7/9/3 5/10/3 6/11/3
f 7/9/3 6/11/3 8/12/3
f 5/10/4 1/1/4 2/13/4
f 5/10/4 2/13/4 6/14/4
f 3/2/5 1/1/5 5/10/5
f 3/2/5 5/10/5 7/9/5
f 8/7/6 6/14/6 2/13/6
f 8/7/6 2/13/6 4/8/6
